<svg width="63" height="43" viewBox="0 0 63 43" fill="none" xmlns="http://www.w3.org/2000/svg">
<g clip-path="url(#clip0_101_3355)">
<path d="M41.6741 4.94936C40.3912 5.78263 39.7768 7.04003 39.1368 8.34679C38.3144 10.0601 37.809 11.9048 37.6445 13.7933C36.9034 20.5923 35.1296 20.8453 35.0102 25.3686C34.9515 27.5606 34.7882 33.7089 39.1114 37.2321C43.0737 40.4618 49.3343 40.2895 53.6215 37.3461C58.7448 33.8293 59.1009 27.695 59.1387 26.7669C59.2959 22.9653 57.7516 19.9688 57.1357 18.795C56.0934 16.8298 55.6742 16.991 54.1109 14.6578C50.5907 9.3811 51.6304 6.89867 48.9658 5.12176C46.8406 3.70752 43.6957 3.62867 41.6741 4.94936Z" fill="#DCE261"/>
<path d="M41.8141 4.85319C40.5122 5.63936 39.8877 7.07421 39.2362 8.37281C37.6875 11.4849 37.5009 15.0022 36.8406 18.3568C36.6701 19.3323 36.4282 20.2943 36.1169 21.2354C36.049 21.4586 35.8483 22.0669 35.7833 22.2839C35.3198 23.7998 35.0932 25.3763 35.1114 26.9588C35.1015 32.5901 37.7218 37.7761 43.59 39.1702C48.9049 40.4554 54.9165 38.0515 57.2871 33.0484C58.5843 30.418 58.9721 27.4209 58.7879 24.5225C58.6731 22.5844 58.0945 20.6952 56.9806 19.0891C55.8666 17.483 54.5476 15.9728 53.5673 14.2652C52.5711 12.5551 51.7636 10.7438 51.1584 8.8623C50.5822 6.96239 49.4329 5.31084 47.514 4.55764C45.7078 3.80918 43.512 3.82992 41.8119 4.85459L41.8141 4.85319ZM41.7945 4.82367C44.3644 3.26536 48.0487 3.90198 49.9753 6.17324C50.6198 6.93748 51.0533 7.85434 51.3797 8.78691C52.3567 11.5615 53.7132 14.1801 55.5173 16.5119C57.1218 18.5803 58.5374 20.34 58.9809 23.0153C59.4973 26.4204 59.1103 30.067 57.5679 33.1831C56.8983 34.5232 55.9681 35.7198 54.8306 36.7042C53.6931 37.6886 52.3709 38.4415 50.9397 38.9195C46.2676 40.5695 40.4279 39.4062 37.4244 35.3264C34.498 31.3987 34.1466 25.6423 35.8279 21.1355C36.1453 20.2111 36.394 19.2651 36.5719 18.3051C37.1786 15.4268 37.4775 12.4494 38.5663 9.68734C38.9454 8.77732 39.3788 7.89031 39.8644 7.03105C40.3325 6.16494 40.9308 5.33565 41.7941 4.81904L41.7945 4.82367Z" fill="#281200"/>
<path d="M42.3074 5.93677C41.1125 6.74227 40.528 7.93466 39.9247 9.17339C39.1413 10.7975 38.6479 12.543 38.4665 14.3324C37.6836 20.7479 36.0474 21.0077 35.8708 25.274C35.5573 32.7955 39.4731 36.3875 39.4731 36.3875C42.9197 39.4612 48.4137 39.8143 52.5432 37.4842C56.6728 35.154 58.3152 30.774 58.5718 27.6958C58.5718 27.6958 58.9011 23.7526 56.337 18.757C56.1339 18.3602 55.9078 17.9755 55.6595 17.6048C55.1158 16.8325 54.6332 16.4815 53.6179 14.9049C50.4536 9.98761 51.451 7.63338 49.0209 5.99938C47.0824 4.68972 44.1877 4.66687 42.3074 5.93677Z" fill="#EEF478"/>
<path d="M45.8981 5.5736C44.4933 5.5572 43.4867 6.24048 42.998 6.58646C41.1743 7.86804 40.503 9.7996 39.9113 11.5979C39.076 14.1376 39.3986 14.8848 38.5677 18.6694C37.9591 21.4497 37.7365 21.2612 37.4328 22.9095C37.0844 24.7996 36.181 29.6911 38.9598 33.6761C39.4462 34.3737 41.7094 37.4351 45.7349 38.0366C50.1167 38.6912 54.242 36.0788 56.2821 32.8074C59.1201 28.2597 58.0231 22.2693 55.6199 19.3392C54.9034 18.4609 53.9635 17.7411 52.8278 15.8895C51.6921 14.0379 50.9818 12.0747 50.6736 11.2046C49.7095 8.47422 49.8529 7.65445 48.8203 6.72225C48.0127 6.01269 46.9787 5.60624 45.8981 5.5736Z" fill="#FFFFA1"/>
<path d="M45.8051 20.8464C47.5315 20.4091 49.0581 21.309 49.5925 21.6243C51.4698 22.7299 52.1779 24.5123 52.5496 25.4484C52.9676 26.5012 54.1625 29.5115 52.6935 31.5638C51.7925 32.8251 50.1222 33.3945 49.124 33.7358C48.581 33.9221 48.0227 34.061 47.4554 34.1508C46.8031 34.0316 46.1636 33.8527 45.545 33.6164C44.7051 33.2941 43.8424 32.8421 43.3885 32.4951C41.6029 31.1323 41.3079 27.7103 42.1379 25.1642C42.4087 24.3313 43.3407 21.4697 45.8051 20.8464Z" fill="#7C3E06"/>
<path opacity="0.09" d="M43.2427 24.8505C41.8874 25.6574 41.846 28.3944 42.7029 30.2222C43.6797 32.3074 46.0023 33.5857 48.1732 33.3817C49.2916 33.2611 50.3425 32.7901 51.1726 32.0373C51.712 31.5413 52.5301 30.7816 52.5146 29.8415C52.4916 28.4033 50.5263 27.4411 47.8822 26.1481C45.3894 24.926 44.1418 24.315 43.2427 24.8505Z" fill="#424242"/>
<path opacity="0.17" d="M45.7237 22.0279C46.0894 21.7334 46.5359 21.5542 47.0052 21.5137C48.0016 21.4519 48.7551 22.1512 49.6795 23.0408C50.5001 23.8328 51.2015 24.7374 51.7622 25.727" fill="white"/>
<path opacity="0.76" d="M48.4899 12.9345C48.1505 13.1822 47.7539 13.4707 47.7328 13.9309C47.7056 14.5377 48.3361 15.2006 48.8906 15.2287C49.9595 15.2868 50.9126 12.95 50.4613 12.4217C50.1441 12.049 49.0741 12.5074 48.4899 12.9345Z" fill="#FFECF8"/>
<path opacity="0.76" d="M41.868 15.7424C42.2223 15.8916 42.637 16.065 42.9898 15.8779C43.4554 15.629 43.629 14.8493 43.3755 14.4186C42.8815 13.5793 40.6637 13.8897 40.4965 14.4677C40.3755 14.8751 41.2512 15.487 41.868 15.7424Z" fill="#FFECF8"/>
<path d="M44.2279 14.3471C44.773 14.9838 45.7781 14.9491 46.4702 14.5833C46.7163 14.4587 46.9136 14.2566 47.0311 14.0091C47.0199 14.1558 46.9692 14.297 46.8843 14.4179C46.3141 15.2455 44.6548 15.3488 44.2273 14.3414L44.2279 14.3471Z" fill="#281200"/>
<path d="M42.1677 12.0628C42.0079 11.8526 42.0532 11.536 42.2102 11.3293C42.5194 10.8921 43.1481 10.7583 43.6429 10.9293C43.767 10.9651 43.8817 11.0274 43.9788 11.1119C44.0758 11.1963 44.153 11.3009 44.2047 11.4181C44.0396 11.2523 43.8257 11.1423 43.5935 11.1038C42.9813 10.973 42.0329 11.3056 42.1706 12.0683L42.1677 12.0628Z" fill="black"/>
<path d="M48.4922 11.4107C48.472 10.6417 47.4758 10.5096 46.9025 10.7568C46.683 10.8419 46.4961 10.9932 46.3684 11.1892C46.3951 11.0637 46.4494 10.9455 46.5274 10.843C46.6054 10.7405 46.7052 10.6561 46.8198 10.5959C47.2646 10.3281 47.905 10.331 48.3028 10.6954C48.4975 10.8658 48.6053 11.1666 48.494 11.4047L48.4922 11.4107Z" fill="black"/>
<path d="M41.6741 4.94936C40.3912 5.78263 39.7768 7.04003 39.1368 8.34679C38.3144 10.0601 37.809 11.9048 37.6445 13.7933C36.9034 20.5923 35.1296 20.8453 35.0102 25.3686C34.9515 27.5606 34.7882 33.7089 39.1114 37.2321C43.0737 40.4618 49.3343 40.2895 53.6215 37.3461C58.7448 33.8293 59.1009 27.695 59.1387 26.7669C59.2959 22.9653 57.7516 19.9688 57.1357 18.795C56.0934 16.8298 55.6742 16.991 54.1109 14.6578C50.5907 9.3811 51.6304 6.89867 48.9658 5.12176C46.8406 3.70752 43.6957 3.62867 41.6741 4.94936Z" fill="#DCE261"/>
<path d="M41.8141 4.85319C40.5122 5.63936 39.8877 7.07421 39.2362 8.37281C37.6875 11.4849 37.5009 15.0022 36.8406 18.3568C36.6701 19.3323 36.4282 20.2943 36.1169 21.2354C36.049 21.4586 35.8483 22.0669 35.7833 22.2839C35.3198 23.7998 35.0932 25.3763 35.1114 26.9588C35.1015 32.5901 37.7218 37.7761 43.59 39.1702C48.9049 40.4554 54.9165 38.0515 57.2871 33.0484C58.5843 30.418 58.9721 27.4209 58.7879 24.5225C58.6731 22.5844 58.0945 20.6952 56.9806 19.0891C55.8666 17.483 54.5476 15.9728 53.5673 14.2652C52.5711 12.5551 51.7636 10.7438 51.1584 8.8623C50.5822 6.96239 49.4329 5.31084 47.514 4.55764C45.7078 3.80918 43.512 3.82992 41.8119 4.85459L41.8141 4.85319ZM41.7945 4.82367C44.3644 3.26536 48.0487 3.90198 49.9753 6.17324C50.6198 6.93748 51.0533 7.85434 51.3797 8.78691C52.3567 11.5615 53.7132 14.1801 55.5173 16.5119C57.1218 18.5803 58.5374 20.34 58.9809 23.0153C59.4973 26.4204 59.1103 30.067 57.5679 33.1831C56.8983 34.5232 55.9681 35.7198 54.8306 36.7042C53.6931 37.6886 52.3709 38.4415 50.9397 38.9195C46.2676 40.5695 40.4279 39.4062 37.4244 35.3264C34.498 31.3987 34.1466 25.6423 35.8279 21.1355C36.1453 20.2111 36.394 19.2651 36.5719 18.3051C37.1786 15.4268 37.4775 12.4494 38.5663 9.68734C38.9454 8.77732 39.3788 7.89031 39.8644 7.03105C40.3325 6.16494 40.9308 5.33565 41.7941 4.81904L41.7945 4.82367Z" fill="#281200"/>
<path d="M42.3074 5.93677C41.1125 6.74227 40.528 7.93466 39.9247 9.17339C39.1413 10.7975 38.6479 12.543 38.4665 14.3324C37.6836 20.7479 36.0474 21.0077 35.8708 25.274C35.5573 32.7955 39.4731 36.3875 39.4731 36.3875C42.9197 39.4612 48.4137 39.8143 52.5432 37.4842C56.6728 35.154 58.3152 30.774 58.5718 27.6958C58.5718 27.6958 58.9011 23.7526 56.337 18.757C56.1339 18.3602 55.9078 17.9755 55.6595 17.6048C55.1158 16.8325 54.6332 16.4815 53.6179 14.9049C50.4536 9.98761 51.451 7.63338 49.0209 5.99938C47.0824 4.68972 44.1877 4.66687 42.3074 5.93677Z" fill="#EEF478"/>
<path d="M45.8981 5.5736C44.4933 5.5572 43.4867 6.24048 42.998 6.58646C41.1743 7.86804 40.503 9.7996 39.9113 11.5979C39.076 14.1376 39.3986 14.8848 38.5677 18.6694C37.9591 21.4497 37.7365 21.2612 37.4328 22.9095C37.0844 24.7996 36.181 29.6911 38.9598 33.6761C39.4462 34.3737 41.7094 37.4351 45.7349 38.0366C50.1167 38.6912 54.242 36.0788 56.2821 32.8074C59.1201 28.2597 58.0231 22.2693 55.6199 19.3392C54.9034 18.4609 53.9635 17.7411 52.8278 15.8895C51.6921 14.0379 50.9818 12.0747 50.6736 11.2046C49.7095 8.47422 49.8529 7.65445 48.8203 6.72225C48.0127 6.01269 46.9787 5.60624 45.8981 5.5736Z" fill="#FFFFA1"/>
<path d="M45.8051 20.8464C47.5315 20.4091 49.0581 21.309 49.5925 21.6243C51.4698 22.7299 52.1779 24.5123 52.5496 25.4484C52.9676 26.5012 54.1625 29.5115 52.6935 31.5638C51.7925 32.8251 50.1222 33.3945 49.124 33.7358C48.581 33.9221 48.0227 34.061 47.4554 34.1508C46.8031 34.0316 46.1636 33.8527 45.545 33.6164C44.7051 33.2941 43.8424 32.8421 43.3885 32.4951C41.6029 31.1323 41.3079 27.7103 42.1379 25.1642C42.4087 24.3313 43.3407 21.4697 45.8051 20.8464Z" fill="#EEF478" fill-opacity="0.6"/>
<path opacity="0.09" d="M43.2427 24.8505C41.8874 25.6574 41.846 28.3944 42.7029 30.2222C43.6797 32.3074 46.0023 33.5857 48.1732 33.3817C49.2916 33.2611 50.3425 32.7901 51.1726 32.0373C51.712 31.5413 52.5301 30.7816 52.5146 29.8415C52.4916 28.4033 50.5263 27.4411 47.8822 26.1481C45.3894 24.926 44.1418 24.315 43.2427 24.8505Z" fill="#424242"/>
<path opacity="0.17" d="M45.7237 22.0279C46.0894 21.7334 46.5359 21.5542 47.0052 21.5137C48.0016 21.4519 48.7551 22.1512 49.6795 23.0408C50.5001 23.8328 51.2015 24.7374 51.7622 25.727" fill="white"/>
<path opacity="0.76" d="M48.4899 12.9345C48.1505 13.1822 47.7539 13.4707 47.7328 13.9309C47.7056 14.5377 48.3361 15.2006 48.8906 15.2287C49.9595 15.2868 50.9126 12.95 50.4613 12.4217C50.1441 12.049 49.0741 12.5074 48.4899 12.9345Z" fill="#FFECF8"/>
<path opacity="0.76" d="M41.868 15.7424C42.2223 15.8916 42.637 16.065 42.9898 15.8779C43.4554 15.629 43.629 14.8493 43.3755 14.4186C42.8815 13.5793 40.6637 13.8897 40.4965 14.4677C40.3755 14.8751 41.2512 15.487 41.868 15.7424Z" fill="#FFECF8"/>
<path d="M44.2279 14.3471C44.773 14.9838 45.7781 14.9491 46.4702 14.5833C46.7163 14.4587 46.9136 14.2566 47.0311 14.0091C47.0199 14.1558 46.9692 14.297 46.8843 14.4179C46.3141 15.2455 44.6548 15.3488 44.2273 14.3414L44.2279 14.3471Z" fill="#281200"/>
<path d="M42.1677 12.0628C42.0079 11.8526 42.0532 11.536 42.2102 11.3293C42.5194 10.8921 43.1481 10.7583 43.6429 10.9293C43.767 10.9651 43.8817 11.0274 43.9788 11.1119C44.0758 11.1963 44.153 11.3009 44.2047 11.4181C44.0396 11.2523 43.8257 11.1423 43.5935 11.1038C42.9813 10.973 42.0329 11.3056 42.1706 12.0683L42.1677 12.0628Z" fill="black"/>
<path d="M48.4922 11.4107C48.472 10.6417 47.4758 10.5096 46.9025 10.7568C46.683 10.8419 46.4961 10.9932 46.3684 11.1892C46.3951 11.0637 46.4494 10.9455 46.5274 10.843C46.6054 10.7405 46.7052 10.6561 46.8198 10.5959C47.2646 10.3281 47.905 10.331 48.3028 10.6954C48.4975 10.8658 48.6053 11.1666 48.494 11.4047L48.4922 11.4107Z" fill="black"/>
<g clip-path="url(#clip1_101_3355)">
<path d="M40.4391 22.0454C39.6817 21.6463 38.97 21.1679 38.3163 20.6183C36.4121 19.02 35.4811 17.1984 35.0584 16.3438C34.8057 15.8394 34.6276 15.4068 34.509 15.1024C35.0476 14.6304 35.3303 14.1871 35.2272 14.0334C35.124 13.8797 34.6577 13.9866 34.1222 14.2342C33.8096 13.6351 33.4458 13.2728 33.2816 13.3378C33.1174 13.4029 33.0998 13.9024 33.2668 14.5348C32.6613 14.7872 32.2419 15.0924 32.2849 15.2689C32.3278 15.4454 32.8872 15.5307 33.6332 15.4339C33.8387 16.086 34.0966 16.7208 34.4045 17.332C35.1363 18.8084 36.1572 20.126 37.408 21.2085C38.1244 21.81 38.9127 22.3226 39.7553 22.7347C40.1954 22.8913 40.5709 22.7158 40.6352 22.5016C40.6994 22.2874 40.4581 22.0643 40.4391 22.0454Z" fill="#281200" stroke="#281200" stroke-width="0.2" stroke-miterlimit="10"/>
</g>
<g clip-path="url(#clip2_101_3355)">
<path d="M52.8265 19.7062C53.2734 19.3371 53.679 18.9217 54.0364 18.4671C55.0777 17.1448 55.4432 15.8088 55.6053 15.184C55.7031 14.8148 55.7614 14.5034 55.7979 14.2853C55.3758 14.0468 55.1271 13.7921 55.1743 13.676C55.2214 13.5598 55.5453 13.5663 55.9344 13.6564C56.0588 13.2162 56.2499 12.9258 56.3677 12.9462C56.4855 12.9666 56.5662 13.2952 56.5428 13.7375C56.979 13.8211 57.2992 13.9655 57.2951 14.0884C57.291 14.2113 56.932 14.3452 56.4242 14.384C56.3781 14.8446 56.2948 15.3009 56.1752 15.7486C55.8941 16.8283 55.3994 17.8425 54.7199 18.7328C54.3282 19.2305 53.8765 19.6791 53.375 20.0686C53.1049 20.2332 52.8318 20.1688 52.7596 20.0357C52.6874 19.9026 52.8165 19.7213 52.8265 19.7062Z" fill="#281200" stroke="#281200" stroke-width="0.2" stroke-miterlimit="10"/>
</g>
</g>
<g clip-path="url(#clip3_101_3355)">
<path d="M17.5845 4.99335C16.1408 5.45954 15.2229 6.5118 14.2679 7.60264C13.0312 9.03856 12.0625 10.6848 11.4079 12.4631C8.90649 18.8267 7.14888 18.6031 5.84205 22.9344C5.20803 25.0331 3.43079 30.9201 6.62586 35.4566C9.55436 39.6128 15.5725 41.0936 20.4387 39.3825C26.2539 37.3383 28.2111 31.5167 28.4921 30.6304C29.6447 27.0051 28.9616 23.7088 28.6837 22.4147C28.2075 20.2451 27.7651 20.2903 26.8946 17.6308C24.928 11.6143 26.5745 9.49352 24.5011 7.07878C22.8407 5.15588 19.8604 4.2571 17.5845 4.99335Z" fill="#DCE261"/>
<path d="M17.7423 4.93716C16.2946 5.34967 15.3197 6.57387 14.3559 7.65382C12.0575 10.2491 10.9521 13.5912 9.43745 16.653C9.01735 17.5489 8.53292 18.4132 7.98795 19.2391C7.86429 19.4364 7.51262 19.9692 7.39317 20.1626C6.55106 21.5033 5.91936 22.9651 5.52008 24.4972C4.02532 29.927 5.15771 35.617 10.3884 38.5053C15.1189 41.1416 21.4891 40.4048 25.0701 36.203C27.0014 34.0072 28.1616 31.2197 28.7502 28.3758C29.1508 26.475 29.0982 24.5009 28.459 22.6588C27.8199 20.8166 26.9585 19.014 26.4749 17.1083C25.976 15.1961 25.6838 13.2359 25.6032 11.2615C25.5547 9.2763 24.8936 7.3822 23.2618 6.14982C21.7361 4.95279 19.6358 4.39518 17.7425 4.93602L17.7423 4.93716ZM17.7324 4.90487C20.594 4.07661 23.942 5.66117 25.181 8.35858C25.5945 9.26408 25.7662 10.2624 25.8317 11.2477C26.0319 14.1819 26.6299 17.0623 27.7418 19.7868C28.727 22.2039 29.6134 24.2734 29.331 26.9704C28.9257 30.3904 27.5946 33.8068 25.3016 36.4054C24.3095 37.5219 23.1065 38.4314 21.7617 39.0816C20.4169 39.7319 18.9568 40.11 17.4654 40.1944C12.5673 40.5558 7.30869 37.8986 5.51903 33.1747C3.763 28.6166 4.94607 22.9711 7.73837 19.0678C8.28397 18.2604 8.77045 17.4146 9.19399 16.537C10.5305 13.9215 11.602 11.1287 13.3693 8.75001C13.971 7.97165 14.6186 7.2298 15.3084 6.52839C15.9835 5.8162 16.773 5.17376 17.7325 4.90372L17.7324 4.90487Z" fill="#281200"/>
<path d="M17.9271 6.11202C16.5758 6.57593 15.7039 7.57106 14.8003 8.60803C13.6262 9.96619 12.6971 11.518 12.0544 13.1941C9.6155 19.1758 7.98498 18.9958 6.69134 23.0641C4.40969 30.2373 7.19809 34.7319 7.19809 34.7319C9.67578 38.602 14.8239 40.3878 19.3779 39.2279C23.9319 38.068 26.6542 34.2733 27.7106 31.3731C27.7106 31.3731 29.0648 27.6553 27.9359 22.1638C27.846 21.7274 27.7305 21.2966 27.59 20.8737C27.2751 19.9847 26.906 19.5201 26.3543 17.7327C24.6326 12.1564 26.2047 10.1493 24.3173 7.93409C22.8124 6.16674 20.0561 5.38779 17.9271 6.11202Z" fill="#EEF478"/>
<path d="M21.4473 6.70612C20.1114 6.32076 18.9709 6.71496 18.4134 6.92009C16.3334 7.67604 15.1876 9.36661 14.1492 10.9431C12.6825 13.1728 12.7935 13.9772 11.0024 17.41C9.68768 19.9301 9.52621 19.69 8.80183 21.1998C7.96984 22.931 5.81887 27.4124 7.41915 31.9858C7.69927 32.7865 9.05097 36.3346 12.7328 37.9736C16.7392 39.7576 21.3647 38.3244 24.1739 35.7048C28.0808 32.0651 28.6139 25.9989 27.0927 22.5416C26.6373 21.5054 25.9352 20.5636 25.3391 18.4847C24.7365 16.3812 24.5843 14.3187 24.5195 13.3995C24.3198 10.5125 24.6726 9.7607 23.9335 8.58881C23.0638 7.19603 21.6439 6.76366 21.4473 6.70612Z" fill="#FFFFA1"/>
<path d="M17.333 21.4125C19.0954 21.4448 20.3142 22.7155 20.7411 23.1591C22.2405 24.7193 22.446 26.6246 22.5537 27.6252C22.6737 28.7504 23.021 31.9683 21.0783 33.5614C19.8861 34.5408 18.1424 34.6506 17.0999 34.7183C16.5328 34.7542 15.9637 34.7409 15.3989 34.6785C14.8077 34.3924 14.2447 34.0516 13.7172 33.6605C13.0009 33.1287 12.2971 32.4658 11.9554 32.0129C10.6115 30.2276 11.2324 26.8507 12.6947 24.612C13.1736 23.8812 14.818 21.363 17.333 21.4125Z" fill="#7C3E06"/>
<path opacity="0.09" d="M13.8327 24.6003C12.327 25.022 11.5655 27.6521 11.9009 29.6403C12.283 31.9073 14.1617 33.7512 16.2855 34.1254C17.3846 34.304 18.512 34.1262 19.5026 33.6179C20.148 33.2814 21.1288 32.7639 21.3618 31.8543C21.7191 30.4611 20.098 29.0161 17.9166 27.0723C15.8607 25.2378 14.8317 24.3204 13.8327 24.6003Z" fill="#424242"/>
<path opacity="0.17" d="M16.9425 22.5315C17.369 22.3432 17.8423 22.2874 18.3009 22.3715C19.2677 22.574 19.8022 23.4466 20.4494 24.5478C21.0234 25.5276 21.454 26.5846 21.7279 27.6866" fill="white"/>
<path opacity="0.76" d="M21.8574 15.4405C21.4683 15.5901 21.0137 15.7652 20.8724 16.2023C20.6853 16.7803 21.1189 17.5866 21.6345 17.7598C22.6391 18.0958 24.1635 16.0925 23.8734 15.4645C23.6689 15.0227 22.5286 15.1825 21.8574 15.4405Z" fill="#FFECF8"/>
<path opacity="0.76" d="M14.0876 15.7365C14.3863 15.9736 14.7362 16.25 15.122 16.1623C15.6317 16.0458 16.0029 15.3395 15.8749 14.8563C15.6249 13.9168 13.4272 13.6328 13.1153 14.1463C12.8959 14.508 13.572 15.33 14.0876 15.7365Z" fill="#FFECF8"/>
<path d="M21.7834 14.125C22.1241 14.1819 22.4629 13.8527 22.5401 13.3899C22.6173 12.9271 22.4036 12.5059 22.0629 12.4491C21.7222 12.3923 21.3835 12.7214 21.3063 13.1842C21.2291 13.647 21.4427 14.0682 21.7834 14.125Z" fill="black"/>
<path d="M21.8109 13.9669C21.928 13.9865 22.0425 13.8853 22.0666 13.7409C22.0907 13.5966 22.0152 13.4637 21.898 13.4442C21.7809 13.4247 21.6664 13.5258 21.6423 13.6702C21.6183 13.8145 21.6937 13.9474 21.8109 13.9669Z" fill="white"/>
<path d="M16.5582 13.0981C16.8989 13.1549 17.2377 12.8258 17.3149 12.3629C17.392 11.9001 17.1784 11.4789 16.8377 11.4221C16.497 11.3653 16.1583 11.6944 16.0811 12.1572C16.0039 12.62 16.2175 13.0412 16.5582 13.0981Z" fill="black"/>
<path d="M16.5845 12.9398C16.7017 12.9594 16.8162 12.8582 16.8403 12.7138C16.8643 12.5695 16.7889 12.4366 16.6717 12.4171C16.5546 12.3976 16.4401 12.4987 16.416 12.6431C16.3919 12.7874 16.4674 12.9203 16.5845 12.9398Z" fill="white"/>
<path d="M17.5989 14.9501C17.3254 15.8928 17.9341 16.7649 18.6168 16.8542C19.2826 16.9407 20.079 16.2895 20.097 15.3343C19.9537 15.5698 19.7465 15.7574 19.5011 15.874C19.2558 15.9906 18.9831 16.0309 18.717 15.99C18.4509 15.949 18.203 15.8287 18.0042 15.6438C17.8055 15.4589 17.6645 15.2177 17.5989 14.9501Z" fill="#281200"/>
<g clip-path="url(#clip4_101_3355)">
<path d="M11.3661 18.9421C10.894 18.4954 10.4712 17.9993 10.105 17.4623C9.03805 15.9003 8.72612 14.3692 8.59012 13.6538C8.50747 13.2308 8.46473 12.8759 8.43962 12.6275C8.92781 12.3877 9.2235 12.1176 9.17925 11.9834C9.135 11.8493 8.77315 11.8343 8.33251 11.9093C8.22525 11.4044 8.03288 11.0639 7.89996 11.0789C7.76704 11.0938 7.65345 11.4587 7.64776 11.9589C7.15506 12.0232 6.78746 12.1639 6.78321 12.3028C6.77896 12.4416 7.16992 12.6171 7.73377 12.6958C7.75215 13.2182 7.81231 13.7383 7.91368 14.2511C8.14987 15.4875 8.62898 16.6648 9.3233 17.7149C9.72468 18.3028 10.1965 18.8395 10.7281 19.313C11.0177 19.5171 11.327 19.4632 11.4171 19.3181C11.5072 19.1731 11.3762 18.9599 11.3661 18.9421Z" fill="#281200" stroke="#281200" stroke-width="0.2" stroke-miterlimit="10"/>
</g>
<g clip-path="url(#clip5_101_3355)">
<path d="M25.57 21.4243C26.3401 21.0736 27.0702 20.6414 27.7478 20.1349C29.7214 18.6623 30.7523 16.9089 31.2219 16.0854C31.5023 15.5996 31.7049 15.1806 31.8407 14.8854C31.3409 14.3839 31.091 13.9264 31.2021 13.7799C31.3133 13.6334 31.7651 13.7679 32.276 14.0463C32.6213 13.47 33.002 13.132 33.1594 13.2066C33.3167 13.2811 33.3024 13.7784 33.0982 14.3966C33.6776 14.684 34.0708 15.0125 34.0174 15.1853C33.964 15.358 33.4085 15.409 32.681 15.2677C32.4377 15.9031 32.1439 16.5181 31.8025 17.1067C30.9894 18.5292 29.9022 19.7764 28.6037 20.7762C27.8611 21.3305 27.0536 21.792 26.1989 22.1504C25.7562 22.2794 25.398 22.0824 25.3484 21.8657C25.2987 21.649 25.5501 21.4419 25.57 21.4243Z" fill="#281200" stroke="#281200" stroke-width="0.2" stroke-miterlimit="10"/>
</g>
</g>
<defs>
<clipPath id="clip0_101_3355">
<rect width="27.3729" height="35.7953" fill="white" transform="translate(31.1005 5.36304) rotate(-5.88627)"/>
</clipPath>
<clipPath id="clip1_101_3355">
<rect width="7.31242" height="13.5739" fill="white" transform="matrix(-0.935244 0.354003 -0.359047 -0.93332 41.7285 23.5609)"/>
</clipPath>
<clipPath id="clip2_101_3355">
<rect width="5.55713" height="9.51717" fill="white" transform="matrix(0.987798 0.155741 0.161072 -0.986943 51.7568 20.9353)"/>
</clipPath>
<clipPath id="clip3_101_3355">
<rect width="29.0316" height="35.7953" fill="white" transform="translate(7.38806 2.61072) rotate(9.46772)"/>
</clipPath>
<clipPath id="clip4_101_3355">
<rect width="5.59467" height="11.2102" fill="white" transform="matrix(-0.995348 0.0963456 -0.0964676 -0.995336 12.4374 21.1172)"/>
</clipPath>
<clipPath id="clip5_101_3355">
<rect width="7.76783" height="14.1056" fill="white" transform="matrix(0.91022 0.414125 0.414236 -0.910169 23.0554 22.5691)"/>
</clipPath>
</defs>
</svg>
