<?xml version="1.0" encoding="utf-8"?>
<!-- Generator: Adobe Illustrator 23.0.2, SVG Export Plug-In . SVG Version: 6.00 Build 0)  -->
<svg version="1.1" id="ëÎÓÈ_1" xmlns="http://www.w3.org/2000/svg" xmlns:xlink="http://www.w3.org/1999/xlink" x="0px" y="0px"
	 viewBox="0 0 143.1 136.8" style="enable-background:new 0 0 143.1 136.8;" xml:space="preserve">
<style type="text/css">
	.st0{fill:#FFD278;}
	.st1{fill:#CE7B02;}
	.st2{fill:#FFFFFF;}
	.st3{fill:#FF553E;}
	.st4{fill:#F29E0A;}
	.st5{fill:#075703;}
	.st6{fill:#EF8F06;}
	.st7{fill:#FFC152;}
</style>
<g>
	<path class="st0" d="M47,82c-0.4,0.1-0.9-0.2-1-0.6L29.2,6c-0.1-0.4,0.2-0.9,0.6-1c0.4-0.1,0.9,0.2,1,0.6L47.6,81
		C47.7,81.5,47.4,81.9,47,82z"/>
	<path class="st1" d="M51.4,4.5c-1.2-0.8-2.7-1-4.1-0.7l-33.8,7.5c-0.4,0.1-0.8,0.2-1.2,0.4c-2.3,1.1-3.5,3.6-3,6.1l1.7,7.8
		c0.7,2.9,3.6,4.8,6.5,4.1l33.8-7.5c0.4-0.1,0.8-0.2,1.2-0.4c2.3-1.1,3.5-3.6,3-6.1l-1.7-7.8C53.5,6.5,52.6,5.3,51.4,4.5z"/>
	<path class="st2" d="M51.2,21.2l-33.8,7.5c-2.3,0.5-4.7-1-5.2-3.3l-1.7-7.8c-0.5-2.3,1-4.7,3.3-5.2l33.8-7.5c2.3-0.5,4.7,1,5.2,3.3
		l1.7,7.8C55,18.3,53.5,20.6,51.2,21.2z"/>
	<path class="st3" d="M38,11.1c-0.8-1.1-2.4-1.6-4-1.2c-1.7,0.5-2.4,2.3-2.6,3c-0.5-0.5-1.9-1.9-3.6-1.6c-1.6,0.3-2.9,1.4-3.1,2.7
		c-0.2,1.3,0.4,2.7,1.2,3.8c2,2.8,7.7,5,7.7,5s4.2-4.4,4.9-7.8C38.7,13.6,38.7,12.2,38,11.1z"/>
</g>
<g>
	<g>
		<path class="st4" d="M69,37.1c0.2,0.2,0.9-0.2,1.6-0.8c0.7-0.6,1.2-1.3,1-1.5c-0.2-0.2-0.9,0.2-1.6,0.8
			C69.3,36.2,68.9,36.9,69,37.1z"/>
		<path class="st5" d="M69.6,30.5c0.3-1.3,1.3-2.3,2.4-3.1c0.4-0.2,0.8-0.5,1-0.8c0.6,0.7,1,1.6,1.2,2.5c0.2,0.9,0.2,1.9-0.2,2.7
			c-0.7,1.7-2.4,2.8-3.2,4.4c-0.6-1-1.1-2.1-1.3-3.3C69.4,32.1,69.4,31.3,69.6,30.5z"/>
	</g>
</g>
<g>
	<path class="st6" d="M13.1,54.4l6.4,64.9c0.7,6.9,6.4,12.1,13.3,12.1h79.9c6.9,0,12.7-5.2,13.3-12.1l6.4-64.9H13.1z"/>
	<path class="st6" d="M73.7,54.9h-1.9c-2.2,0-4-1.8-4-4V6.4c0-2.2,1.8-4,4-4h1.9c2.2,0,4,1.8,4,4v44.4C77.8,53.1,76,54.9,73.7,54.9z
		"/>
	<path class="st1" d="M129.6,83.2l0.1-0.7c-1.9-0.1-4.8-0.2-8.5-0.3c0.6-10,1.2-19.5,1.6-27.8h-1.9c-0.6,8.3-1.2,17.7-1.9,27.7
		c-5.7-0.1-13.1-0.2-21.4-0.3c0.3-9.9,0.5-19.2,0.7-27.4h-1.9c-0.3,8.2-0.7,17.5-1,27.4c-6.6-0.1-13.9-0.1-21.5-0.1
		c0-9.9-0.1-19.2-0.1-27.3h-1.9c-0.1,8.2-0.1,17.4-0.1,27.3c-7.6,0-14.8,0-21.5,0.1c-0.3-9.9-0.7-19.2-1-27.4h-1.9
		c0.2,8.2,0.4,17.5,0.7,27.4c-8.3,0.1-15.6,0.2-21.4,0.3c-0.6-10-1.3-19.4-1.9-27.7h-1.9c0.4,8.3,1,17.7,1.6,27.7
		c-3.5,0.1-6.4,0.2-8.5,0.3l0.1,0.8c2.1,0.1,5,0.2,8.5,0.3c0.4,5.9,0.7,11.5,1.1,16.8c-3.1,0.1-5.8,0.1-7.9,0.2l0.1,1
		c2.1,0.1,4.8,0.2,7.9,0.2c0.4,6.1,0.8,11.7,1.2,16.8c-2.8,0.1-5.3,0.1-7.4,0.2l0.1,0.5c0,0.2,0.1,0.4,0.1,0.5
		c2.1,0.1,4.6,0.1,7.4,0.2c0.3,3.9,0.6,7.3,0.8,10.4c0.5,0.2,0.9,0.3,1.4,0.5c-0.1-3.1-0.3-6.8-0.5-10.8c5.8,0.1,12.9,0.2,20.7,0.3
		c0.2,4.2,0.4,7.9,0.6,11.1h1.3c0-3.2-0.1-6.9-0.1-11.1c6.5,0,13.4,0.1,20.7,0.1c0.1,4.1,0.1,7.8,0.2,11h1.3c0.1-3.2,0.1-6.9,0.2-11
		c7.3,0,14.3,0,20.7-0.1c-0.1,4.2-0.1,7.9-0.1,11.1h1.3c0.2-3.2,0.4-6.9,0.6-11.1c7.9-0.1,15-0.2,20.7-0.3
		c-0.2,4.1-0.4,7.7-0.5,10.8c0.5-0.1,0.9-0.3,1.4-0.5c0.3-3,0.5-6.5,0.8-10.4c2.9-0.1,5.3-0.1,7.4-0.2c0-0.2,0.1-0.3,0.1-0.5l0-0.5
		c-2-0.1-4.5-0.1-7.4-0.2c0.4-5.1,0.8-10.8,1.2-16.9c3.2-0.1,5.9-0.2,7.9-0.2l0.1-0.8c-2-0.1-4.7-0.2-7.9-0.3
		c0.4-5.4,0.7-11,1.1-16.9C124.8,83.4,127.7,83.3,129.6,83.2z M26.7,83.6c5.9,0.1,13.1,0.2,21.4,0.3c0.2,5.6,0.4,11,0.5,16.2
		c-8,0.1-15.1,0.2-21,0.3C27.4,95,27.1,89.4,26.7,83.6z M28.7,118.5c-0.2-5-0.5-10.7-0.9-16.7c5.8,0.1,12.9,0.2,20.9,0.3
		c0.2,5.8,0.4,11.3,0.7,16.2C41.5,118.3,34.5,118.4,28.7,118.5z M50.3,83.9c6.6,0,13.8,0.1,21.4,0.1c0,5.6,0,10.9,0,16
		c-7.4,0-14.4,0-21,0.1C50.6,94.9,50.5,89.5,50.3,83.9z M51.2,118.3c-0.1-4.9-0.2-10.3-0.4-16.2c6.5,0,13.6,0.1,20.9,0.1
		c0,5.8,0.1,11.2,0.1,16C64.6,118.2,57.6,118.2,51.2,118.3z M94.4,118.3c-6.4,0-13.4-0.1-20.7-0.1c0.1-4.9,0.1-10.2,0.1-16
		c7.4,0,14.4,0,20.9-0.1C94.6,107.9,94.5,113.4,94.4,118.3z M94.8,100c-6.5,0-13.6-0.1-21-0.1c0-5.1,0-10.5,0-16
		c7.6,0,14.8,0,21.4-0.1C95.1,89.5,95,94.9,94.8,100z M116.9,118.6c-5.7-0.1-12.8-0.2-20.7-0.3c0.2-4.9,0.4-10.4,0.7-16.2
		c8.1-0.1,15.2-0.2,20.9-0.3C117.5,107.8,117.2,113.5,116.9,118.6z M117.9,100.3c-5.7-0.1-12.9-0.2-20.9-0.3
		c0.2-5.2,0.4-10.6,0.6-16.2c8.3-0.1,15.7-0.2,21.4-0.3C118.5,89.4,118.2,95,117.9,100.3z"/>
	<path class="st7" d="M130.3,66.7h-115c-2,0-3.6-1.6-3.6-3.6v-9.4c0-2,1.6-3.6,3.6-3.6h115c2,0,3.6,1.6,3.6,3.6v9.4
		C133.9,65.1,132.3,66.7,130.3,66.7z"/>
</g>
</svg>
