<?xml version="1.0" encoding="utf-8"?>
<!-- Generator: Adobe Illustrator 23.0.2, SVG Export Plug-In . SVG Version: 6.00 Build 0)  -->
<svg version="1.1" id="Capa_1" xmlns="http://www.w3.org/2000/svg" xmlns:xlink="http://www.w3.org/1999/xlink" x="0px" y="0px"
	 viewBox="0 0 360 185" style="enable-background:new 0 0 360 185;" xml:space="preserve">
<style type="text/css">
	.st0{clip-path:url(#SVGID_2_);fill:#98C1D4;}
	.st1{clip-path:url(#SVGID_4_);enable-background:new    ;}
	.st2{clip-path:url(#SVGID_6_);}
	.st3{clip-path:url(#SVGID_8_);fill:#0DCE89;}
	.st4{clip-path:url(#SVGID_10_);}
	.st5{clip-path:url(#SVGID_12_);fill:#11BC7A;}
	.st6{clip-path:url(#SVGID_14_);}
	.st7{clip-path:url(#SVGID_16_);fill:#11BC7A;}
	.st8{fill:#FFFFFF;}
	.st9{clip-path:url(#SVGID_18_);enable-background:new    ;}
	.st10{clip-path:url(#SVGID_20_);}
	.st11{clip-path:url(#SVGID_22_);}
	.st12{clip-path:url(#SVGID_24_);fill:#FFFFFF;}
	.st13{clip-path:url(#SVGID_26_);fill:#FFFFFF;}
	.st14{clip-path:url(#SVGID_28_);fill:#FFFFFF;}
	.st15{clip-path:url(#SVGID_30_);fill:#FFFFFF;}
	.st16{clip-path:url(#SVGID_32_);fill:#FFFFFF;}
	.st17{clip-path:url(#SVGID_34_);fill:#FFFFFF;}
	.st18{clip-path:url(#SVGID_36_);enable-background:new    ;}
	.st19{clip-path:url(#SVGID_38_);}
	.st20{clip-path:url(#SVGID_40_);}
	.st21{clip-path:url(#SVGID_42_);fill:#FFFFFF;}
	.st22{clip-path:url(#SVGID_44_);fill:none;stroke:#FFFFFF;stroke-miterlimit:10;}
</style>
<g>
	<defs>
		<path id="SVGID_1_" d="M12,0h336c6.6,0,12,5.4,12,12v161c0,6.6-5.4,12-12,12H12c-6.6,0-12-5.4-12-12V12C0,5.4,5.4,0,12,0z"/>
	</defs>
	<clipPath id="SVGID_2_">
		<use xlink:href="#SVGID_1_"  style="overflow:visible;"/>
	</clipPath>
	<rect x="-5" y="-5" class="st0" width="370" height="195"/>
</g>
<g>
	<defs>
		<path id="SVGID_3_" d="M12,0h336c6.6,0,12,5.4,12,12v161c0,6.6-5.4,12-12,12H12c-6.6,0-12-5.4-12-12V12C0,5.4,5.4,0,12,0z"/>
	</defs>
	<clipPath id="SVGID_4_">
		<use xlink:href="#SVGID_3_"  style="overflow:visible;"/>
	</clipPath>
	<g class="st1">
		<g>
			<defs>
				<rect id="SVGID_5_" x="-38" y="-73" width="404" height="345"/>
			</defs>
			<clipPath id="SVGID_6_">
				<use xlink:href="#SVGID_5_"  style="overflow:visible;"/>
			</clipPath>
			<g class="st2">
				<defs>
					<rect id="SVGID_7_" width="361" height="185"/>
				</defs>
				<clipPath id="SVGID_8_">
					<use xlink:href="#SVGID_7_"  style="overflow:visible;"/>
				</clipPath>
				<rect x="-5" y="-5" class="st3" width="370" height="195"/>
			</g>
			<g class="st2">
				<defs>
					<ellipse id="SVGID_9_" cx="299.5" cy="-13.6" rx="60.5" ry="59"/>
				</defs>
				<clipPath id="SVGID_10_">
					<use xlink:href="#SVGID_9_"  style="overflow:visible;"/>
				</clipPath>
				<g class="st4">
					<defs>
						<rect id="SVGID_11_" width="361" height="185"/>
					</defs>
					<clipPath id="SVGID_12_">
						<use xlink:href="#SVGID_11_"  style="overflow:visible;"/>
					</clipPath>
					<rect x="234" y="-77.6" class="st5" width="131" height="128"/>
				</g>
			</g>
			<g class="st2">
				<defs>
					<ellipse id="SVGID_13_" cx="25.4" cy="210.3" rx="63.4" ry="61.7"/>
				</defs>
				<clipPath id="SVGID_14_">
					<use xlink:href="#SVGID_13_"  style="overflow:visible;"/>
				</clipPath>
				<g class="st6">
					<defs>
						<rect id="SVGID_15_" width="361" height="185"/>
					</defs>
					<clipPath id="SVGID_16_">
						<use xlink:href="#SVGID_15_"  style="overflow:visible;"/>
					</clipPath>
					<rect x="-43" y="143.7" class="st7" width="136.8" height="133.3"/>
				</g>
			</g>
		</g>
	</g>
</g>
<g>
	<path class="st8" d="M40.8,87.6h2.3v1.5h-2.5L40.3,92h-1.5l0.4-2.9h-2.9L35.9,92h-1.5l0.4-2.9h-2.3v-1.5h2.5l0.4-3H33V83h2.5
		l0.4-2.9h1.5L37,83h2.9l0.4-2.9h1.5L41.4,83h2.3l0,1.5h-2.5L40.8,87.6z M39.3,87.6l0.4-3h-2.9l-0.4,3H39.3z"/>
	<path class="st8" d="M52,83.8c0.7,0.6,1.1,1.6,1.1,2.9V92h-2v-1.1c-0.3,0.4-0.6,0.7-1.1,0.9c-0.5,0.2-1.1,0.3-1.7,0.3
		c-0.7,0-1.3-0.1-1.8-0.3c-0.5-0.2-0.9-0.6-1.2-1c-0.3-0.4-0.4-0.9-0.4-1.4c0-0.8,0.3-1.5,0.9-2c0.6-0.5,1.6-0.7,2.9-0.7H51v-0.1
		c0-0.6-0.2-1.1-0.6-1.5c-0.4-0.3-0.9-0.5-1.7-0.5c-0.5,0-1,0.1-1.5,0.2c-0.5,0.2-0.9,0.4-1.2,0.7l-0.8-1.5c0.5-0.4,1-0.6,1.7-0.8
		c0.7-0.2,1.4-0.3,2.1-0.3C50.3,82.8,51.3,83.1,52,83.8z M50.1,90.2c0.4-0.2,0.7-0.6,0.9-1v-1.1h-2.2c-1.2,0-1.8,0.4-1.8,1.2
		c0,0.4,0.2,0.7,0.5,0.9c0.3,0.2,0.7,0.3,1.3,0.3C49.2,90.6,49.7,90.5,50.1,90.2z"/>
	<path class="st8" d="M57.4,91.5c-0.7-0.4-1.3-0.9-1.8-1.7c-0.4-0.7-0.6-1.5-0.6-2.4s0.2-1.7,0.6-2.4c0.4-0.7,1-1.3,1.7-1.6
		c0.7-0.4,1.6-0.6,2.5-0.6c0.9,0,1.7,0.2,2.4,0.5c0.7,0.4,1.2,0.9,1.5,1.6l-1.6,1c-0.3-0.4-0.6-0.7-1-0.9c-0.4-0.2-0.8-0.3-1.3-0.3
		c-0.8,0-1.5,0.3-2,0.8s-0.8,1.2-0.8,2.1s0.3,1.5,0.8,2.1s1.2,0.8,2,0.8c0.5,0,0.9-0.1,1.3-0.3c0.4-0.2,0.7-0.5,1-0.9l1.6,1
		c-0.4,0.7-0.9,1.2-1.5,1.6s-1.5,0.6-2.3,0.6C59,92.1,58.2,91.9,57.4,91.5z"/>
	<path class="st8" d="M71.1,91.5c-0.2,0.2-0.6,0.4-0.9,0.5c-0.4,0.1-0.7,0.2-1.1,0.2c-1,0-1.8-0.3-2.3-0.8S66,90.1,66,89.1v-4.4
		h-1.5V83H66v-2.1h2.1V83h2.4v1.7h-2.4V89c0,0.4,0.1,0.8,0.3,1s0.5,0.3,0.9,0.3c0.5,0,0.9-0.1,1.2-0.4L71.1,91.5z"/>
	<path class="st8" d="M73,81.1c-0.3-0.2-0.4-0.5-0.4-0.9c0-0.4,0.1-0.7,0.4-0.9c0.3-0.2,0.6-0.4,1-0.4s0.7,0.1,1,0.3
		c0.3,0.2,0.4,0.5,0.4,0.9c0,0.4-0.1,0.7-0.4,0.9c-0.3,0.3-0.6,0.4-1,0.4C73.6,81.4,73.2,81.3,73,81.1z M72.9,82.9H75V92h-2.1V82.9z
		"/>
	<path class="st8" d="M83.3,91.5c-0.2,0.2-0.6,0.4-0.9,0.5c-0.4,0.1-0.7,0.2-1.1,0.2c-1,0-1.8-0.3-2.3-0.8s-0.8-1.3-0.8-2.3v-4.4
		h-1.5V83h1.5v-2.1h2.1V83h2.4v1.7h-2.4V89c0,0.4,0.1,0.8,0.3,1s0.5,0.3,0.9,0.3c0.5,0,0.9-0.1,1.2-0.4L83.3,91.5z"/>
	<path class="st8" d="M93.8,82.9V92h-2v-1.2c-0.3,0.4-0.8,0.7-1.3,0.9c-0.5,0.2-1.1,0.3-1.6,0.3c-1.2,0-2.2-0.3-2.9-1
		c-0.7-0.7-1-1.7-1-3v-5.2h2.1v4.9c0,0.8,0.2,1.4,0.6,1.8s0.9,0.6,1.6,0.6c0.8,0,1.4-0.2,1.8-0.7c0.4-0.5,0.7-1.1,0.7-2v-4.6H93.8z"
		/>
	<path class="st8" d="M105.5,79.4V92h-2v-1.2c-0.4,0.4-0.8,0.8-1.3,1s-1.1,0.3-1.7,0.3c-0.9,0-1.7-0.2-2.4-0.6
		c-0.7-0.4-1.2-0.9-1.6-1.6c-0.4-0.7-0.6-1.5-0.6-2.4s0.2-1.7,0.6-2.4c0.4-0.7,0.9-1.2,1.6-1.6c0.7-0.4,1.5-0.6,2.4-0.6
		c0.6,0,1.2,0.1,1.6,0.3c0.5,0.2,0.9,0.5,1.3,0.9v-4.7H105.5z M102.1,90c0.4-0.2,0.7-0.6,1-1c0.2-0.4,0.4-0.9,0.4-1.5
		c0-0.6-0.1-1.1-0.4-1.5c-0.2-0.4-0.6-0.8-1-1c-0.4-0.2-0.9-0.3-1.4-0.3c-0.5,0-1,0.1-1.4,0.3c-0.4,0.2-0.7,0.6-1,1S98,86.9,98,87.5
		c0,0.6,0.1,1.1,0.4,1.5s0.6,0.8,1,1c0.4,0.2,0.9,0.3,1.4,0.3C101.2,90.3,101.6,90.2,102.1,90z"/>
	<path class="st8" d="M108.5,80.1h2.2v10h6.2V92h-8.4V80.1z"/>
	<path class="st8" d="M120,91.5c-0.7-0.4-1.3-0.9-1.7-1.7c-0.4-0.7-0.6-1.5-0.6-2.4s0.2-1.7,0.6-2.4c0.4-0.7,1-1.3,1.7-1.6
		c0.7-0.4,1.6-0.6,2.5-0.6c0.9,0,1.8,0.2,2.5,0.6s1.3,0.9,1.7,1.6c0.4,0.7,0.6,1.5,0.6,2.4s-0.2,1.7-0.6,2.4c-0.4,0.7-1,1.3-1.7,1.7
		c-0.7,0.4-1.6,0.6-2.5,0.6C121.6,92.1,120.8,91.9,120,91.5z M124.5,89.5c0.5-0.5,0.8-1.2,0.8-2.1s-0.3-1.5-0.8-2.1
		c-0.5-0.5-1.2-0.8-1.9-0.8s-1.4,0.3-1.9,0.8c-0.5,0.5-0.8,1.2-0.8,2.1s0.3,1.5,0.8,2.1c0.5,0.5,1.1,0.8,1.9,0.8S124,90,124.5,89.5z
		"/>
	<path class="st8" d="M131,91.5c-0.7-0.4-1.3-0.9-1.8-1.7c-0.4-0.7-0.6-1.5-0.6-2.4s0.2-1.7,0.6-2.4c0.4-0.7,1-1.3,1.7-1.6
		c0.7-0.4,1.6-0.6,2.5-0.6c0.9,0,1.7,0.2,2.4,0.5c0.7,0.4,1.2,0.9,1.5,1.6l-1.6,1c-0.3-0.4-0.6-0.7-1-0.9c-0.4-0.2-0.8-0.3-1.3-0.3
		c-0.8,0-1.5,0.3-2,0.8s-0.8,1.2-0.8,2.1s0.3,1.5,0.8,2.1s1.2,0.8,2,0.8c0.5,0,0.9-0.1,1.3-0.3c0.4-0.2,0.7-0.5,1-0.9l1.6,1
		c-0.4,0.7-0.9,1.2-1.5,1.6c-0.7,0.4-1.5,0.6-2.3,0.6C132.6,92.1,131.8,91.9,131,91.5z"/>
	<path class="st8" d="M145.8,83.8c0.7,0.6,1.1,1.6,1.1,2.9V92h-2v-1.1c-0.3,0.4-0.6,0.7-1.1,0.9c-0.5,0.2-1.1,0.3-1.7,0.3
		s-1.3-0.1-1.8-0.3s-0.9-0.6-1.2-1s-0.4-0.9-0.4-1.4c0-0.8,0.3-1.5,0.9-2s1.6-0.7,2.9-0.7h2.3v-0.1c0-0.6-0.2-1.1-0.6-1.5
		c-0.4-0.3-0.9-0.5-1.7-0.5c-0.5,0-1,0.1-1.5,0.2c-0.5,0.2-0.9,0.4-1.2,0.7l-0.8-1.5c0.5-0.4,1-0.6,1.7-0.8c0.7-0.2,1.4-0.3,2.1-0.3
		C144.1,82.8,145.1,83.1,145.8,83.8z M143.9,90.2c0.4-0.2,0.7-0.6,0.9-1v-1.1h-2.2c-1.2,0-1.8,0.4-1.8,1.2c0,0.4,0.2,0.7,0.5,0.9
		c0.3,0.2,0.7,0.3,1.3,0.3C143,90.6,143.5,90.5,143.9,90.2z"/>
	<path class="st8" d="M149.6,79.4h2.1V92h-2.1V79.4z"/>
</g>
<g>
	<path class="st8" d="M41.5,63.7c-2.2-1.2-3.9-2.8-5.2-4.9c-1.3-2.1-1.9-4.5-1.9-7.1s0.6-5,1.9-7.1c1.3-2.1,3-3.7,5.2-4.9
		s4.7-1.8,7.4-1.8c2.3,0,4.4,0.4,6.3,1.2c1.9,0.8,3.4,2,4.7,3.5l-4,3.6c-1.8-2.1-4-3.1-6.7-3.1c-1.6,0-3.1,0.4-4.4,1.1
		c-1.3,0.7-2.3,1.7-3,3c-0.7,1.3-1.1,2.8-1.1,4.4s0.4,3.1,1.1,4.4c0.7,1.3,1.7,2.3,3,3s2.8,1.1,4.4,1.1c2.7,0,4.9-1.1,6.7-3.2l4,3.6
		c-1.3,1.5-2.8,2.7-4.7,3.5c-1.9,0.8-4,1.2-6.3,1.2C46.2,65.5,43.7,64.9,41.5,63.7z"/>
	<path class="st8" d="M67.5,64c-1.7-0.9-3-2.1-4-3.7c-1-1.6-1.4-3.4-1.4-5.4s0.5-3.8,1.4-5.4c1-1.6,2.3-2.8,4-3.7
		c1.7-0.9,3.6-1.3,5.8-1.3c2.2,0,4.1,0.5,5.8,1.3c1.7,0.9,3,2.1,4,3.7c1,1.6,1.4,3.4,1.4,5.4s-0.5,3.8-1.4,5.4c-1,1.6-2.3,2.8-4,3.7
		c-1.7,0.9-3.6,1.3-5.8,1.3C71.2,65.3,69.2,64.9,67.5,64z M77.1,58.9c1-1,1.5-2.4,1.5-4.1s-0.5-3.1-1.5-4.1c-1-1-2.2-1.5-3.7-1.5
		s-2.8,0.5-3.8,1.5c-1,1-1.5,2.4-1.5,4.1s0.5,3.1,1.5,4.1c1,1,2.2,1.5,3.8,1.5S76.1,59.9,77.1,58.9z"/>
	<path class="st8" d="M120.8,46.5c1.5,1.5,2.3,3.8,2.3,6.8V65h-5.9V54.2c0-1.6-0.3-2.8-1-3.6s-1.6-1.2-2.9-1.2
		c-1.4,0-2.5,0.5-3.3,1.3c-0.8,0.9-1.2,2.2-1.2,4V65h-5.9V54.2c0-3.2-1.3-4.8-3.9-4.8c-1.4,0-2.5,0.5-3.3,1.3
		c-0.8,0.9-1.2,2.2-1.2,4V65h-5.9V44.6h5.7v2.4c0.8-0.9,1.7-1.5,2.8-2c1.1-0.5,2.3-0.7,3.6-0.7c1.4,0,2.7,0.3,3.9,0.9
		c1.2,0.6,2.1,1.4,2.8,2.5c0.8-1.1,1.9-1.9,3.2-2.5c1.3-0.6,2.7-0.9,4.2-0.9C117.2,44.3,119.3,45,120.8,46.5z"/>
	<path class="st8" d="M145.6,45.6c1.6,0.9,2.8,2.1,3.7,3.7c0.9,1.6,1.3,3.4,1.3,5.5s-0.4,3.9-1.3,5.5c-0.9,1.6-2.1,2.8-3.7,3.7
		s-3.3,1.3-5.2,1.3c-2.6,0-4.7-0.8-6.2-2.5v9.5h-5.9V44.6h5.7v2.4c1.5-1.8,3.6-2.7,6.4-2.7C142.3,44.3,144.1,44.7,145.6,45.6z
		 M143.1,58.9c1-1,1.5-2.4,1.5-4.1s-0.5-3.1-1.5-4.1c-1-1-2.2-1.5-3.7-1.5s-2.8,0.5-3.7,1.5c-1,1-1.5,2.4-1.5,4.1s0.5,3.1,1.5,4.1
		c1,1,2.2,1.5,3.7,1.5S142.2,59.9,143.1,58.9z"/>
	<path class="st8" d="M163.1,45c1.2-0.5,2.6-0.8,4.2-0.8v5.5c-0.7,0-1.1-0.1-1.3-0.1c-1.7,0-3,0.5-4,1.4c-1,1-1.4,2.4-1.4,4.3V65
		h-5.9V44.6h5.7v2.7C160.9,46.3,161.9,45.5,163.1,45z"/>
	<path class="st8" d="M186.5,46.5c1.7,1.5,2.5,3.8,2.5,6.8V65h-5.5v-2.5c-1.1,1.9-3.2,2.8-6.2,2.8c-1.6,0-2.9-0.3-4.1-0.8
		c-1.2-0.5-2-1.3-2.6-2.2c-0.6-0.9-0.9-2-0.9-3.2c0-1.9,0.7-3.4,2.1-4.5c1.4-1.1,3.6-1.6,6.6-1.6h4.7c0-1.3-0.4-2.3-1.2-3
		c-0.8-0.7-2-1-3.5-1c-1.1,0-2.2,0.2-3.2,0.5c-1.1,0.3-1.9,0.8-2.7,1.4l-2.1-4.1c1.1-0.8,2.5-1.4,4-1.8c1.6-0.4,3.2-0.6,4.8-0.6
		C182.4,44.3,184.8,45,186.5,46.5z M181.4,60.6c0.8-0.5,1.3-1.2,1.7-2.1v-2.1H179c-2.4,0-3.6,0.8-3.6,2.4c0,0.8,0.3,1.4,0.9,1.8
		c0.6,0.4,1.4,0.7,2.5,0.7C179.7,61.3,180.6,61.1,181.4,60.6z"/>
	<path class="st8" d="M202.9,45c1.2-0.5,2.6-0.8,4.2-0.8v5.5c-0.7,0-1.1-0.1-1.3-0.1c-1.7,0-3,0.5-4,1.4c-1,1-1.4,2.4-1.4,4.3V65
		h-5.9V44.6h5.7v2.7C200.8,46.3,201.7,45.5,202.9,45z"/>
</g>
<g>
	<defs>
		<rect id="SVGID_17_" x="209.5" y="129.6" width="21" height="12.7"/>
	</defs>
	<clipPath id="SVGID_18_">
		<use xlink:href="#SVGID_17_"  style="overflow:visible;"/>
	</clipPath>
	<g class="st9">
		<g>
			<defs>
				<rect id="SVGID_19_" x="209" y="129" width="22" height="14"/>
			</defs>
			<clipPath id="SVGID_20_">
				<use xlink:href="#SVGID_19_"  style="overflow:visible;"/>
			</clipPath>
			<g class="st10">
				<defs>
					<path id="SVGID_21_" d="M229.9,138c-0.7-2.2-2-3.9-3.6-5.3c-0.6-0.4-1.2-0.8-1.9-1.2c-0.3-0.2-0.6-0.3-0.9-0.5
						c-0.3-0.2-0.7-0.3-1-0.4c-2.5-1-5.2-1.1-7.8-0.7c-1.9,0.3-3.6,0.9-5.1,1.9c1.1,2.3,2.5,4.1,4.1,5.6c2.9,2.5,6.3,3.8,9.3,4.4
						c3.8,0.8,7,0.5,7.5,0.5C230.5,140.8,230.3,139.4,229.9,138"/>
				</defs>
				<clipPath id="SVGID_22_">
					<use xlink:href="#SVGID_21_"  style="overflow:visible;"/>
				</clipPath>
				<g class="st11">
					<defs>
						<rect id="SVGID_23_" x="209" y="129" width="22" height="14"/>
					</defs>
					<clipPath id="SVGID_24_">
						<use xlink:href="#SVGID_23_"  style="overflow:visible;"/>
					</clipPath>
					<rect x="204.5" y="124.6" class="st12" width="31" height="22.7"/>
				</g>
			</g>
		</g>
	</g>
</g>
<g>
	<defs>
		<path id="SVGID_25_" d="M223.4,146.5c-1.2,0.5-2.4,1.2-3.4,2.3c-1.2,1.3-2.2,3.2-2.5,5.7c0.4,0,0.7,0.1,1.1,0.1
			c2.7,0,4.7-0.5,6.5-1.4c3-1.6,4.9-4.4,5.4-7.5C229.9,145.5,226.6,145.2,223.4,146.5"/>
	</defs>
	<clipPath id="SVGID_26_">
		<use xlink:href="#SVGID_25_"  style="overflow:visible;"/>
	</clipPath>
	<rect x="212.5" y="140.5" class="st13" width="23" height="19"/>
</g>
<g>
	<defs>
		<path id="SVGID_27_" d="M252.1,147.9H245c-0.8,0-1.5-0.7-1.5-1.5v-11.8c0-2.8-2.3-5.1-5.1-5.1h-1.9v22c0,1.6,1.4,3,3,3H252
			c1.8,0,3.3-1.3,3.5-3C255.7,149.5,254.1,147.9,252.1,147.9"/>
	</defs>
	<clipPath id="SVGID_28_">
		<use xlink:href="#SVGID_27_"  style="overflow:visible;"/>
	</clipPath>
	<rect x="231.5" y="124.5" class="st14" width="29" height="35"/>
</g>
<g>
	<defs>
		<path id="SVGID_29_" d="M315.4,133.1c0-1-0.4-2-1.2-2.7c-0.8-0.7-1.8-1-2.8-0.9c-1.1,0.1-2.1,0.8-2.7,1.8l-7.1,11.9c0,0,0,0-0.1,0
			c0,0,0,0-0.1,0l-7.3-12c-0.6-1.1-1.8-1.7-3.1-1.7h0c-2,0-3.6,1.6-3.6,3.6v18c0,1.8,1.4,3.3,3.1,3.4c0.1,0,0.1,0,0.2,0
			c0.8,0,1.6-0.3,2.3-0.9c0.7-0.6,1-1.5,1-2.4v-8.3c0,0,0,0,0-0.1c0,0,0.1,0,0.1,0l4.7,7.8c0.8,1.4,2.6,1.8,4,1
			c0.4-0.2,0.8-0.6,1.1-1.1l4.7-7.9c0,0,0,0,0.1,0c0,0,0,0,0,0.1l0,8.6c0,1.8,1.5,3.3,3.3,3.3c0.9,0,1.7-0.3,2.3-1
			c0.6-0.6,1-1.5,1-2.3L315.4,133.1z"/>
	</defs>
	<clipPath id="SVGID_30_">
		<use xlink:href="#SVGID_29_"  style="overflow:visible;"/>
	</clipPath>
	<rect x="282.5" y="124.5" class="st15" width="38" height="35"/>
</g>
<g>
	<defs>
		<path id="SVGID_31_" d="M281.7,134.1c-1.2-2-2.8-3.7-4.8-4.8c-2-1.2-4.3-1.7-6.9-1.7c-2.5,0-4.8,0.6-6.9,1.7
			c-2,1.2-3.7,2.8-4.8,4.8c-0.2,0.4-0.5,0.9-0.6,1.3c-0.1,0.2-0.1,0.4-0.1,0.5c0,0.1,0.1,0.2,0.2,0.3c0.1,0.1,0.2,0,0.3,0
			c0.5-0.5,3.4-2.7,6.2,0.5c0.1,0.1,0.1,0.1,0.2,0.1c0.1,0,0.2-0.1,0.2-0.1c0.5-0.8,1.2-1.4,1.9-1.9c1-0.6,2.1-0.9,3.3-0.9
			c1.2,0,2.4,0.3,3.3,0.9c1,0.6,1.8,1.4,2.3,2.5c0.6,1.1,0.8,2.3,0.8,3.7c0,1.4-0.3,2.6-0.8,3.7c-0.6,1.1-1.3,1.9-2.3,2.5
			c-1,0.6-2.1,0.9-3.3,0.9c-1.2,0-2.4-0.3-3.3-0.9c-0.6-0.4-1.1-0.8-1.6-1.3h0.7c0,0,0.1,0,0.1,0c0.5-0.2,0.9-0.6,1-1.1
			c0.1-0.5,0-1-0.3-1.4l-3.7-4.8c-0.5-0.7-1.2-1.1-2-1.1c-0.8,0-1.5,0.4-2,1.1l-3.2,4.8c-0.4,0.6-0.4,1.3,0,1.9
			c0.3,0.4,0.7,0.6,1.2,0.6h0.4c0.3,0.7,0.6,1.4,1,2.1c1.2,2,2.8,3.7,4.8,4.8c2,1.2,4.3,1.7,6.9,1.7c2.5,0,4.8-0.6,6.9-1.7
			c2-1.2,3.7-2.8,4.8-4.8c1.2-2,1.8-4.4,1.8-6.9S282.9,136.1,281.7,134.1C281.7,134.1,281.7,134.1,281.7,134.1"/>
	</defs>
	<clipPath id="SVGID_32_">
		<use xlink:href="#SVGID_31_"  style="overflow:visible;"/>
	</clipPath>
	<rect x="250.5" y="122.5" class="st16" width="38" height="37"/>
</g>
<g>
	<defs>
		<path id="SVGID_33_" d="M323.5,129.5L323.5,129.5c1.7,0,3,1.5,3,3.4v18.3c0,1.9-1.3,3.4-3,3.4s-3-1.5-3-3.4v-18.3
			C320.5,131,321.8,129.5,323.5,129.5"/>
	</defs>
	<clipPath id="SVGID_34_">
		<use xlink:href="#SVGID_33_"  style="overflow:visible;"/>
	</clipPath>
	<rect x="315.5" y="124.5" class="st17" width="16" height="35"/>
</g>
<g>
	<defs>
		<rect id="SVGID_35_" x="330" y="81" width="22" height="22"/>
	</defs>
	<clipPath id="SVGID_36_">
		<use xlink:href="#SVGID_35_"  style="overflow:visible;"/>
	</clipPath>
	<g class="st18">
		<g>
			<defs>
				<rect id="SVGID_37_" x="331" y="79" width="20" height="26"/>
			</defs>
			<clipPath id="SVGID_38_">
				<use xlink:href="#SVGID_37_"  style="overflow:visible;"/>
			</clipPath>
			<g class="st19">
				<defs>
					<path id="SVGID_39_" d="M337.1,99.4c-0.3-0.3-0.3-0.7,0-1l6.4-6.4l-6.4-6.4c-0.3-0.3-0.3-0.7,0-1c0.3-0.3,0.7-0.3,1,0l6.9,6.9
						c0.3,0.3,0.3,0.7,0,1l-6.9,6.9c-0.1,0.1-0.3,0.2-0.5,0.2S337.2,99.5,337.1,99.4z"/>
				</defs>
				<clipPath id="SVGID_40_">
					<use xlink:href="#SVGID_39_"  style="overflow:visible;"/>
				</clipPath>
				<g class="st20">
					<defs>
						<rect id="SVGID_41_" x="329" y="80" width="24" height="24"/>
					</defs>
					<clipPath id="SVGID_42_">
						<use xlink:href="#SVGID_41_"  style="overflow:visible;"/>
					</clipPath>
					<rect x="331.9" y="79.4" class="st21" width="18.3" height="25.1"/>
				</g>
			</g>
			<g class="st19">
				<defs>
					<rect id="SVGID_43_" x="329" y="80" width="24" height="24"/>
				</defs>
				<clipPath id="SVGID_44_">
					<use xlink:href="#SVGID_43_"  style="overflow:visible;"/>
				</clipPath>
				<path class="st22" d="M337.1,99.4c-0.3-0.3-0.3-0.7,0-1l6.4-6.4l-6.4-6.4c-0.3-0.3-0.3-0.7,0-1c0.3-0.3,0.7-0.3,1,0l6.9,6.9
					c0.3,0.3,0.3,0.7,0,1l-6.9,6.9c-0.1,0.1-0.3,0.2-0.5,0.2C337.4,99.6,337.2,99.5,337.1,99.4z"/>
			</g>
		</g>
	</g>
</g>
</svg>
