<svg width="40" height="40" viewBox="0 0 40 40" fill="none" xmlns="http://www.w3.org/2000/svg">
<g clip-path="url(#clip0_805_1797)">
<rect width="40" height="40" rx="20" fill="#E0FFF4"/>
<g clip-path="url(#clip1_805_1797)">
<path d="M16.5058 10.3988C14.8261 11.2627 13.9131 12.7357 12.9623 14.2634C11.7361 16.2702 10.8824 18.4794 10.4421 20.786C8.67104 29.0724 6.46379 29.1573 5.74495 34.7167C5.39568 37.4106 4.41742 44.9671 9.27684 49.8597C13.7305 54.342 21.4348 54.9252 27.0681 51.8424C33.8 48.1592 35.0131 40.646 35.1768 39.5056C35.8508 34.8405 34.3348 30.9514 33.7276 29.4266C32.6971 26.8723 32.1624 27.0177 30.5464 23.945C26.8942 16.9934 28.4841 14.0661 25.4392 11.5377C23.0029 9.52623 19.1537 9.03523 16.5058 10.3988Z" fill="#DCE261"/>
<path d="M16.6885 10.2981C14.9928 11.0972 14.045 12.7919 13.0812 14.3081C10.787 17.9481 10.1131 22.2576 8.87833 26.3079C8.54544 27.4883 8.12696 28.6432 7.62616 29.7636C7.51456 30.03 7.19137 30.7528 7.08413 31.0134C6.3235 32.8235 5.84647 34.7386 5.66964 36.6922C4.945 43.6324 7.50442 50.3551 14.5291 52.8187C20.887 55.0764 28.5696 52.8777 32.1117 47.0132C34.0363 43.9362 34.8914 40.2933 35.0319 36.698C35.1348 34.2934 34.6653 31.8917 33.5015 29.7708C32.3377 27.6499 30.9088 25.6225 29.9233 23.3922C28.9176 21.1571 28.1563 18.8212 27.6522 16.4247C27.1856 14.0086 25.9841 11.8286 23.7247 10.6551C21.603 9.50325 18.9059 9.24983 16.6885 10.2966V10.2981ZM16.6696 10.2606C20.0189 8.66525 24.4609 9.91937 26.5377 12.9632C27.2319 13.9855 27.6479 15.1706 27.9305 16.3613C28.7783 19.9063 30.1044 23.3044 32.0305 26.4073C33.7377 29.1603 35.2522 31.5087 35.458 34.8621C35.6609 39.1241 34.7247 43.5704 32.4377 47.2133C31.4467 48.7799 30.1538 50.1365 28.6334 51.2052C27.1131 52.2739 25.3951 53.0336 23.5783 53.4407C17.6291 54.8806 10.6175 52.705 7.4479 47.2968C4.35369 42.0845 4.65079 34.9442 7.28413 29.6052C7.78949 28.5073 8.21427 27.3745 8.55514 26.2158C9.66239 22.7471 10.4073 19.1158 12.0928 15.8487C12.6731 14.7749 13.3173 13.7364 14.0218 12.7386C14.7059 11.7307 15.545 10.7847 16.6696 10.2592V10.2606Z" fill="#281200"/>
<path d="M17.1566 11.6961C15.5899 12.5384 14.7218 13.9322 13.8232 15.3836C12.658 17.2826 11.8337 19.3683 11.387 21.5476C9.61455 29.3546 7.57252 29.4669 6.816 34.7022C5.48122 43.9332 9.83194 48.8575 9.83194 48.8575C13.6725 53.0821 20.3696 54.2153 25.7319 51.8697C31.0943 49.5242 33.6638 44.3321 34.3682 40.5726C34.3682 40.5726 35.2711 35.7533 32.7566 29.2725C32.5566 28.7575 32.3262 28.2546 32.0667 27.7664C31.4972 26.7441 30.9479 26.2517 29.903 24.1797C26.6421 17.7162 28.1638 14.943 25.3885 12.6205C23.1754 10.7674 19.6261 10.3772 17.1566 11.6961Z" fill="#EEF478"/>
<path d="M21.6073 11.7052C19.8855 11.5065 18.5638 12.2207 17.9203 12.5849C15.5174 13.9327 14.4551 16.2321 13.5015 18.3703C12.1551 21.394 12.4565 22.3544 10.958 26.9145C9.85798 30.2622 9.61016 30.0015 9.029 31.9943C8.36088 34.2794 6.6348 40.1943 9.54059 45.4571C10.0493 46.3786 12.4391 50.439 17.3029 51.6917C22.5957 53.0552 27.9899 50.3612 30.9073 46.5873C34.9652 41.3434 34.3768 33.8215 31.7971 29.9065C31.0246 28.733 29.9681 27.7251 28.8087 25.3061C27.6362 22.8584 27.0261 20.3688 26.758 19.2587C25.9203 15.7714 26.2 14.7807 25.0507 13.4993C23.6957 11.9744 21.8609 11.7354 21.6073 11.7052Z" fill="#FFFFA1"/>
<path d="M19.5638 30.5152C21.7377 30.1955 23.4972 31.5001 24.1131 31.955C26.2769 33.5562 26.9203 35.8427 27.258 37.0435C27.6363 38.3941 28.7232 42.2558 26.6609 44.5985C25.3957 46.0384 23.274 46.5279 22.0059 46.8231C21.3158 46.9826 20.6132 47.0823 19.9059 47.1211C19.1203 46.892 18.358 46.5902 17.629 46.2198C16.6392 45.7158 15.6377 45.0492 15.1247 44.5654C13.1059 42.6576 13.1769 38.4042 14.516 35.3704C14.9551 34.3798 16.4609 30.9673 19.5638 30.5152Z" fill="#7C3E06"/>
<path opacity="0.09" d="M15.9131 35.1243C14.1479 35.9465 13.7508 39.3158 14.5711 41.6772C15.5058 44.3697 18.1942 46.2401 20.8827 46.2646C22.2709 46.2589 23.6208 45.8119 24.7348 44.9889C25.4595 44.446 26.5595 43.6138 26.6595 42.4547C26.8131 40.6793 24.5232 39.2438 21.4421 37.3129C18.5377 35.4901 17.0841 34.5786 15.9131 35.1243Z" fill="#424242"/>
<path opacity="0.17" d="M19.3131 31.9619C19.799 31.6449 20.3696 31.4803 20.9508 31.4896C22.1812 31.54 23.0175 32.4975 24.0392 33.7113C24.9461 34.7917 25.6923 35.9957 26.2551 37.2865" fill="white"/>
<path d="M23.542 20.7027C23.9727 20.7027 24.3218 20.2315 24.3218 19.6502C24.3218 19.0689 23.9727 18.5977 23.542 18.5977C23.1114 18.5977 22.7623 19.0689 22.7623 19.6502C22.7623 20.2315 23.1114 20.7027 23.542 20.7027Z" fill="black"/>
<path d="M23.5435 20.5037C23.6916 20.5037 23.8116 20.3568 23.8116 20.1755C23.8116 19.9941 23.6916 19.8472 23.5435 19.8472C23.3954 19.8472 23.2754 19.9941 23.2754 20.1755C23.2754 20.3568 23.3954 20.5037 23.5435 20.5037Z" fill="white"/>
<path d="M16.9058 20.5123C17.3364 20.5123 17.6855 20.0411 17.6855 19.4598C17.6855 18.8785 17.3364 18.4072 16.9058 18.4072C16.4752 18.4072 16.1261 18.8785 16.1261 19.4598C16.1261 20.0411 16.4752 20.5123 16.9058 20.5123Z" fill="black"/>
<path d="M16.9058 20.3138C17.0539 20.3138 17.1739 20.1668 17.1739 19.9855C17.1739 19.8042 17.0539 19.6572 16.9058 19.6572C16.7577 19.6572 16.6377 19.8042 16.6377 19.9855C16.6377 20.1668 16.7577 20.3138 16.9058 20.3138Z" fill="white"/>
<path d="M18.2755 23.5176C18.1326 24.7254 19.0599 25.6671 19.9178 25.6371C20.7543 25.6071 21.6001 24.649 21.4264 23.478C21.2984 23.795 21.0821 24.0666 20.8043 24.259C20.5265 24.4515 20.1994 24.5563 19.8638 24.5605C19.5281 24.5648 19.1986 24.4682 18.9163 24.2827C18.6339 24.0973 18.4111 23.8313 18.2755 23.5176Z" fill="#281200"/>
</g>
<path d="M8.69568 19.1303C8.76097 17.0803 9.19692 15.0652 9.97801 13.2031C10.5523 11.8427 12.2422 7.86098 16.3239 6.07647C17.0134 5.7749 20.0741 4.53232 23.4498 5.72501C27.7723 7.25556 30.9112 12.1896 31.3044 18.1326" stroke="#424962" stroke-width="1.97231" stroke-miterlimit="10"/>
<path d="M35.7202 22.7499C34.8109 23.6788 33.8245 24.5389 32.7702 25.3224C29.3976 27.7927 25.4439 29.4777 21.2335 30.2391" stroke="#424962" stroke-width="1.13787" stroke-miterlimit="10"/>
<path d="M18.5272 30.2593C18.9917 31.1932 20.9838 31.2809 22.2062 31.0834C23.3375 30.9006 24.9945 30.2797 24.9805 29.5654C24.9654 28.7774 22.9129 28.1252 21.2861 28.1594C20.7357 28.1712 19.2862 28.1992 18.6866 29.0505C18.5597 29.2324 18.4799 29.434 18.4524 29.6422C18.425 29.8505 18.4505 30.0607 18.5272 30.2593Z" fill="#424962"/>
<path d="M7.35429 17.0804C6.30435 17.8728 6.70464 19.0612 6.37109 22.0985C5.87512 26.5883 4.56411 27.8534 5.61406 29.1845C6.44647 30.241 8.32014 30.785 9.32367 30.1881C10.6927 29.3747 9.32367 27.1166 10.159 22.6003C10.7391 19.431 11.847 18.0867 10.9914 17.157C10.2344 16.333 8.37813 16.3145 7.35429 17.0804Z" fill="#424962"/>
<path d="M32.6429 17.0806C33.6957 17.8733 33.2954 19.0648 33.629 22.1006C34.1249 26.5921 35.4359 27.8577 34.386 29.1919C33.5536 30.2488 31.6799 30.7772 30.6735 30.1933C29.3074 29.3822 30.6735 27.1206 29.8411 22.6026C29.261 19.4321 28.153 18.0873 29.0086 17.1573C29.7628 16.3329 31.6219 16.3144 32.6429 17.0806Z" fill="#424962"/>
<path d="M9.34691 17.6031C9.93055 18.099 9.18534 19.3166 8.94658 23.5545C8.74881 27.0484 9.15157 28.0502 8.54622 28.4966C7.25592 29.4463 2.77729 26.8674 2.61329 23.4701C2.42276 19.5224 8.14344 16.5566 9.34691 17.6031Z" fill="#2D2D2D"/>
<path d="M30.6519 17.6022C30.0708 18.0982 30.8135 19.3158 31.0546 23.554C31.2523 27.0482 30.8472 28.05 31.4549 28.4964C32.7425 29.4462 37.2203 26.8696 37.3867 23.4697C37.5772 19.5241 31.8576 16.5582 30.6519 17.6022Z" fill="#2D2D2D"/>
<g clip-path="url(#clip2_805_1797)">
<path d="M10.6616 17.898C10.727 17.547 10.9003 17.2243 11.1579 16.9736C11.4221 16.7434 11.7527 16.6002 12.1034 16.564L17.449 16.522C17.7364 16.5566 18.0134 16.6497 18.2624 16.7954C18.5114 16.9411 18.7269 17.1362 18.8954 17.3683C19.2224 17.2414 19.5731 17.1846 19.9241 17.2016C20.2751 17.2187 20.6183 17.3093 20.931 17.4673C21.0826 17.2164 21.2907 17.0032 21.539 16.844C21.7874 16.6848 22.0696 16.5838 22.3637 16.549C23.2163 16.538 24.0791 16.5335 24.952 16.5355C25.8757 16.5355 26.7892 16.545 27.6926 16.564C28.0472 16.5886 28.3864 16.7165 28.667 16.9316C29.0111 17.2062 29.2075 17.6009 29.3262 18.2161C29.5774 19.5096 29.9063 21.2067 28.6959 22.6938C27.8326 23.7532 26.4121 24.4284 25.0129 24.3039C22.8357 24.1088 20.8854 21.9855 20.7499 19.163C20.6962 19.0412 20.6175 18.9318 20.5187 18.8417C20.4199 18.7515 20.3031 18.6826 20.1759 18.6393C19.9707 18.5892 19.7547 18.6046 19.5591 18.6834C19.3634 18.7622 19.1982 18.9001 19.0873 19.0774C19.1322 20.2383 18.7846 21.3811 18.0991 22.3262C17.889 22.6068 16.4244 24.499 14.1741 24.3384C13.2592 24.2601 12.3965 23.8849 11.7213 23.2715C11.7213 23.2715 9.78767 21.5144 10.6616 17.898Z" fill="black"/>
<path d="M14.4204 18.1773C13.5371 18.438 12.8427 18.8916 12.509 19.6449C12.3925 19.9024 12.2957 20.1663 12.2191 20.4347C11.5125 19.2252 12.894 17.6977 14.4204 18.1773Z" fill="white"/>
<path d="M25.5798 18.1773C24.4029 18.438 23.4755 18.8916 23.0309 19.6449C22.8757 19.9024 22.7466 20.1663 22.6446 20.4347C21.7031 19.2252 23.5439 17.6977 25.5798 18.1773Z" fill="white"/>
</g>
</g>
<rect x="0.652174" y="0.652174" width="38.6957" height="38.6957" rx="19.3478" stroke="#00C686" stroke-width="1.30435"/>
<defs>
<clipPath id="clip0_805_1797">
<rect width="40" height="40" rx="20" fill="white"/>
</clipPath>
<clipPath id="clip1_805_1797">
<rect width="34.7826" height="44.3478" fill="white" transform="translate(3.47827 9.56543)"/>
</clipPath>
<clipPath id="clip2_805_1797">
<rect width="19.1304" height="7.82609" fill="white" transform="translate(10.4348 16.522)"/>
</clipPath>
</defs>
</svg>
