<?xml version="1.0" encoding="utf-8"?>
<!-- Generator: Adobe Illustrator 23.0.2, SVG Export Plug-In . SVG Version: 6.00 Build 0)  -->
<svg version="1.1" id="Capa_1" xmlns="http://www.w3.org/2000/svg" xmlns:xlink="http://www.w3.org/1999/xlink" x="0px" y="0px"
	 viewBox="0 0 300 300" style="enable-background:new 0 0 300 300;" xml:space="preserve">
<style type="text/css">
	.st0{fill:#BDEA96;}
	.st1{fill:#005E0D;}
</style>
<path class="st0" d="M144.3,265.7L144.3,265.7c-61.8,0-111.9-50.1-111.9-111.9V58.4c0-13.3,10.7-24,24-24h88
	c61.8,0,111.9,50.1,111.9,111.9v7.5C256.3,215.6,206.2,265.7,144.3,265.7z"/>
<g>
	<path class="st1" d="M204.3,128.3c-38,0-75.9,0-113.9,0c-6,0-9.3,3.3-9.3,9.3c0,16.2,0.1,32.4-0.1,48.6c-0.1,5.1,3,9.8,9.6,9.7
		c0.4,0,0.9,0,1.3,0c2,10.9,11.6,19.3,23.2,19.3c11.6,0,21.2-8.4,23.2-19.3c3.1,0,6.1,0,9.2,0c3,0,6.1,0,9.1,0
		c2,11,11.6,19.3,23.2,19.3c11.6,0,21.2-8.4,23.2-19.3c0.6,0,1.3,0,1.9,0c5.7,0,8.9-3.3,8.9-9c0-16.3,0-32.7,0-49
		C213.8,131.5,210.6,128.3,204.3,128.3z M131.6,191.6c0,1.5-0.2,2.9-0.6,4.2c-1.9,7-8.3,12.3-15.9,12.3c-7.6,0-14-5.2-15.9-12.2
		c-0.4-1.4-0.6-2.8-0.6-4.3c0-0.9,0.1-1.9,0.2-2.7c1.3-7.8,8.1-13.7,16.2-13.7c8.1,0,14.9,6,16.2,13.7
		C131.5,189.8,131.6,190.7,131.6,191.6z M196.2,191.6c0,1.5-0.2,2.9-0.6,4.2c-1.9,7-8.3,12.2-15.9,12.2c-7.6,0-14-5.2-15.9-12.2
		c-0.4-1.4-0.6-2.8-0.6-4.2c0-0.9,0.1-1.9,0.2-2.8c1.3-7.8,8.1-13.7,16.2-13.7c8.1,0,14.9,5.9,16.2,13.7
		C196.1,189.8,196.2,190.7,196.2,191.6z M206.7,158.6c-1,0-1.8,0-2.6,0c-24.5,0-49,0-73.5,0c-0.6,0-1.3,0-1.9,0
		c-2.1,0.2-3.5,1.6-3.4,3.6c0.1,1.9,1.5,3.4,3.6,3.4c9.5,0,19,0,28.4,0c15.8,0,31.5,0,47.3,0c0.6,0,1.1,0,2,0c0,7.4,0,14.6-0.1,21.8
		c0,0.5-0.9,1.3-1.5,1.4c-0.6,0.2-1.3,0.1-2,0.1c-1.4-11.7-11.3-20.9-23.4-20.9c-12.1,0-22,9.1-23.4,20.8c-5.9,0-11.9,0-17.8,0
		c-1.4-11.7-11.3-20.8-23.4-20.8c-12.1,0-22,9.1-23.4,20.8c-0.2,0-0.3,0-0.5,0c-3,0-3,0-3-3.1c0-6,0-12,0-17.9c0-0.7,0-1.4,0-2.2
		c2.6,0,5,0,7.4,0c2.6,0,4.1-1.2,4.1-3.4c0.1-2.3-1.4-3.6-4.1-3.6c-2.3,0-4.6,0-6.9-0.1c-0.1,0-0.2-0.1-0.5-0.3c0-0.5,0-1.2,0-1.8
		c0-6.2,0.1-12.5,0-18.7c0-1.8,0.6-2.4,2.4-2.4c21.4,0.1,42.9,0,64.3,0c16.4,0,32.8,0,49.2,0c2.5,0,2.5,0,2.6,2.5
		c0,6.1,0,12.2,0,18.3C206.7,156.9,206.7,157.6,206.7,158.6z"/>
	<path class="st1" d="M105.3,103.1c-3.6,5.1-5.6,10.8-5.5,17.1c0,1.7,0.9,2.9,2.6,3.4c1.5,0.4,3,0,3.8-1.4c0.5-0.8,0.7-1.9,0.7-2.9
		c0.2-3.4,1-6.5,2.6-9.5c1.8-3.4,1.8-3.5,5.5-2.6c3.2,0.8,6.2,0,9.5-1.2c0,0.9,0,1.6,0,2.3c0.1,2.6,1.4,4,3.7,3.9
		c2.1-0.1,3.2-1.5,3.4-4c0.2-3.2,0.6-6.4,0.9-9.6c10.2,1.4,18.3,10.7,18.5,21c0.1,2.7,1.4,4.2,3.7,4.1c2.2-0.1,3.5-1.8,3.4-4.4
		c-0.3-6.1-2.1-11.6-5.8-16.5c-3.9-5.3-9.1-8.7-15.4-10.7c1-2.5,0.8-4.1-0.8-5.2c-1.6-1.1-3.2-0.9-5.1,0.9c-1,0.9-1.8,1.9-2.8,3
		c-0.2-0.4-0.5-0.8-0.7-1.2c-2.2-4-5.4-6.5-9.9-7.5c-5.6-1.2-10.9,0.1-16,2.2c-1.7,0.7-2.2,2.5-1.6,4.5c1.4,4.6,3.3,8.9,6.2,12.7
		c0,0.1,0,0.2-0.1,0.3C105.9,102.3,105.6,102.7,105.3,103.1z M115,88.9c4.2,0.2,8.1,4.9,7.7,9.1c0,0.4-0.5,0.9-1,1.2
		c-3.4,2-6.9,1.4-9.6-1.6c-0.8-0.8-1.5-1.8-2-2.8c-0.9-1.6-1.6-3.3-2.7-5.5C110.3,89.2,112.7,88.8,115,88.9z"/>
	<path class="st1" d="M156.7,105.1c1.5,0.9,2.9,0.6,4.2-0.4c4.8-3.6,10.2-4.9,16-3.7c9.3,1.9,15.2,9.1,15.9,18.9
		c0.2,2.6,1.5,4,3.6,3.9c2.2-0.1,3.4-1.6,3.3-4.2c-0.2-14.4-12.1-26.1-26.7-26.1c-6,0-11.6,1.8-16.1,5.4c-0.8,0.6-1.5,1.6-1.8,2.5
		C154.7,102.9,155.3,104.3,156.7,105.1z"/>
</g>
<path class="st1" d="M66.2,158.6H52.8c-2.3,0-4.1-1.9-4.1-4.1v0c0-2.3,1.9-4.1,4.1-4.1h13.4c2.3,0,4.1,1.9,4.1,4.1v0
	C70.4,156.8,68.5,158.6,66.2,158.6z"/>
<path class="st1" d="M71.3,174H57.9c-2.3,0-4.1-1.9-4.1-4.1v0c0-2.3,1.9-4.1,4.1-4.1h13.4c2.3,0,4.1,1.9,4.1,4.1v0
	C75.5,172.1,73.6,174,71.3,174z"/>
</svg>
