<?xml version="1.0" encoding="utf-8"?>
<!-- Generator: Adobe Illustrator 23.0.2, SVG Export Plug-In . SVG Version: 6.00 Build 0)  -->
<svg version="1.1" id="Capa_1" xmlns="http://www.w3.org/2000/svg" xmlns:xlink="http://www.w3.org/1999/xlink" x="0px" y="0px"
	 viewBox="0 0 170.4 226.8" style="enable-background:new 0 0 170.4 226.8;" xml:space="preserve">
<style type="text/css">
	.st0{clip-path:url(#SVGID_2_);}
	.st1{clip-path:url(#SVGID_4_);enable-background:new    ;}
	.st2{clip-path:url(#SVGID_6_);}
	.st3{clip-path:url(#SVGID_8_);}
	.st4{clip-path:url(#SVGID_12_);}
	.st5{clip-path:url(#SVGID_14_);fill:#0DCE89;}
</style>
<g>
	<defs>
		<rect id="SVGID_1_" x="0.4" y="3" width="168.3" height="113.8"/>
	</defs>
	<clipPath id="SVGID_2_">
		<use xlink:href="#SVGID_1_"  style="overflow:visible;"/>
	</clipPath>
	<g class="st0">
		<defs>
			<rect id="SVGID_3_" x="-265.5" y="-2793" width="5370.9" height="9898.5"/>
		</defs>
		<clipPath id="SVGID_4_">
			<use xlink:href="#SVGID_3_"  style="overflow:visible;"/>
		</clipPath>
		<g class="st1">
			<g>
				<defs>
					<rect id="SVGID_5_" x="-6.1" y="-3.8" width="181.6" height="129.7"/>
				</defs>
				<clipPath id="SVGID_6_">
					<use xlink:href="#SVGID_5_"  style="overflow:visible;"/>
				</clipPath>
				<g class="st2">
					<defs>
						<path id="SVGID_7_" d="M164,78.3c-5.9-19.6-15.7-35.4-28.9-47.5c-4.4-3.8-9.4-7.5-14.9-11.1c-2.5-1.6-5.1-3.1-7.6-4.5
							c-2.7-1.4-5.5-2.8-8.4-4c-20.4-8.6-41.5-10-63-6C26.3,7.9,12.6,13.6,0.4,22.5c8.5,20.8,19.8,37.1,32.7,49.9
							c22.9,22.7,50.6,34,75,39.5c30.6,6.9,56,4.7,60.4,4.2C169.2,103.6,167.7,90.8,164,78.3"/>
					</defs>
					<use xlink:href="#SVGID_7_"  style="overflow:visible;fill-rule:evenodd;clip-rule:evenodd;fill:#0DCE89;"/>
					<clipPath id="SVGID_8_">
						<use xlink:href="#SVGID_7_"  style="overflow:visible;"/>
					</clipPath>
					<g class="st3">
						<defs>
							<rect id="SVGID_9_" x="-6.1" y="-3.8" width="181.6" height="129.7"/>
						</defs>
						<clipPath id="SVGID_10_">
							<use xlink:href="#SVGID_9_"  style="overflow:visible;"/>
						</clipPath>
					</g>
				</g>
			</g>
		</g>
	</g>
</g>
<g>
	<defs>
		<path id="SVGID_11_" d="M105.5,153.7c-10.8,4.2-21.4,10.4-30.4,19.5c-11.1,11.4-19.7,27.3-22.8,49.4c3.4,0.4,6.7,0.6,9.9,0.6
			c24.1,0,41.8-4,58.4-12.5c26.5-13.6,43.8-37.8,48.4-64.6C163.9,145.6,133.9,142.7,105.5,153.7"/>
	</defs>
	<clipPath id="SVGID_12_">
		<use xlink:href="#SVGID_11_"  style="overflow:visible;"/>
	</clipPath>
	<g class="st4">
		<defs>
			<rect id="SVGID_13_" x="-265.5" y="-2793" width="5370.9" height="9898.5"/>
		</defs>
		<clipPath id="SVGID_14_">
			<use xlink:href="#SVGID_13_"  style="overflow:visible;"/>
		</clipPath>
		<rect x="-12.6" y="80.5" class="st5" width="246.5" height="207.6"/>
	</g>
</g>
</svg>
