<svg width="11" height="12" viewBox="0 0 11 12" fill="none" xmlns="http://www.w3.org/2000/svg">
<g clip-path="url(#clip0_62_360)">
<path fill-rule="evenodd" clip-rule="evenodd" d="M7.73508 0.0510109C7.80236 0.0935647 7.85443 0.159753 7.88278 0.238764C7.91113 0.317775 7.91407 0.404937 7.89114 0.486011L6.65295 4.87501H8.93752C9.00465 4.87498 9.07033 4.8964 9.12644 4.93662C9.18254 4.97685 9.22663 5.03411 9.25324 5.10135C9.27985 5.1686 9.28784 5.24287 9.2762 5.315C9.26457 5.38713 9.23382 5.45397 9.18777 5.50726L3.68777 11.8823C3.63455 11.944 3.56373 11.9842 3.48686 11.9965C3.40999 12.0087 3.33159 11.9921 3.26445 11.9495C3.19731 11.9068 3.14538 11.8407 3.11713 11.7617C3.08888 11.6828 3.08598 11.5957 3.10889 11.5148L4.34708 7.12501H2.06252C1.99538 7.12504 1.9297 7.10362 1.87359 7.0634C1.81749 7.02317 1.77341 6.96591 1.74679 6.89867C1.72018 6.83143 1.71219 6.75715 1.72383 6.68502C1.73546 6.61289 1.76621 6.54605 1.81227 6.49276L7.31227 0.117761C7.36542 0.0561102 7.43612 0.0158873 7.51289 0.00363228C7.58965 -0.00862276 7.66796 0.00781077 7.73508 0.0502609V0.0510109Z" fill="#00C686"/>
</g>
<defs>
<clipPath id="clip0_62_360">
<rect width="11" height="12" fill="white"/>
</clipPath>
</defs>
</svg>
