<?xml version="1.0" encoding="utf-8"?>
<!-- Generator: Adobe Illustrator 23.0.2, SVG Export Plug-In . SVG Version: 6.00 Build 0)  -->
<svg version="1.1" id="Capa_1" xmlns="http://www.w3.org/2000/svg" xmlns:xlink="http://www.w3.org/1999/xlink" x="0px" y="0px"
	 viewBox="0 0 165.7 45.9" style="enable-background:new 0 0 165.7 45.9;" xml:space="preserve">
<style type="text/css">
	.st0{fill:#03C686;}
	.st1{fill:#3A3A51;}
</style>
<g>
	<g>
		<g>
			<path class="st0" d="M30.9,18.2c-1-3-2.6-5.4-4.8-7.2c-0.7-0.6-1.5-1.1-2.5-1.7c-0.4-0.3-0.8-0.5-1.2-0.7C22,8.3,21.5,8.1,21,8
				C17.7,6.6,14.2,6.4,10.7,7C8.2,7.5,6,8.3,4,9.7c1.4,3.2,3.3,5.7,5.4,7.6c3.8,3.5,8.3,5.2,12.3,6c5,1.1,9.2,0.7,9.9,0.6
				C31.7,22,31.5,20.1,30.9,18.2z"/>
			<path class="st0" d="M21.3,28c-1.7,0.7-3.3,1.7-4.7,3.2c-1.7,1.9-3.1,4.5-3.6,8.1c0.5,0.1,1,0.1,1.5,0.1c3.8,0,6.5-0.7,9.1-2
				c4.1-2.2,6.8-6.2,7.5-10.6C30.4,26.6,25.8,26.2,21.3,28z"/>
		</g>
		<g>
			<path class="st1" d="M60,30.6h-9.2c-1.1,0-1.9-0.9-1.9-1.9V13.1c0-3.7-3-6.7-6.7-6.7h-2.5v29.1c0,2.2,1.8,3.9,3.9,3.9h16.3
				c2.3,0,4.3-1.7,4.5-4C64.6,32.8,62.6,30.6,60,30.6z"/>
			<path class="st1" d="M143.8,11.1c0-1.4-0.6-2.6-1.6-3.5c-1-0.9-2.4-1.3-3.7-1.2c-1.5,0.2-2.8,1.1-3.6,2.4l-9.3,15.7
				c0,0,0,0-0.1,0c0,0-0.1,0-0.1,0l-9.6-15.9c-0.9-1.4-2.4-2.3-4.1-2.3h-0.1c-2.6,0-4.8,2.1-4.8,4.8v23.7c0,2.4,1.8,4.4,4.1,4.5
				c0.1,0,0.2,0,0.3,0c1.1,0,2.2-0.4,3-1.2c0.9-0.8,1.4-2,1.4-3.2V24c0,0,0-0.1,0.1-0.1c0.1,0,0.1,0,0.1,0l6.2,10.2
				c1.1,1.8,3.5,2.4,5.3,1.3c0.5-0.3,1-0.8,1.4-1.4l6.2-10.5c0,0,0-0.1,0.1,0c0.1,0,0.1,0,0.1,0.1l0,11.3c0,2.4,2,4.4,4.4,4.4
				c1.2,0,2.3-0.5,3.1-1.3c0.8-0.8,1.3-1.9,1.3-3.1L143.8,11.1z"/>
			<path class="st1" d="M99.4,14.4c-1.6-2.6-3.7-4.6-6.4-6.1c-2.7-1.5-5.8-2.2-9.1-2.2c-3.4,0-6.5,0.7-9.2,2.2
				c-2.7,1.5-4.9,3.5-6.4,6.1c-0.3,0.5-0.6,1.1-0.9,1.7c-0.1,0.2-0.1,0.4-0.1,0.7c0,0.2,0.1,0.3,0.2,0.4c0.1,0.1,0.3,0,0.4-0.1
				c0.7-0.6,4.5-3.4,8.3,0.7c0.1,0.1,0.2,0.1,0.3,0.1c0.1,0,0.2-0.1,0.3-0.2c0.7-1,1.6-1.8,2.6-2.3c1.3-0.7,2.8-1.1,4.5-1.1
				c1.6,0,3.1,0.4,4.5,1.1c1.3,0.7,2.3,1.8,3.1,3.1c0.8,1.3,1.1,2.9,1.1,4.6s-0.4,3.3-1.1,4.6c-0.7,1.3-1.8,2.4-3.1,3.1
				C87,31.6,85.5,32,83.8,32c-1.6,0-3.1-0.4-4.5-1.1c-0.8-0.5-1.5-1-2.1-1.7h1c0.1,0,0.1,0,0.2,0c0.7-0.3,1.1-0.8,1.3-1.4
				c0.2-0.6,0-1.2-0.4-1.7l-5-6.1c-0.7-0.9-1.7-1.4-2.7-1.4c-1,0-2,0.5-2.7,1.4L64.8,26c-0.5,0.7-0.5,1.7,0,2.4
				c0.4,0.5,1,0.8,1.6,0.8h0.5c0.3,0.9,0.8,1.8,1.3,2.6c1.5,2.6,3.7,4.6,6.4,6.1c2.7,1.5,5.8,2.2,9.2,2.2s6.4-0.7,9.1-2.2
				c2.7-1.5,4.9-3.5,6.4-6.1c1.6-2.6,2.4-5.5,2.4-8.7S101,17,99.4,14.4C99.4,14.4,99.4,14.4,99.4,14.4z"/>
		</g>
	</g>
	<path class="st1" d="M154.2,6.4L154.2,6.4c2.4,0,4.4,2,4.4,4.4v24.1c0,2.4-2,4.4-4.4,4.4l0,0c-2.4,0-4.4-2-4.4-4.4V10.8
		C149.8,8.4,151.8,6.4,154.2,6.4z"/>
</g>
</svg>
