<svg width="31" height="31" viewBox="0 0 31 31" fill="none" xmlns="http://www.w3.org/2000/svg">
<circle cx="15.5" cy="15.5" r="15.5" fill="#FFD12E"/>
<path d="M15.4998 13.1747L15.0308 13.6601L15.5217 14.1344L15.9905 13.6382L15.4998 13.1747ZM13.1748 9.29966L12.5018 9.35143L13.1748 9.29966ZM15.4998 4.64966L15.9688 4.1642C15.8392 4.03891 15.6647 3.97072 15.4844 3.97483C15.3042 3.97895 15.133 4.05502 15.0092 4.1861L15.4998 4.64966ZM17.8248 8.52466L18.4979 8.47289L17.8248 8.52466ZM15.4998 13.1747C15.9688 12.6892 15.9689 12.6893 15.969 12.6894C15.969 12.6894 15.9691 12.6894 15.9691 12.6895C15.9692 12.6895 15.9692 12.6895 15.9692 12.6895C15.9692 12.6895 15.969 12.6894 15.9687 12.6891C15.9682 12.6886 15.9671 12.6875 15.9655 12.686C15.9624 12.6829 15.9573 12.6779 15.9503 12.671C15.9364 12.6572 15.915 12.6358 15.8873 12.6075C15.8317 12.551 15.7508 12.4669 15.6527 12.36C15.4559 12.1457 15.1929 11.8433 14.9272 11.4907C14.3707 10.7524 13.8995 9.91882 13.8479 9.24789L12.5018 9.35143C12.5856 10.4401 13.2768 11.544 13.849 12.3033C14.1476 12.6995 14.4405 13.0359 14.6585 13.2732C14.7677 13.3922 14.859 13.4871 14.9237 13.5531C14.9561 13.5861 14.9819 13.6119 15.0001 13.63C15.0092 13.639 15.0164 13.646 15.0216 13.6511C15.0242 13.6536 15.0262 13.6556 15.0278 13.6571C15.0286 13.6579 15.0292 13.6585 15.0297 13.659C15.03 13.6593 15.0302 13.6595 15.0304 13.6597C15.0305 13.6598 15.0306 13.6599 15.0306 13.6599C15.0307 13.66 15.0308 13.6601 15.4998 13.1747ZM13.8479 9.24789C13.8198 8.88255 13.9097 8.44709 14.0998 7.96809C14.2878 7.49441 14.5574 7.01867 14.8422 6.58757C15.1256 6.15841 15.4152 5.78683 15.6345 5.52218C15.7437 5.39028 15.8347 5.28601 15.8974 5.2156C15.9288 5.18042 15.953 5.15377 15.969 5.13643C15.9769 5.12777 15.9828 5.12143 15.9865 5.11753C15.9883 5.11557 15.9895 5.11423 15.9902 5.11351C15.9906 5.11315 15.9908 5.11294 15.9908 5.11289C15.9908 5.11287 15.9908 5.11288 15.9908 5.11294C15.9907 5.11296 15.9907 5.11303 15.9907 5.11305C15.9906 5.11313 15.9905 5.11322 15.4998 4.64966C15.0092 4.1861 15.0091 4.18621 15.009 4.18633C15.0089 4.18638 15.0088 4.18651 15.0087 4.18662C15.0085 4.18683 15.0083 4.18709 15.008 4.18738C15.0074 4.18797 15.0067 4.18872 15.0059 4.18963C15.0042 4.19145 15.0019 4.1939 14.999 4.19698C14.9933 4.20313 14.9852 4.21179 14.9751 4.22285C14.9547 4.24496 14.9259 4.2767 14.8897 4.31727C14.8174 4.39836 14.7157 4.51504 14.5949 4.66093C14.3539 4.95186 14.033 5.36322 13.7157 5.84353C13.3998 6.32189 13.0784 6.88212 12.845 7.4701C12.6138 8.05275 12.4521 8.70462 12.5018 9.35143L13.8479 9.24789ZM15.4998 4.64966C15.0308 5.13511 15.0308 5.13503 15.0307 5.13496C15.0307 5.13495 15.0306 5.13488 15.0306 5.13486C15.0305 5.1348 15.0305 5.13478 15.0305 5.13479C15.0305 5.13481 15.0307 5.13495 15.031 5.13522C15.0315 5.13576 15.0326 5.1368 15.0341 5.13833C15.0373 5.1414 15.0424 5.14642 15.0494 5.15333C15.0633 5.16715 15.0847 5.1885 15.1124 5.21678C15.168 5.27336 15.2488 5.35746 15.3469 5.46428C15.5438 5.67859 15.8068 5.98097 16.0725 6.33357C16.629 7.07193 17.1002 7.9055 17.1518 8.57643L18.4979 8.47289C18.4141 7.38424 17.7228 6.28031 17.1506 5.52106C16.852 5.12486 16.5592 4.78841 16.3412 4.5511C16.2319 4.4321 16.1407 4.33718 16.076 4.27121C16.0436 4.2382 16.0178 4.21238 15.9996 4.19436C15.9905 4.18534 15.9833 4.17828 15.9781 4.17323C15.9755 4.1707 15.9735 4.16868 15.9719 4.16717C15.9711 4.16642 15.9705 4.1658 15.97 4.1653C15.9697 4.16505 15.9695 4.16484 15.9693 4.16465C15.9692 4.16456 15.9691 4.16445 15.969 4.1644C15.9689 4.1643 15.9688 4.1642 15.4998 4.64966ZM17.1518 8.57643C17.1799 8.94177 17.09 9.37722 16.8999 9.85623C16.7119 10.3299 16.4423 10.8056 16.1575 11.2368C15.874 11.6659 15.5845 12.0375 15.3652 12.3021C15.256 12.434 15.165 12.5383 15.1023 12.6087C15.0709 12.6439 15.0466 12.6705 15.0307 12.6879C15.0227 12.6966 15.0169 12.7029 15.0132 12.7068C15.0114 12.7087 15.0101 12.7101 15.0095 12.7108C15.0091 12.7112 15.0089 12.7114 15.0089 12.7114C15.0089 12.7114 15.0089 12.7114 15.0089 12.7114C15.009 12.7114 15.009 12.7113 15.009 12.7113C15.0091 12.7112 15.0092 12.7111 15.4998 13.1747C15.9905 13.6382 15.9906 13.6381 15.9907 13.638C15.9908 13.6379 15.9909 13.6378 15.991 13.6377C15.9912 13.6375 15.9914 13.6372 15.9917 13.6369C15.9923 13.6363 15.993 13.6356 15.9938 13.6347C15.9955 13.6329 15.9978 13.6304 16.0007 13.6273C16.0064 13.6212 16.0145 13.6125 16.0246 13.6015C16.0449 13.5794 16.0738 13.5476 16.11 13.507C16.1823 13.426 16.284 13.3093 16.4048 13.1634C16.6458 12.8725 16.9667 12.4611 17.284 11.9808C17.5999 11.5024 17.9213 10.9422 18.1547 10.3542C18.3859 9.77157 18.5476 9.1197 18.4979 8.47289L17.1518 8.57643Z" fill="white"/>
<path d="M15.7999 16.4566L15.1251 16.4727L15.1406 17.1201L15.7881 17.1315L15.7999 16.4566ZM16.9051 11.96L16.3995 11.5129L16.9051 11.96ZM22.0056 10.4891L22.6804 10.473C22.6718 10.1112 22.3793 9.82058 22.0175 9.81424L22.0056 10.4891ZM20.9004 14.9857L21.4061 15.4328L20.9004 14.9857ZM15.7999 16.4566C16.4747 16.4404 16.4747 16.4405 16.4747 16.4406C16.4747 16.4406 16.4747 16.4407 16.4747 16.4408C16.4747 16.4408 16.4747 16.4409 16.4747 16.4408C16.4747 16.4408 16.4747 16.4406 16.4747 16.4402C16.4747 16.4393 16.4747 16.4377 16.4746 16.4354C16.4745 16.4308 16.4744 16.4233 16.4743 16.4131C16.4741 16.3926 16.4738 16.3611 16.4739 16.3199C16.4742 16.2375 16.4757 16.1163 16.4811 15.9659C16.4919 15.6643 16.518 15.2503 16.5786 14.7991C16.706 13.8516 16.9656 12.9107 17.4108 12.4072L16.3995 11.5129C15.6637 12.345 15.3707 13.6523 15.2407 14.6192C15.1726 15.1252 15.1439 15.5848 15.1319 15.9177C15.126 16.0846 15.1242 16.2207 15.124 16.3164C15.1238 16.3642 15.1241 16.402 15.1244 16.4284C15.1245 16.4416 15.1247 16.4521 15.1248 16.4595C15.1249 16.4632 15.125 16.4662 15.125 16.4684C15.125 16.4695 15.125 16.4704 15.1251 16.4712C15.1251 16.4715 15.1251 16.4718 15.1251 16.4721C15.1251 16.4722 15.1251 16.4724 15.1251 16.4725C15.1251 16.4726 15.1251 16.4727 15.7999 16.4566ZM17.4108 12.4072C17.6518 12.1347 18.0308 11.9006 18.5191 11.7114C19.0016 11.5245 19.5465 11.3984 20.0708 11.315C20.5927 11.2321 21.0772 11.1942 21.4321 11.1771C21.609 11.1686 21.7522 11.1654 21.85 11.1643C21.8988 11.1637 21.9362 11.1637 21.9607 11.1638C21.973 11.1638 21.982 11.1639 21.9875 11.164C21.9903 11.164 21.9923 11.164 21.9933 11.164C21.9938 11.164 21.9941 11.164 21.9942 11.164C21.9943 11.164 21.9943 11.164 21.9942 11.164C21.9941 11.164 21.9941 11.164 21.994 11.164C21.9939 11.164 21.9938 11.164 22.0056 10.4891C22.0175 9.81424 22.0173 9.81423 22.0171 9.81423C22.0171 9.81423 22.0169 9.81423 22.0167 9.81422C22.0164 9.81422 22.0161 9.81421 22.0157 9.81421C22.0148 9.81419 22.0138 9.81418 22.0125 9.81416C22.01 9.81412 22.0065 9.81408 22.0022 9.81403C21.9935 9.81394 21.9813 9.81383 21.9658 9.81378C21.9348 9.81366 21.8905 9.81371 21.8344 9.81436C21.7223 9.81565 21.5625 9.8193 21.3674 9.82867C20.9782 9.84735 20.4424 9.88904 19.8589 9.98178C19.278 10.0741 18.6327 10.2197 18.0314 10.4526C17.436 10.6833 16.8378 11.0172 16.3995 11.5129L17.4108 12.4072ZM22.0056 10.4891C21.3308 10.5053 21.3308 10.5052 21.3308 10.5051C21.3308 10.5051 21.3308 10.505 21.3308 10.5049C21.3308 10.5049 21.3308 10.5048 21.3308 10.5049C21.3308 10.5049 21.3308 10.5051 21.3308 10.5056C21.3308 10.5064 21.3309 10.508 21.3309 10.5103C21.331 10.5149 21.3311 10.5224 21.3312 10.5326C21.3315 10.5531 21.3317 10.5846 21.3316 10.6258C21.3314 10.7083 21.3298 10.8294 21.3244 10.9798C21.3137 11.2814 21.2876 11.6954 21.2269 12.1466C21.0995 13.0941 20.8399 14.035 20.3947 14.5385L21.4061 15.4328C22.1418 14.6007 22.4349 13.2934 22.5649 12.3265C22.6329 11.8205 22.6617 11.3609 22.6736 11.028C22.6796 10.8612 22.6813 10.725 22.6816 10.6293C22.6817 10.5815 22.6814 10.5437 22.6811 10.5173C22.681 10.5041 22.6808 10.4937 22.6807 10.4862C22.6806 10.4825 22.6806 10.4795 22.6805 10.4773C22.6805 10.4762 22.6805 10.4753 22.6805 10.4746C22.6805 10.4742 22.6805 10.4739 22.6804 10.4736C22.6804 10.4735 22.6804 10.4733 22.6804 10.4732C22.6804 10.4731 22.6804 10.473 22.0056 10.4891ZM20.3947 14.5385C20.1538 14.811 19.7747 15.0451 19.2864 15.2343C18.8039 15.4212 18.259 15.5473 17.7347 15.6307C17.2129 15.7136 16.7283 15.7516 16.3734 15.7686C16.1966 15.7771 16.0533 15.7803 15.9556 15.7814C15.9067 15.782 15.8693 15.782 15.8448 15.7819C15.8326 15.7819 15.8236 15.7818 15.818 15.7818C15.8152 15.7817 15.8133 15.7817 15.8122 15.7817C15.8117 15.7817 15.8114 15.7817 15.8113 15.7817C15.8113 15.7817 15.8113 15.7817 15.8113 15.7817C15.8114 15.7817 15.8115 15.7817 15.8115 15.7817C15.8116 15.7817 15.8117 15.7817 15.7999 16.4566C15.7881 17.1315 15.7882 17.1315 15.7884 17.1315C15.7885 17.1315 15.7886 17.1315 15.7888 17.1315C15.7891 17.1315 15.7894 17.1315 15.7899 17.1315C15.7907 17.1315 15.7917 17.1315 15.793 17.1315C15.7956 17.1316 15.799 17.1316 15.8034 17.1317C15.812 17.1318 15.8242 17.1319 15.8397 17.1319C15.8707 17.132 15.915 17.132 15.9711 17.1313C16.0833 17.1301 16.243 17.1264 16.4382 17.117C16.8273 17.0984 17.3631 17.0567 17.9466 16.9639C18.5275 16.8716 19.1729 16.726 19.7741 16.4931C20.3695 16.2624 20.9677 15.9285 21.4061 15.4328L20.3947 14.5385Z" fill="white"/>
<path d="M15.0727 16.4129L15.7476 16.423L15.7378 17.0823L15.0784 17.0879L15.0727 16.4129ZM13.9648 12.0587L14.4699 11.6109L13.9648 12.0587ZM9.02049 10.593L8.34557 10.583C8.35105 10.2164 8.64815 9.92118 9.01476 9.91807L9.02049 10.593ZM10.1284 14.9472L9.62335 15.3951L10.1284 14.9472ZM15.0727 16.4129C14.3978 16.4028 14.3978 16.4029 14.3978 16.403C14.3978 16.403 14.3978 16.4031 14.3978 16.4032C14.3978 16.4032 14.3978 16.4033 14.3978 16.4032C14.3978 16.4032 14.3978 16.403 14.3978 16.4026C14.3978 16.4018 14.3978 16.4003 14.3978 16.3981C14.3979 16.3937 14.3979 16.3865 14.3979 16.3767C14.398 16.357 14.3979 16.3267 14.3975 16.287C14.3965 16.2076 14.394 16.0907 14.3875 15.9457C14.3745 15.6547 14.3457 15.2551 14.2832 14.8194C14.152 13.9043 13.8933 12.9954 13.4598 12.5066L14.4699 11.6109C15.1899 12.4228 15.4852 13.6909 15.6195 14.6278C15.6898 15.118 15.7217 15.563 15.7361 15.8852C15.7434 16.0468 15.7463 16.1786 15.7474 16.2713C15.7479 16.3176 15.748 16.3542 15.7479 16.3798C15.7479 16.3927 15.7478 16.4028 15.7478 16.41C15.7478 16.4136 15.7477 16.4165 15.7477 16.4187C15.7477 16.4198 15.7477 16.4207 15.7477 16.4214C15.7477 16.4218 15.7477 16.4221 15.7476 16.4223C15.7476 16.4225 15.7476 16.4226 15.7476 16.4227C15.7476 16.4228 15.7476 16.423 15.0727 16.4129ZM13.4598 12.5066C13.2251 12.2419 12.8574 12.013 12.3846 11.8263C11.9173 11.6418 11.3904 11.5154 10.8834 11.4305C10.3789 11.3459 9.91078 11.3051 9.56803 11.2855C9.39722 11.2758 9.25898 11.2714 9.16466 11.2695C9.11753 11.2685 9.08147 11.2682 9.0579 11.2681C9.04612 11.268 9.03747 11.268 9.03212 11.268C9.02945 11.268 9.02761 11.268 9.02662 11.268C9.02612 11.268 9.02584 11.268 9.02577 11.268C9.02574 11.268 9.02576 11.268 9.02583 11.268C9.02587 11.268 9.02597 11.268 9.02598 11.268C9.02609 11.268 9.02622 11.268 9.02049 10.593C9.01476 9.91807 9.01492 9.91807 9.01508 9.91807C9.01515 9.91807 9.01533 9.91807 9.01548 9.91807C9.01578 9.91806 9.01613 9.91806 9.01653 9.91806C9.01734 9.91805 9.01837 9.91805 9.01962 9.91804C9.02211 9.91803 9.02548 9.91801 9.02969 9.91801C9.03812 9.91799 9.04994 9.918 9.06498 9.91808C9.09504 9.91824 9.13799 9.91868 9.19237 9.91979C9.30105 9.92203 9.45578 9.92696 9.64482 9.93773C10.0218 9.95921 10.5409 10.0042 11.1066 10.099C11.6698 10.1934 12.296 10.3399 12.8803 10.5706C13.4589 10.799 14.041 11.1274 14.4699 11.6109L13.4598 12.5066ZM9.02049 10.593C9.69542 10.6031 9.69542 10.603 9.69542 10.6029C9.69542 10.6029 9.69542 10.6028 9.69542 10.6028C9.69542 10.6027 9.69542 10.6027 9.69542 10.6027C9.69542 10.6027 9.69542 10.6029 9.69541 10.6033C9.69541 10.6041 9.69539 10.6056 9.69537 10.6078C9.69533 10.6122 9.69528 10.6194 9.69526 10.6292C9.69521 10.6489 9.69527 10.6792 9.69574 10.7189C9.69666 10.7984 9.6992 10.9152 9.7057 11.0602C9.71875 11.3512 9.74753 11.7508 9.81001 12.1865C9.94123 13.1016 10.1999 14.0105 10.6334 14.4993L9.62335 15.3951C8.90331 14.5832 8.60802 13.315 8.47368 12.3782C8.40339 11.888 8.3715 11.4429 8.35706 11.1207C8.34981 10.9591 8.34691 10.8273 8.34583 10.7347C8.34529 10.6883 8.3452 10.6517 8.34526 10.6261C8.34529 10.6133 8.34536 10.6031 8.34542 10.5959C8.34545 10.5923 8.34548 10.5894 8.34551 10.5872C8.34552 10.5861 8.34553 10.5852 8.34554 10.5845C8.34555 10.5842 8.34555 10.5839 8.34556 10.5836C8.34556 10.5835 8.34556 10.5833 8.34556 10.5832C8.34556 10.5831 8.34557 10.583 9.02049 10.593ZM10.6334 14.4993C10.8681 14.764 11.2358 14.993 11.7086 15.1796C12.1759 15.3641 12.7028 15.4905 13.2098 15.5755C13.7143 15.66 14.1824 15.7009 14.5252 15.7204C14.696 15.7301 14.8342 15.7345 14.9285 15.7364C14.9757 15.7374 15.0117 15.7377 15.0353 15.7379C15.0471 15.7379 15.0557 15.7379 15.0611 15.7379C15.0638 15.7379 15.0656 15.7379 15.0666 15.7379C15.0671 15.7379 15.0674 15.7379 15.0674 15.7379C15.0675 15.7379 15.0674 15.7379 15.0674 15.7379C15.0673 15.7379 15.0672 15.7379 15.0672 15.7379C15.0671 15.7379 15.067 15.7379 15.0727 16.4129C15.0784 17.0879 15.0783 17.0879 15.0781 17.0879C15.078 17.0879 15.0779 17.0879 15.0777 17.0879C15.0774 17.0879 15.0771 17.0879 15.0767 17.0879C15.0759 17.0879 15.0748 17.0879 15.0736 17.0879C15.0711 17.0879 15.0677 17.0879 15.0635 17.0879C15.0551 17.0879 15.0433 17.0879 15.0282 17.0878C14.9982 17.0877 14.9552 17.0872 14.9008 17.0861C14.7922 17.0839 14.6374 17.079 14.4484 17.0682C14.0714 17.0467 13.5523 17.0017 12.9866 16.9069C12.4234 16.8125 11.7972 16.666 11.2129 16.4353C10.6343 16.2069 10.0522 15.8786 9.62335 15.3951L10.6334 14.4993Z" fill="white"/>
<path d="M15.9135 22.1597L15.2389 22.1844L15.262 22.8153L15.8931 22.8344L15.9135 22.1597ZM16.962 17.6718L16.4554 17.2257L16.962 17.6718ZM22.0448 16.2638L22.7194 16.2391C22.7064 15.884 22.4204 15.5998 22.0652 15.5891L22.0448 16.2638ZM20.9963 20.7516L21.5029 21.1977L20.9963 20.7516ZM15.9135 22.1597C16.588 22.135 16.588 22.1351 16.588 22.1352C16.588 22.1352 16.588 22.1353 16.588 22.1354C16.588 22.1354 16.588 22.1355 16.588 22.1355C16.588 22.1354 16.588 22.1352 16.588 22.1348C16.588 22.1339 16.5879 22.1323 16.5879 22.13C16.5877 22.1254 16.5875 22.1179 16.5873 22.1076C16.5868 22.0871 16.5862 22.0556 16.5857 22.0143C16.5849 21.9317 16.5849 21.8104 16.5884 21.66C16.5954 21.3582 16.6162 20.944 16.6712 20.4932C16.7264 20.0404 16.8143 19.5647 16.9505 19.1347C17.0886 18.6984 17.2636 18.3508 17.4686 18.1179L16.4554 17.2257C16.0783 17.654 15.8311 18.1979 15.6635 18.7271C15.4939 19.2625 15.3925 19.8261 15.3311 20.3299C15.2694 20.8358 15.2465 21.2958 15.2388 21.6288C15.2349 21.7958 15.2349 21.9321 15.2358 22.0278C15.2363 22.0757 15.237 22.1135 15.2377 22.14C15.238 22.1532 15.2383 22.1637 15.2385 22.1711C15.2386 22.1748 15.2387 22.1778 15.2388 22.18C15.2388 22.1811 15.2389 22.182 15.2389 22.1828C15.2389 22.1831 15.2389 22.1834 15.2389 22.1837C15.2389 22.1838 15.2389 22.184 15.2389 22.1841C15.2389 22.1842 15.2389 22.1844 15.9135 22.1597ZM17.4686 18.1179C17.7024 17.8524 18.0745 17.6245 18.5594 17.4417C19.0382 17.2612 19.5806 17.142 20.1037 17.0652C20.6243 16.9889 21.1082 16.957 21.4629 16.9444C21.6397 16.9382 21.7828 16.9368 21.8806 16.9369C21.9295 16.9369 21.9669 16.9374 21.9914 16.9378C22.0036 16.938 22.0126 16.9382 22.0182 16.9383C22.021 16.9384 22.0229 16.9384 22.024 16.9384C22.0245 16.9385 22.0248 16.9385 22.0249 16.9385C22.0249 16.9385 22.0249 16.9385 22.0249 16.9385C22.0248 16.9385 22.0247 16.9385 22.0247 16.9385C22.0246 16.9385 22.0245 16.9385 22.0448 16.2638C22.0652 15.5891 22.0651 15.5891 22.0649 15.5891C22.0648 15.5891 22.0646 15.5891 22.0645 15.589C22.0642 15.589 22.0638 15.589 22.0634 15.589C22.0626 15.589 22.0615 15.589 22.0603 15.5889C22.0577 15.5889 22.0543 15.5888 22.0499 15.5887C22.0413 15.5885 22.0291 15.5882 22.0136 15.588C21.9826 15.5874 21.9383 15.5869 21.8821 15.5869C21.77 15.5867 21.6102 15.5884 21.4151 15.5953C21.0261 15.6091 20.4905 15.644 19.9077 15.7295C19.3276 15.8147 18.683 15.9524 18.0832 16.1785C17.4894 16.4023 16.8914 16.7307 16.4554 17.2257L17.4686 18.1179ZM22.0448 16.2638C21.3703 16.2884 21.3703 16.2883 21.3703 16.2882C21.3703 16.2882 21.3703 16.2881 21.3703 16.2881C21.3703 16.288 21.3703 16.288 21.3703 16.288C21.3703 16.288 21.3703 16.2883 21.3703 16.2887C21.3703 16.2895 21.3704 16.2911 21.3704 16.2934C21.3706 16.298 21.3708 16.3056 21.3711 16.3158C21.3715 16.3364 21.3722 16.3679 21.3726 16.4091C21.3734 16.4917 21.3734 16.613 21.3699 16.7635C21.3629 17.0653 21.3421 17.4794 21.2872 17.9302C21.232 18.3831 21.144 18.8588 21.0078 19.2888C20.8697 19.725 20.6948 20.0727 20.4897 20.3055L21.5029 21.1977C21.88 20.7694 22.1272 20.2256 22.2948 19.6964C22.4644 19.161 22.5658 18.5973 22.6272 18.0935C22.6889 17.5876 22.7119 17.1277 22.7196 16.7947C22.7234 16.6276 22.7235 16.4913 22.7225 16.3956C22.722 16.3477 22.7213 16.3099 22.7207 16.2834C22.7203 16.2702 22.7201 16.2598 22.7198 16.2523C22.7197 16.2486 22.7196 16.2456 22.7195 16.2434C22.7195 16.2423 22.7195 16.2414 22.7194 16.2407C22.7194 16.2403 22.7194 16.24 22.7194 16.2397C22.7194 16.2396 22.7194 16.2394 22.7194 16.2394C22.7194 16.2392 22.7194 16.2391 22.0448 16.2638ZM20.4897 20.3055C20.2559 20.571 19.8838 20.7989 19.3989 20.9817C18.9201 21.1622 18.3778 21.2814 17.8546 21.3582C17.3341 21.4346 16.8501 21.4664 16.4954 21.479C16.3187 21.4853 16.1755 21.4867 16.0777 21.4866C16.0289 21.4865 15.9914 21.4861 15.9669 21.4857C15.9547 21.4855 15.9457 21.4853 15.9401 21.4852C15.9373 21.4851 15.9354 21.485 15.9343 21.485C15.9338 21.485 15.9335 21.485 15.9334 21.485C15.9334 21.485 15.9334 21.485 15.9335 21.485C15.9335 21.485 15.9336 21.485 15.9336 21.485C15.9337 21.485 15.9339 21.485 15.9135 22.1597C15.8931 22.8344 15.8933 22.8344 15.8934 22.8344C15.8935 22.8344 15.8937 22.8344 15.8938 22.8344C15.8941 22.8344 15.8945 22.8344 15.8949 22.8344C15.8957 22.8345 15.8968 22.8345 15.8981 22.8345C15.9006 22.8346 15.9041 22.8347 15.9084 22.8348C15.9171 22.835 15.9292 22.8352 15.9447 22.8355C15.9757 22.836 16.0201 22.8365 16.0762 22.8366C16.1884 22.8367 16.3481 22.8351 16.5432 22.8282C16.9322 22.8144 17.4678 22.7794 18.0506 22.6939C18.6307 22.6088 19.2753 22.4711 19.8751 22.2449C20.4689 22.0211 21.067 21.6927 21.5029 21.1977L20.4897 20.3055Z" fill="white"/>
<path d="M15.0125 22.1524L15.6872 22.1714L15.6692 22.8133L15.0271 22.8273L15.0125 22.1524ZM13.89 17.5103L14.3959 17.0635L13.89 17.5103ZM8.62702 16.0121L7.95229 15.9932C7.9624 15.6336 8.25274 15.3451 8.61239 15.3373L8.62702 16.0121ZM9.74953 20.6542L9.24358 21.101L9.74953 20.6542ZM15.0125 22.1524C14.3378 22.1334 14.3378 22.1336 14.3377 22.1337C14.3377 22.1337 14.3377 22.1338 14.3377 22.1338C14.3377 22.1339 14.3377 22.1339 14.3377 22.1339C14.3377 22.1338 14.3378 22.1336 14.3378 22.1331C14.3378 22.1322 14.3378 22.1306 14.3379 22.1282C14.338 22.1234 14.3381 22.1156 14.3383 22.1049C14.3386 22.0836 14.339 22.051 14.3391 22.0083C14.3392 21.9229 14.3381 21.7974 14.3332 21.6418C14.3233 21.3296 14.2981 20.9012 14.2373 20.4343C14.1096 19.4548 13.845 18.4791 13.384 17.9571L14.3959 17.0635C15.1493 17.9167 15.4459 19.262 15.576 20.2598C15.6439 20.7816 15.6717 21.2558 15.6825 21.5991C15.688 21.7713 15.6892 21.9118 15.6891 22.0104C15.689 22.0597 15.6886 22.0986 15.6881 22.1259C15.6879 22.1395 15.6877 22.1502 15.6876 22.1578C15.6875 22.1616 15.6874 22.1647 15.6873 22.167C15.6873 22.1681 15.6873 22.169 15.6873 22.1698C15.6873 22.1701 15.6872 22.1705 15.6872 22.1707C15.6872 22.1709 15.6872 22.171 15.6872 22.1711C15.6872 22.1712 15.6872 22.1714 15.0125 22.1524ZM13.384 17.9571C13.1342 17.6743 12.7413 17.4329 12.2363 17.239C11.7371 17.0473 11.1735 16.919 10.6313 16.835C10.0916 16.7514 9.59042 16.7142 9.22331 16.6981C9.04034 16.6901 8.89214 16.6874 8.7909 16.6866C8.74031 16.6862 8.70155 16.6864 8.67614 16.6866C8.66344 16.6867 8.65409 16.6868 8.64827 16.6869C8.64537 16.6869 8.64335 16.6869 8.64224 16.687C8.64168 16.687 8.64135 16.687 8.64125 16.687C8.6412 16.687 8.64121 16.687 8.64128 16.687C8.64131 16.687 8.64141 16.687 8.64142 16.687C8.64153 16.687 8.64165 16.687 8.62702 16.0121C8.61239 15.3373 8.61255 15.3373 8.61271 15.3373C8.61279 15.3373 8.61297 15.3373 8.61312 15.3373C8.61342 15.3373 8.61378 15.3373 8.6142 15.3373C8.61504 15.3372 8.61612 15.3372 8.61743 15.3372C8.62004 15.3371 8.62359 15.3371 8.62804 15.337C8.63694 15.3369 8.64946 15.3367 8.66542 15.3366C8.69732 15.3364 8.74298 15.3362 8.80083 15.3366C8.91647 15.3375 9.0812 15.3406 9.28249 15.3494C9.68389 15.367 10.2365 15.4078 10.838 15.5009C11.4369 15.5937 12.1016 15.7411 12.7202 15.9787C13.333 16.214 13.9472 16.5554 14.3959 17.0635L13.384 17.9571ZM8.62702 16.0121C9.30176 16.0311 9.30176 16.031 9.30176 16.0309C9.30176 16.0309 9.30177 16.0308 9.30177 16.0307C9.30177 16.0307 9.30177 16.0307 9.30177 16.0307C9.30177 16.0307 9.30176 16.031 9.30175 16.0314C9.30173 16.0323 9.30169 16.034 9.30163 16.0364C9.30153 16.0412 9.30137 16.049 9.30121 16.0596C9.30088 16.0809 9.30051 16.1135 9.30045 16.1562C9.30032 16.2417 9.30139 16.3672 9.30631 16.5228C9.31618 16.8349 9.3414 17.2634 9.40224 17.7303C9.52987 18.7097 9.79454 19.6854 10.2555 20.2074L9.24358 21.101C8.49017 20.2479 8.19359 18.9026 8.06356 17.9047C7.99557 17.383 7.96784 16.9088 7.95699 16.5654C7.95154 16.3933 7.9503 16.2528 7.95045 16.1542C7.95052 16.1049 7.95095 16.0659 7.95137 16.0387C7.95158 16.0251 7.95179 16.0144 7.95196 16.0067C7.95204 16.0029 7.95212 15.9999 7.95217 15.9976C7.9522 15.9965 7.95223 15.9955 7.95225 15.9948C7.95226 15.9944 7.95226 15.9941 7.95227 15.9938C7.95228 15.9937 7.95228 15.9935 7.95228 15.9935C7.95229 15.9933 7.95229 15.9932 8.62702 16.0121ZM10.2555 20.2074C10.5053 20.4903 10.8982 20.7317 11.4032 20.9256C11.9024 21.1173 12.466 21.2455 13.0082 21.3295C13.5479 21.4131 14.0491 21.4503 14.4162 21.4664C14.5992 21.4745 14.7474 21.4772 14.8486 21.4779C14.8992 21.4783 14.938 21.4782 14.9634 21.478C14.9761 21.4779 14.9854 21.4778 14.9912 21.4777C14.9941 21.4776 14.9962 21.4776 14.9973 21.4776C14.9978 21.4776 14.9982 21.4776 14.9983 21.4776C14.9983 21.4776 14.9983 21.4776 14.9982 21.4776C14.9982 21.4776 14.9981 21.4776 14.9981 21.4776C14.998 21.4776 14.9979 21.4776 15.0125 22.1524C15.0271 22.8273 15.027 22.8273 15.0268 22.8273C15.0267 22.8273 15.0265 22.8273 15.0264 22.8273C15.0261 22.8273 15.0257 22.8273 15.0253 22.8273C15.0245 22.8273 15.0234 22.8273 15.0221 22.8274C15.0195 22.8274 15.0159 22.8275 15.0115 22.8275C15.0026 22.8277 14.99 22.8278 14.9741 22.8279C14.9422 22.8282 14.8965 22.8283 14.8387 22.8279C14.723 22.8271 14.5583 22.824 14.357 22.8151C13.9556 22.7975 13.403 22.7568 12.8016 22.6636C12.2026 22.5708 11.5379 22.4234 10.9193 22.1859C10.3065 21.9506 9.69231 21.6092 9.24358 21.101L10.2555 20.2074Z" fill="white"/>
<line x1="15.6201" y1="27.0897" x2="15.6201" y2="14.7597" stroke="white" stroke-width="1.62" stroke-linecap="round"/>
<line x1="5.60437" y1="5.24585" x2="25.7544" y2="25.3958" stroke="white" stroke-opacity="0.6" stroke-width="2.7"/>
</svg>
