<svg width="34" height="34" viewBox="0 0 34 34" fill="none" xmlns="http://www.w3.org/2000/svg">
<circle cx="17" cy="17" r="17" fill="#68E8EB"/>
<path d="M24.1084 15.6095H16.4584H10.1993L13.6766 11.4368H21.3266L24.1084 15.6095Z" fill="#68E8EB" stroke="white" stroke-width="1.35" stroke-linecap="round" stroke-linejoin="round"/>
<path d="M10.1993 15.6094V23.3003C10.1993 24.0459 10.8038 24.6503 11.5493 24.6503H22.7584C23.504 24.6503 24.1084 24.0459 24.1084 23.3003V15.6094" stroke="white" stroke-width="1.35" stroke-linecap="round" stroke-linejoin="round"/>
<path d="M16.4582 24.6499V16.0177C16.4582 15.7512 16.3793 15.4906 16.2315 15.2688L13.9031 11.7763C13.7553 11.5546 13.6764 11.294 13.6764 11.0275V10.6999C13.6764 9.95427 14.2808 9.34985 15.0264 9.34985H19.9764C20.722 9.34985 21.3264 9.95427 21.3264 10.6999V11.4362" stroke="white" stroke-width="1.35" stroke-linecap="round" stroke-linejoin="round"/>
<line x1="6.05433" y1="5.84594" x2="28.1543" y2="27.9459" stroke="white" stroke-opacity="0.56" stroke-width="2.7"/>
</svg>
