<svg width="27" height="27" viewBox="0 0 27 27" fill="none" xmlns="http://www.w3.org/2000/svg">
<circle cx="13.5" cy="13.5" r="13.5" fill="#424962" fill-opacity="0.96"/>
<path d="M21 20.0929L6.91429 6L6 6.90714L8.27857 9.18571L7.72857 9.49286C7.5 9.61429 7.35 9.85 7.35 10.1214V16.55C7.35 16.8214 7.5 17.0571 7.72857 17.1786L13.3714 20.35C13.4857 20.4357 13.6286 20.4786 13.7786 20.4786C13.9286 20.4786 14.0714 20.4357 14.1857 20.35L17.55 18.4571L20.0929 21L21 20.0929ZM8.77857 16.1286V11.3429L12.5571 13.4643L13.0643 13.9714V18.5429L8.77857 16.1286ZM14.4929 18.5429V15.4L16.5071 17.4071L14.4929 18.5429ZM11.6357 8.92143L10.6071 7.87857L13.3714 6.32143C13.4857 6.23571 13.6286 6.19286 13.7786 6.19286C13.9286 6.19286 14.0714 6.23571 14.1857 6.32143L19.8286 9.49286C20.0571 9.61429 20.2071 9.85 20.2071 10.1214V16.55C20.2071 16.8 20.0786 17.0214 19.8714 17.1429L18.7786 16.05V11.3429L15.7643 13.0357L14.7143 11.9857L18.0357 10.1214L13.7786 7.72857L11.6357 8.92143Z" fill="white"/>
</svg>
