<svg width="27" height="27" viewBox="0 0 27 27" fill="none" xmlns="http://www.w3.org/2000/svg">
<circle cx="13.5" cy="13.5" r="13.5" fill="#A2BD00" fill-opacity="0.96"/>
<path d="M16.0505 14.8398L15.4317 15.1095L15.6464 15.6021L16.1747 15.5033L16.0505 14.8398ZM15.4361 10.5319L14.8176 10.2615L15.4361 10.5319ZM19.7647 8.19365L20.3835 7.92396C20.2579 7.63563 19.9497 7.47231 19.6406 7.53017L19.7647 8.19365ZM20.3792 12.5015L20.9976 12.7719L20.3792 12.5015ZM16.0505 14.8398C16.6693 14.5701 16.6693 14.5702 16.6694 14.5703C16.6694 14.5703 16.6694 14.5704 16.6694 14.5704C16.6694 14.5705 16.6695 14.5705 16.6694 14.5705C16.6694 14.5704 16.6693 14.5702 16.6692 14.5698C16.6688 14.5691 16.6682 14.5676 16.6673 14.5655C16.6655 14.5613 16.6626 14.5545 16.6587 14.5452C16.6508 14.5265 16.6389 14.4979 16.6237 14.4604C16.5932 14.3853 16.5497 14.2747 16.499 14.137C16.3973 13.8605 16.2687 13.4795 16.1594 13.0587C16.0495 12.6353 15.9635 12.1881 15.939 11.7754C15.914 11.3534 15.9572 11.0251 16.0545 10.8023L14.8176 10.2615C14.5987 10.7621 14.5605 11.3339 14.5914 11.8553C14.6228 12.3859 14.73 12.9253 14.8527 13.398C14.9761 13.8733 15.1198 14.298 15.2321 14.6032C15.2884 14.7563 15.3373 14.8806 15.3726 14.9676C15.3903 15.0111 15.4045 15.0454 15.4146 15.0694C15.4197 15.0814 15.4237 15.0908 15.4266 15.0975C15.428 15.1009 15.4292 15.1036 15.43 15.1056C15.4305 15.1066 15.4308 15.1074 15.4311 15.108C15.4312 15.1084 15.4314 15.1086 15.4315 15.1089C15.4315 15.109 15.4316 15.1091 15.4316 15.1092C15.4317 15.1093 15.4317 15.1095 16.0505 14.8398ZM16.0545 10.8023C16.1641 10.5517 16.4089 10.2862 16.7973 10.0237C17.1785 9.76621 17.6445 9.54762 18.113 9.36966C18.5782 9.19296 19.0254 9.0639 19.3579 8.97893C19.5234 8.93662 19.6588 8.90566 19.7517 8.8855C19.7982 8.87543 19.8339 8.86807 19.8573 8.86336C19.869 8.86101 19.8776 8.85932 19.8829 8.85828C19.8856 8.85776 19.8874 8.85741 19.8884 8.85722C19.8889 8.85712 19.8892 8.85707 19.8893 8.85705C19.8894 8.85704 19.8893 8.85705 19.8893 8.85706C19.8892 8.85707 19.8891 8.85708 19.8891 8.85709C19.889 8.85711 19.8889 8.85713 19.7647 8.19365C19.6406 7.53017 19.6404 7.5302 19.6402 7.53023C19.6402 7.53024 19.64 7.53027 19.6399 7.5303C19.6396 7.53035 19.6392 7.53042 19.6388 7.53049C19.638 7.53064 19.637 7.53084 19.6358 7.53107C19.6333 7.53154 19.63 7.53218 19.6258 7.53298C19.6175 7.5346 19.6058 7.5369 19.591 7.53989C19.5613 7.54586 19.5189 7.55461 19.4654 7.56621C19.3586 7.58941 19.207 7.6241 19.0236 7.67098C18.6581 7.76439 18.1596 7.90783 17.6336 8.10765C17.1109 8.30622 16.5403 8.56817 16.0415 8.90511C15.5501 9.23715 15.0719 9.67994 14.8176 10.2615L16.0545 10.8023ZM19.7647 8.19365C19.1459 8.46334 19.1459 8.46324 19.1459 8.46315C19.1459 8.46313 19.1458 8.46305 19.1458 8.46302C19.1458 8.46296 19.1458 8.46293 19.1458 8.46296C19.1458 8.463 19.1459 8.46322 19.1461 8.4636C19.1464 8.46437 19.147 8.46581 19.1479 8.4679C19.1497 8.4721 19.1526 8.47892 19.1565 8.48824C19.1644 8.50688 19.1763 8.53548 19.1915 8.57302C19.222 8.64814 19.2655 8.75868 19.3162 8.89642C19.418 9.17292 19.5466 9.55389 19.6558 9.97471C19.7658 10.3981 19.8518 10.8453 19.8762 11.258C19.9012 11.68 19.8581 12.0084 19.7607 12.2311L20.9976 12.7719C21.2165 12.2713 21.2547 11.6995 21.2238 11.1782C21.1924 10.6475 21.0852 10.1082 20.9625 9.63543C20.8391 9.16012 20.6955 8.73538 20.5832 8.43021C20.5268 8.2771 20.4779 8.15282 20.4426 8.06581C20.425 8.02229 20.4107 7.98801 20.4006 7.96403C20.3956 7.95204 20.3915 7.94262 20.3887 7.9359C20.3872 7.93254 20.3861 7.92985 20.3852 7.92786C20.3848 7.92686 20.3844 7.92603 20.3841 7.92538C20.384 7.92506 20.3839 7.92478 20.3838 7.92454C20.3837 7.92442 20.3837 7.92428 20.3836 7.92422C20.3836 7.92408 20.3835 7.92396 19.7647 8.19365ZM19.7607 12.2311C19.6511 12.4817 19.4063 12.7473 19.0179 13.0097C18.6368 13.2672 18.1707 13.4858 17.7022 13.6638C17.2371 13.8405 16.7898 13.9695 16.4574 14.0545C16.2918 14.0968 16.1564 14.1278 16.0635 14.1479C16.0171 14.158 15.9814 14.1654 15.958 14.1701C15.9463 14.1724 15.9377 14.1741 15.9323 14.1751C15.9296 14.1757 15.9278 14.176 15.9268 14.1762C15.9263 14.1763 15.926 14.1764 15.9259 14.1764C15.9259 14.1764 15.9259 14.1764 15.926 14.1764C15.926 14.1764 15.9261 14.1763 15.9261 14.1763C15.9262 14.1763 15.9263 14.1763 16.0505 14.8398C16.1747 15.5033 16.1748 15.5032 16.175 15.5032C16.1751 15.5032 16.1752 15.5032 16.1754 15.5031C16.1757 15.5031 16.176 15.503 16.1764 15.5029C16.1772 15.5028 16.1782 15.5026 16.1794 15.5024C16.1819 15.5019 16.1852 15.5013 16.1894 15.5004C16.1977 15.4988 16.2094 15.4965 16.2243 15.4935C16.254 15.4876 16.2963 15.4788 16.3498 15.4672C16.4567 15.444 16.6082 15.4093 16.7917 15.3625C17.1571 15.269 17.6556 15.1256 18.1816 14.9258C18.7044 14.7272 19.275 14.4653 19.7737 14.1283C20.2651 13.7963 20.7433 13.3535 20.9976 12.7719L19.7607 12.2311Z" fill="white"/>
<path d="M11.9012 17.1208L11.7594 17.7807L12.3365 17.9048L12.5364 17.3493L11.9012 17.1208ZM7.38283 14.7684L6.81562 15.1343L7.38283 14.7684ZM7.61482 8.97157L7.75671 8.31165C7.42621 8.2406 7.09412 8.42498 6.97968 8.74306L7.61482 8.97157ZM12.1332 11.324L12.7004 10.958L12.1332 11.324ZM11.9012 17.1208C12.0431 16.4609 12.0432 16.4609 12.0433 16.4609C12.0433 16.4609 12.0434 16.4609 12.0434 16.4609C12.0435 16.461 12.0435 16.461 12.0435 16.4609C12.0434 16.4609 12.0431 16.4609 12.0426 16.4608C12.0415 16.4605 12.0397 16.4601 12.0371 16.4596C12.0318 16.4584 12.0234 16.4565 12.012 16.4539C11.9891 16.4487 11.9542 16.4406 11.9087 16.4295C11.8178 16.4074 11.6849 16.3738 11.5214 16.3284C11.1936 16.2372 10.7479 16.1002 10.2738 15.9165C9.79762 15.7319 9.30731 15.5058 8.8835 15.2403C8.45333 14.9709 8.13337 14.6867 7.95004 14.4025L6.81562 15.1343C7.14947 15.6518 7.65289 16.0625 8.16689 16.3844C8.68725 16.7104 9.26189 16.9721 9.78598 17.1752C10.3122 17.3792 10.8022 17.5296 11.1599 17.629C11.3393 17.6789 11.4867 17.7163 11.5903 17.7414C11.6421 17.754 11.6831 17.7636 11.7118 17.7701C11.7261 17.7734 11.7373 17.7759 11.7453 17.7776C11.7493 17.7785 11.7525 17.7792 11.7548 17.7797C11.756 17.78 11.757 17.7802 11.7577 17.7804C11.7581 17.7804 11.7584 17.7805 11.7587 17.7806C11.7588 17.7806 11.759 17.7806 11.7591 17.7807C11.7592 17.7807 11.7594 17.7807 11.9012 17.1208ZM7.95004 14.4025C7.7414 14.0791 7.62188 13.618 7.59109 13.0481C7.56069 12.4854 7.61957 11.8719 7.71809 11.2912C7.81611 10.7134 7.95003 10.1871 8.06 9.8043C8.11481 9.6135 8.16323 9.45984 8.19755 9.355C8.2147 9.30262 8.22829 9.26253 8.23736 9.2362C8.24189 9.22304 8.24529 9.21332 8.24743 9.20724C8.24851 9.2042 8.24926 9.20207 8.24969 9.20087C8.2499 9.20027 8.25004 9.1999 8.25008 9.19977C8.25011 9.1997 8.25011 9.19969 8.25009 9.19975C8.25008 9.19977 8.25005 9.19986 8.25005 9.19987C8.25001 9.19997 8.24997 9.20008 7.61482 8.97157C6.97968 8.74306 6.97963 8.74321 6.97957 8.74337C6.97955 8.74344 6.97948 8.74362 6.97943 8.74376C6.97932 8.74405 6.9792 8.74441 6.97905 8.74482C6.97875 8.74565 6.97837 8.74672 6.97791 8.74802C6.97698 8.75064 6.97571 8.7542 6.97413 8.7587C6.97096 8.76768 6.96652 8.78038 6.96093 8.79662C6.94975 8.82909 6.93396 8.87571 6.91455 8.935C6.87575 9.05352 6.82238 9.22304 6.76247 9.43158C6.64302 9.84745 6.49583 10.4245 6.38711 11.0654C6.27889 11.7033 6.20539 12.4237 6.24305 13.1209C6.28032 13.8108 6.42929 14.5355 6.81562 15.1343L7.95004 14.4025ZM7.61482 8.97157C7.47294 9.63149 7.47284 9.63147 7.47274 9.63145C7.47273 9.63145 7.47264 9.63143 7.47261 9.63142C7.47256 9.63141 7.47255 9.63141 7.4726 9.63142C7.47269 9.63144 7.47299 9.6315 7.4735 9.63161C7.47451 9.63184 7.47634 9.63224 7.47897 9.63282C7.48422 9.63398 7.49266 9.63587 7.50411 9.63848C7.527 9.6437 7.56189 9.65181 7.60734 9.66285C7.69829 9.68492 7.83119 9.71859 7.99461 9.76401C8.32245 9.85513 8.76818 9.99218 9.24222 10.1759C9.71844 10.3605 10.2088 10.5866 10.6326 10.852C11.0627 11.1215 11.3827 11.4057 11.566 11.6899L12.7004 10.958C12.3666 10.4405 11.8632 10.0299 11.3492 9.70794C10.8288 9.38201 10.2542 9.12025 9.73007 8.91713C9.20381 8.71317 8.71387 8.56275 8.35613 8.46332C8.17676 8.41347 8.02939 8.37609 7.92576 8.35094C7.87392 8.33835 7.83295 8.32881 7.8043 8.32228C7.78998 8.31901 7.77873 8.31649 7.77074 8.31472C7.76674 8.31384 7.76356 8.31314 7.76121 8.31263C7.76004 8.31237 7.75908 8.31217 7.75832 8.312C7.75795 8.31192 7.75762 8.31185 7.75735 8.31179C7.75722 8.31176 7.75706 8.31173 7.75699 8.31171C7.75684 8.31168 7.75671 8.31165 7.61482 8.97157ZM11.566 11.6899C11.7747 12.0133 11.8942 12.4743 11.925 13.0443C11.9554 13.6069 11.8965 14.2204 11.798 14.8012C11.7 15.379 11.566 15.9052 11.4561 16.2881C11.4012 16.4789 11.3528 16.6325 11.3185 16.7374C11.3014 16.7897 11.2878 16.8298 11.2787 16.8562C11.2742 16.8693 11.2708 16.879 11.2686 16.8851C11.2676 16.8882 11.2668 16.8903 11.2664 16.8915C11.2662 16.8921 11.266 16.8925 11.266 16.8926C11.266 16.8927 11.2659 16.8927 11.266 16.8926C11.266 16.8926 11.266 16.8925 11.266 16.8925C11.266 16.8924 11.2661 16.8923 11.9012 17.1208C12.5364 17.3493 12.5364 17.3492 12.5365 17.349C12.5365 17.3489 12.5366 17.3488 12.5366 17.3486C12.5367 17.3483 12.5369 17.348 12.537 17.3475C12.5373 17.3467 12.5377 17.3456 12.5381 17.3443C12.5391 17.3417 12.5403 17.3382 12.5419 17.3337C12.5451 17.3247 12.5495 17.312 12.5551 17.2957C12.5663 17.2633 12.5821 17.2167 12.6015 17.1574C12.6403 17.0389 12.6937 16.8693 12.7536 16.6608C12.873 16.2449 13.0202 15.6678 13.129 15.027C13.2372 14.3891 13.3107 13.6686 13.273 12.9715C13.2357 12.2816 13.0868 11.5569 12.7004 10.958L11.566 11.6899Z" fill="white"/>
<path d="M11.5106 14.4613C11.2959 14.0688 10.8037 13.9247 10.4113 14.1394C10.0188 14.3541 9.87469 14.8463 10.0894 15.2387L11.5106 14.4613ZM12.825 20.925L12.0325 21.0926C12.1046 21.4335 12.3866 21.6901 12.7328 21.7297C13.0789 21.7694 13.4117 21.5833 13.559 21.2675L12.825 20.925ZM18.2136 12.7109C18.4701 12.3445 18.381 11.8394 18.0145 11.5829C17.648 11.3263 17.143 11.4154 16.8864 11.7819L18.2136 12.7109ZM10.0894 15.2387C10.6475 16.259 11.134 17.7052 11.4864 18.9376C11.6602 19.5457 11.7973 20.0868 11.8908 20.4755C11.9375 20.6697 11.9733 20.8255 11.9972 20.932C12.0091 20.9852 12.0181 21.0261 12.0241 21.0533C12.027 21.0669 12.0292 21.0771 12.0306 21.0837C12.0313 21.087 12.0319 21.0894 12.0322 21.0909C12.0323 21.0916 12.0324 21.0922 12.0325 21.0924C12.0325 21.0926 12.0325 21.0927 12.0325 21.0927C12.0325 21.0927 12.0325 21.0927 12.0325 21.0927C12.0325 21.0926 12.0325 21.0926 12.825 20.925C13.6175 20.7574 13.6175 20.7574 13.6174 20.7573C13.6174 20.7572 13.6174 20.7571 13.6174 20.757C13.6173 20.7568 13.6173 20.7565 13.6172 20.7562C13.6171 20.7555 13.6169 20.7546 13.6166 20.7535C13.6162 20.7512 13.6155 20.748 13.6146 20.744C13.6129 20.7358 13.6103 20.724 13.607 20.7087C13.6003 20.6782 13.5906 20.6338 13.5778 20.577C13.5523 20.4633 13.5147 20.2996 13.4659 20.0966C13.3683 19.6911 13.2255 19.1272 13.0439 18.4923C12.6856 17.2388 12.1596 15.6476 11.5106 14.4613L10.0894 15.2387ZM12.825 20.925C13.559 21.2675 13.559 21.2676 13.559 21.2675C13.559 21.2675 13.559 21.2675 13.5591 21.2674C13.5591 21.2673 13.5592 21.2671 13.5594 21.2668C13.5597 21.2662 13.5601 21.2652 13.5607 21.2639C13.5619 21.2613 13.5638 21.2573 13.5663 21.252C13.5713 21.2413 13.5788 21.2253 13.5888 21.2042C13.6086 21.1619 13.6382 21.0992 13.6767 21.0181C13.7537 20.856 13.8661 20.6207 14.0074 20.329C14.2902 19.7455 14.6882 18.9376 15.1487 18.0404C16.076 16.2341 17.2356 14.108 18.2136 12.7109L16.8864 11.7819C15.8394 13.2777 14.6365 15.4909 13.7075 17.3006C13.24 18.2115 12.8364 19.0308 12.5496 19.6225C12.4062 19.9185 12.2919 20.1578 12.2132 20.3234C12.1739 20.4062 12.1435 20.4706 12.1229 20.5145C12.1126 20.5364 12.1047 20.5532 12.0993 20.5647C12.0967 20.5704 12.0946 20.5747 12.0932 20.5777C12.0925 20.5792 12.092 20.5803 12.0916 20.5811C12.0914 20.5815 12.0913 20.5818 12.0912 20.5821C12.0911 20.5822 12.0911 20.5823 12.0911 20.5823C12.091 20.5824 12.091 20.5825 12.825 20.925Z" fill="white"/>
</svg>
