<?xml version="1.0" encoding="utf-8"?>
<!-- Generator: Adobe Illustrator 23.0.2, SVG Export Plug-In . SVG Version: 6.00 Build 0)  -->
<svg version="1.1" id="Capa_1" xmlns="http://www.w3.org/2000/svg" xmlns:xlink="http://www.w3.org/1999/xlink" x="0px" y="0px"
	 viewBox="0 0 300 300" style="enable-background:new 0 0 300 300;" xml:space="preserve">
<style type="text/css">
	.st0{fill:#BDEA96;}
	.st1{fill:#005E0D;}
</style>
<path class="st0" d="M144.3,265.7L144.3,265.7c-61.8,0-111.9-50.1-111.9-111.9V58.4c0-13.3,10.7-24,24-24h88
	c61.8,0,111.9,50.1,111.9,111.9v7.5C256.3,215.6,206.2,265.7,144.3,265.7z"/>
<g>
	<path class="st1" d="M177,212.6h-63.9c-1.7,0-3.2,1.4-3.2,3.2c0,1.7,1.4,3.2,3.2,3.2H177c1.7,0,3.2-1.4,3.2-3.2
		C180.2,214,178.7,212.6,177,212.6z"/>
	<path class="st1" d="M134.4,199.5l0.3,0.3c4.4,4.4,6.5,6.6,9.8,6.6c0,0,0,0,0,0c3.2,0,5.3-2.1,8.8-5.7l1.1-1.1
		c22.6-22.6,34.1-44.7,34.1-65.6c0-22.1-16.4-40.5-37.6-43.6c0.8-1.3,1.6-2.3,2.6-3.1c0.4-0.3,0.9-0.5,1.4-0.8
		c0.2-0.1,0.7-0.3,1-0.5c0.6-2.2,0.3-3.5-1.2-4.6c-1.3-0.9-2.9-1.6-5.9,1.2c-1,0.9-1.9,1.9-2.8,3c-0.5,0.5-0.9,1-1.4,1.5l-1.5,1.6
		l-1.5-2.6c-0.2-0.4-0.5-0.8-0.7-1.2c-3-5.5-8.5-9.6-14.7-10.9c-5.7-1.2-12.5-0.5-20.2,2.2c-1.1,0.4-2.2,0.8-3.3,1.3
		c-1.8,0.7-2.3,2.6-1.6,5.1c2.1,6.9,4.8,12.6,8.1,17.5c0.2,0.3,0.4,0.5,0.6,0.8l0.2,0.3c0.7,0.9,1.5,1.8,2.4,2.6
		c-7.7,8.1-12,19-12,30.2C100.3,161.3,121.7,186.8,134.4,199.5z M111.1,87.5c-0.5-1-0.9-1.9-1.5-3l-1.1-2.2l2.4-0.2
		c1.4-0.1,2.7-0.2,3.9-0.4c2.8-0.3,5.4-0.5,8-0.4c3.4,0.1,6.9,2,9.6,5c2.8,3.2,4.4,7.3,4.1,11c-0.1,1.5-1.5,2.7-2.3,3.1
		c-2.3,1.4-4.7,2.1-7.1,2.1c-3.6,0-7.1-1.7-9.9-4.8c-1.4-1.5-2.5-3.1-3.3-4.6C112.9,91.4,112.1,89.6,111.1,87.5z M122.7,109.4
		c4.7,1.4,9.1,0.5,14.2-1.4l2.2-0.8l0,3.7c0,0.8,0,1.5,0,2.2c0.1,3.1,1.5,4.6,4,4.5c0.9,0,3.4-0.1,3.7-4.7c0.1-1.2,0.1-2.4,0.2-3.7
		l0-0.1c0.2-3.8,0.4-7.7,1.2-11.5c18.3,1.9,32.7,17.4,32.7,36.3c0,18.8-10.7,39.1-31.9,60.2l-1.1,1.1c-1.3,1.3-2.7,2.7-3.4,3.3
		c-0.9-0.7-2.7-2.4-4.4-4.1l-0.3-0.3c-27.7-27.7-31.9-49.6-31.9-60.2c0-9.9,3.9-19.1,10.9-26C120.2,108.6,121.5,109.1,122.7,109.4z"
		/>
	<path class="st1" d="M134.7,149.8c2.6,1.6,5.4,2.4,8.3,2.4c1.2,0,2.5-0.1,3.8-0.4c8.6-2.1,13.9-10.7,11.8-19.3v0
		c-2.1-8.6-10.7-13.9-19.3-11.8c-4.2,1-7.7,3.5-9.9,7.2c-2.2,3.6-2.9,7.9-1.9,12.1C128.5,144,131.1,147.6,134.7,149.8z M136.3,132
		c1.1-1.8,2.9-3.1,4.9-3.6c0.6-0.1,1.2-0.2,1.9-0.2c3.6,0,6.9,2.5,7.7,6.1c1,4.3-1.6,8.6-5.9,9.6c-2.1,0.5-4.2,0.2-6-1
		c-1.8-1.1-3.1-2.9-3.6-4.9C134.8,135.9,135.2,133.8,136.3,132z"/>
	<path class="st1" d="M108.6,102c-0.3-0.4-0.5-0.7-0.8-1.1C107.8,100.9,108.1,101.3,108.6,102z"/>
</g>
</svg>
