<svg width="209" height="308" viewBox="0 0 209 308" fill="none" xmlns="http://www.w3.org/2000/svg">
<g clip-path="url(#clip0_1_35)">
<path d="M77.8899 5.82997C66.2899 11.83 59.99 22.05 53.44 32.67C44.9775 46.6032 39.0873 61.9436 36.05 77.96C23.83 135.51 8.59995 136.1 3.63995 174.71C1.22995 193.39 -5.51999 245.83 28.01 279.83C58.73 310.98 111.9 315.03 150.73 293.62C197.18 268.04 205.55 215.86 206.73 207.94C211.38 175.54 200.92 148.53 196.73 137.94C189.62 120.2 185.93 121.21 174.73 99.87C149.52 51.59 160.5 31.27 139.49 13.71C122.73 -0.270022 96.16 -3.68003 77.8899 5.82997Z" fill="#DCE261"/>
<path d="M79.15 5.09998C67.45 10.67 60.91 22.41 54.26 32.95C38.42 58.22 33.78 88.15 25.26 116.29C22.9544 124.485 20.0671 132.506 16.62 140.29C15.85 142.14 13.62 147.16 12.88 148.97C7.62928 161.54 4.33766 174.842 3.12 188.41C-1.88 236.61 15.78 283.31 64.25 300.41C108.12 316.1 161.13 300.82 185.57 260.09C198.86 238.69 204.73 213.39 205.73 188.42C206.44 171.73 203.2 155.04 195.17 140.31C187.14 125.58 177.28 111.5 170.48 96.01C163.538 80.4973 158.282 64.2845 154.8 47.65C151.58 30.83 143.28 15.73 127.73 7.57999C113.09 -0.470008 94.48 -2.18002 79.18 5.09998H79.15ZM79.02 4.82999C102.13 -6.25001 132.78 2.45998 147.11 23.6C151.89 30.7 154.77 38.93 156.72 47.2C162.57 71.82 171.72 95.42 185.01 116.97C196.79 136.09 207.24 152.4 208.66 175.69C210.06 205.29 203.6 236.17 187.82 261.47C180.985 272.345 172.071 281.764 161.587 289.186C151.104 296.608 139.258 301.887 126.73 304.72C85.73 314.72 37.31 299.61 15.44 262.05C-5.90999 225.85 -3.85999 176.26 14.31 139.18C17.7999 131.544 20.7277 123.663 23.07 115.6C30.72 91.51 35.86 66.29 47.49 43.65C51.4691 36.1959 55.8903 28.9864 60.73 22.06C65.45 15.06 71.24 8.48999 79 4.82999H79.02Z" fill="#281200"/>
<path d="M82.38 14.83C71.57 20.68 65.58 30.36 59.38 40.44C51.3414 53.6296 45.6536 68.1147 42.57 83.25C30.34 137.47 16.25 138.25 11.03 174.61C1.81995 238.72 31.84 272.92 31.84 272.92C58.34 302.26 104.55 310.13 141.55 293.84C178.55 277.55 196.28 241.49 201.14 215.38C201.14 215.38 207.37 181.91 190.02 136.9C188.65 133.324 187.07 129.831 185.29 126.44C181.36 119.34 177.57 115.92 170.36 101.53C147.86 56.64 158.36 37.38 139.2 21.25C123.91 8.35 99.42 5.58999 82.38 14.83Z" fill="#EEF478"/>
<path d="M113.09 14.83C101.21 13.45 92.09 18.42 87.65 20.94C71.07 30.3 63.74 46.27 57.16 61.12C47.87 82.07 49.95 88.79 39.61 120.46C32.02 143.71 30.31 141.9 26.3 155.74C21.69 171.61 9.77996 212.69 29.83 249.24C33.34 255.64 49.83 283.84 83.39 292.54C119.91 302.02 157.13 283.3 177.25 257.09C205.25 220.67 201.25 168.43 183.4 141.24C178.07 133.09 170.78 126.09 162.78 109.24C154.69 92.24 150.48 74.95 148.63 67.24C142.84 43.02 144.78 36.14 136.85 27.24C127.5 16.73 114.84 15.07 113.09 14.83Z" fill="#FFFFA1"/>
<path d="M98.99 145.5C113.99 143.28 126.13 152.34 130.38 155.5C145.31 166.62 149.75 182.5 152.07 190.84C154.69 200.22 162.19 227.05 147.96 243.31C139.23 253.31 124.59 256.71 115.84 258.76C111.079 259.868 106.231 260.56 101.35 260.83C95.9294 259.238 90.6697 257.143 85.64 254.57C78.8 251.07 71.9 246.44 68.36 243.08C54.43 229.83 54.92 200.29 64.16 179.22C67.19 172.34 77.58 148.66 98.99 145.5Z" fill="#7C3E06"/>
<path opacity="0.09" d="M73.8 177.51C61.61 183.22 58.88 206.62 64.54 223.02C70.99 241.73 89.54 254.71 108.09 254.88C117.669 254.841 126.983 251.736 134.67 246.02C139.67 242.25 147.26 236.48 147.95 228.42C149.01 216.09 133.21 206.12 111.95 192.71C91.9 180.05 81.88 173.72 73.8 177.51Z" fill="#424242"/>
<path opacity="0.17" d="M97.27 155.55C100.623 153.348 104.56 152.206 108.57 152.27C117.06 152.62 122.83 159.27 129.88 167.71C136.14 175.208 141.289 183.567 145.17 192.53" fill="white"/>
<path opacity="0.51" d="M125.73 90.39C123.73 91.13 121.4 91.99 120.73 94.08C119.8 96.85 122.08 100.67 124.73 101.46C129.93 103.01 137.68 93.37 136.14 90.39C135.01 88.29 129.13 89.12 125.73 90.39Z" fill="#FFECF8"/>
<path opacity="0.51" d="M78 99.04C79.87 100.04 82 101.26 84.09 100.42C86.79 99.31 88.18 95.09 87.03 92.55C84.8 87.61 72.44 88.06 71.2 91.17C70.32 93.36 74.79 97.27 78 99.04Z" fill="#FFECF8"/>
<path d="M124.74 75.5C127.579 75.5 129.88 72.375 129.88 68.52C129.88 64.6651 127.579 61.54 124.74 61.54C121.901 61.54 119.6 64.6651 119.6 68.52C119.6 72.375 121.901 75.5 124.74 75.5Z" fill="black"/>
<path d="M109.5 93.11C109.33 91.25 106.81 89.92 104.7 90C102.59 90.08 100.25 91.42 100.18 93.39C100.11 95.36 102.5 96.99 104.58 97.07C107.04 97.17 109.73 95.13 109.5 93.11Z" fill="#281200"/>
<path d="M124.75 74.18C125.728 74.18 126.52 73.2084 126.52 72.01C126.52 70.8115 125.728 69.84 124.75 69.84C123.772 69.84 122.98 70.8115 122.98 72.01C122.98 73.2084 123.772 74.18 124.75 74.18Z" fill="white"/>
<path d="M81 74.24C83.8387 74.24 86.14 71.115 86.14 67.26C86.14 63.4051 83.8387 60.28 81 60.28C78.1613 60.28 75.86 63.4051 75.86 67.26C75.86 71.115 78.1613 74.24 81 74.24Z" fill="black"/>
<path d="M81 72.92C81.9776 72.92 82.77 71.9485 82.77 70.75C82.77 69.5516 81.9776 68.58 81 68.58C80.0225 68.58 79.23 69.5516 79.23 70.75C79.23 71.9485 80.0225 72.92 81 72.92Z" fill="white"/>
</g>
<defs>
<clipPath id="clip0_1_35">
<rect width="208.84" height="307.72" fill="white"/>
</clipPath>
</defs>
</svg>
