<svg width="14" height="14" viewBox="0 0 14 14" fill="none" xmlns="http://www.w3.org/2000/svg">
<path d="M10.6548 3.99365V5.01562H10.1284V3.99365H10.6548ZM10.5898 9.5752V10.4912H10.0669V9.5752H10.5898ZM11.106 8.47119C11.106 8.33903 11.0786 8.22396 11.0239 8.12598C10.9715 8.02572 10.8849 7.93571 10.7642 7.85596C10.6434 7.77393 10.4816 7.69759 10.2788 7.62695C9.98714 7.52441 9.73193 7.40934 9.51318 7.28174C9.29671 7.15186 9.12809 6.99235 9.00732 6.80322C8.88883 6.61182 8.82959 6.3737 8.82959 6.08887C8.82959 5.80859 8.89339 5.56592 9.021 5.36084C9.15088 5.15576 9.33089 4.9974 9.56104 4.88574C9.79118 4.77409 10.0601 4.71826 10.3677 4.71826C10.6047 4.71826 10.8177 4.75358 11.0068 4.82422C11.1982 4.89486 11.3612 4.99854 11.4956 5.13525C11.63 5.27197 11.7326 5.44059 11.8032 5.64111C11.8761 5.83936 11.9126 6.06722 11.9126 6.32471H11.0923C11.0923 6.17887 11.0752 6.04899 11.041 5.93506C11.0091 5.81885 10.9613 5.72087 10.8975 5.64111C10.8337 5.55908 10.7562 5.49642 10.665 5.45312C10.5762 5.40983 10.4748 5.38818 10.3608 5.38818C10.1991 5.38818 10.0658 5.41895 9.96094 5.48047C9.85612 5.53971 9.77865 5.62174 9.72852 5.72656C9.68066 5.83138 9.65674 5.95101 9.65674 6.08545C9.65674 6.21533 9.6818 6.32926 9.73193 6.42725C9.78206 6.52523 9.86751 6.6141 9.98828 6.69385C10.1113 6.77132 10.2799 6.84993 10.4941 6.92969C10.7881 7.03451 11.0422 7.15186 11.2563 7.28174C11.4728 7.40934 11.6392 7.56771 11.7554 7.75684C11.8739 7.94368 11.9331 8.17952 11.9331 8.46436C11.9331 8.7583 11.8647 9.00781 11.728 9.21289C11.5936 9.41797 11.4045 9.57406 11.1606 9.68115C10.9191 9.78597 10.6377 9.83838 10.3164 9.83838C10.1136 9.83838 9.91195 9.81217 9.71143 9.75977C9.51318 9.70508 9.33317 9.61621 9.17139 9.49316C9.0096 9.37012 8.88086 9.20719 8.78516 9.00439C8.68945 8.79932 8.6416 8.54867 8.6416 8.25244H9.46875C9.46875 8.43018 9.49268 8.57829 9.54053 8.69678C9.58838 8.81527 9.65332 8.90869 9.73535 8.97705C9.81738 9.04541 9.90853 9.0944 10.0088 9.12402C10.1113 9.15365 10.2139 9.16846 10.3164 9.16846C10.4873 9.16846 10.6309 9.13997 10.7471 9.08301C10.8656 9.02376 10.9544 8.94173 11.0137 8.83691C11.0752 8.72982 11.106 8.60791 11.106 8.47119Z" fill="#424962"/>
<line x1="0.5" y1="0.575989" x2="13.4816" y2="0.575989" stroke="#424962" stroke-linecap="round"/>
<path d="M1.3111 1V12.8533L3.4956 11.6375L5.2432 12.8533L7.4277 11.6375L9.1753 12.8533L10.9229 11.6375L12.8415 12.8533V1M3.0587 3.33644H6.9908M2.95001 5.52095H6.9908M2.95001 7.70545H6.9908M2.95001 9.66051H6.9908" stroke="#424962" stroke-linecap="round"/>
</svg>
