<svg width="33" height="33" viewBox="0 0 33 33" fill="none" xmlns="http://www.w3.org/2000/svg">
<circle cx="16.5" cy="16.5" r="15.75" fill="#00C686" stroke="#00C686" stroke-width="1.5"/>
<path d="M18.8663 12.8725C18.0932 14.6407 19.6173 18.1377 19.6173 18.1377C19.6173 18.1377 24.0184 17.314 24.9079 15.2798C25.681 13.5116 24.1569 10.0146 24.1569 10.0146C24.1569 10.0146 19.7558 10.8383 18.8663 12.8725Z" fill="#00C686"/>
<path d="M19.6173 18.1377L19.1589 18.3374L19.318 18.7024L19.7093 18.6291L19.6173 18.1377ZM18.8663 12.8725L19.3244 13.0728L18.8663 12.8725ZM24.1569 10.0146L24.6153 9.81484C24.5222 9.60127 24.2939 9.48029 24.0649 9.52314L24.1569 10.0146ZM24.9079 15.2798L24.4497 15.0795L24.9079 15.2798ZM19.6173 18.1377C20.0756 17.9379 20.0757 17.938 20.0757 17.938C20.0757 17.938 20.0757 17.9381 20.0757 17.9381C20.0757 17.9381 20.0757 17.938 20.0756 17.9379C20.0756 17.9377 20.0754 17.9373 20.0751 17.9367C20.0746 17.9355 20.0737 17.9334 20.0725 17.9305C20.07 17.9248 20.0662 17.9158 20.0611 17.9038C20.051 17.8797 20.0358 17.8434 20.0167 17.7961C19.9783 17.7014 19.9238 17.563 19.8605 17.391C19.7336 17.0461 19.5728 16.5699 19.4358 16.0425C19.2984 15.5131 19.1882 14.9444 19.1566 14.4116C19.1246 13.8719 19.1762 13.4119 19.3244 13.0728L18.4082 12.6722C18.1699 13.2172 18.122 13.8574 18.1584 14.4707C18.1951 15.0909 18.321 15.7279 18.4679 16.2938C18.6153 16.8616 18.7873 17.3702 18.922 17.7363C18.9895 17.9197 19.048 18.0683 19.0899 18.1718C19.1109 18.2236 19.1278 18.2641 19.1396 18.2921C19.1455 18.3061 19.1501 18.317 19.1534 18.3246C19.155 18.3284 19.1563 18.3314 19.1572 18.3335C19.1577 18.3346 19.1581 18.3355 19.1584 18.3361C19.1585 18.3364 19.1586 18.3367 19.1587 18.3369C19.1588 18.337 19.1588 18.3372 19.1588 18.3372C19.1589 18.3373 19.1589 18.3374 19.6173 18.1377ZM19.3244 13.0728C19.4932 12.6868 19.8486 12.3196 20.3481 11.9821C20.8423 11.6482 21.4371 11.3706 22.0227 11.1481C22.6059 10.9266 23.1649 10.7654 23.5791 10.6595C23.7858 10.6067 23.9552 10.568 24.0721 10.5426C24.1305 10.5299 24.1758 10.5206 24.2059 10.5145C24.2209 10.5115 24.2322 10.5093 24.2395 10.5079C24.2431 10.5072 24.2457 10.5067 24.2473 10.5064C24.2481 10.5062 24.2486 10.5061 24.2489 10.5061C24.249 10.5061 24.2491 10.506 24.2491 10.506C24.2491 10.506 24.249 10.5061 24.249 10.5061C24.249 10.5061 24.2489 10.5061 24.1569 10.0146C24.0649 9.52314 24.0648 9.52317 24.0647 9.52319C24.0646 9.5232 24.0644 9.52323 24.0643 9.52326C24.064 9.52331 24.0637 9.52337 24.0633 9.52344C24.0625 9.5236 24.0615 9.5238 24.0601 9.52405C24.0575 9.52456 24.0538 9.52527 24.049 9.52619C24.0396 9.52802 24.026 9.53068 24.0086 9.53418C23.9738 9.54118 23.9236 9.55154 23.86 9.56535C23.7327 9.59297 23.5514 9.63448 23.3315 9.69067C22.8928 9.8028 22.2959 9.97466 21.6676 10.2133C21.0418 10.4511 20.3695 10.7608 19.7883 11.1535C19.2124 11.5425 18.6841 12.0411 18.4082 12.6722L19.3244 13.0728ZM24.1569 10.0146C23.6985 10.2144 23.6985 10.2143 23.6985 10.2143C23.6985 10.2143 23.6985 10.2142 23.6985 10.2142C23.6985 10.2142 23.6985 10.2143 23.6985 10.2143C23.6986 10.2145 23.6988 10.215 23.6991 10.2156C23.6996 10.2168 23.7005 10.2189 23.7017 10.2217C23.7042 10.2275 23.708 10.2364 23.7131 10.2485C23.7232 10.2725 23.7383 10.3089 23.7575 10.3562C23.7959 10.4509 23.8504 10.5893 23.9137 10.7613C24.0406 11.1062 24.2014 11.5823 24.3384 12.1098C24.4758 12.6392 24.586 13.2079 24.6176 13.7407C24.6496 14.2804 24.598 14.7404 24.4497 15.0795L25.366 15.4801C25.6043 14.9351 25.6522 14.2948 25.6158 13.6816C25.5791 13.0614 25.4532 12.4244 25.3063 11.8585C25.1588 11.2906 24.9869 10.7821 24.8522 10.416C24.7847 10.2325 24.7262 10.0839 24.6842 9.98047C24.6633 9.92871 24.6464 9.88818 24.6346 9.86016C24.6287 9.84615 24.624 9.83526 24.6208 9.82766C24.6191 9.82385 24.6179 9.82087 24.6169 9.81873C24.6165 9.81766 24.6161 9.8168 24.6158 9.81615C24.6157 9.81582 24.6156 9.81555 24.6155 9.81533C24.6154 9.81523 24.6154 9.8151 24.6153 9.81505C24.6153 9.81494 24.6153 9.81484 24.1569 10.0146ZM24.4497 15.0795C24.281 15.4654 23.9256 15.8327 23.4261 16.1702C22.9319 16.5041 22.3371 16.7817 21.7515 17.0041C21.1683 17.2257 20.6093 17.3869 20.195 17.4927C19.9884 17.5456 19.819 17.5843 19.7021 17.6097C19.6436 17.6223 19.5984 17.6317 19.5683 17.6377C19.5532 17.6408 19.542 17.643 19.5347 17.6444C19.5311 17.6451 19.5285 17.6456 19.5269 17.6459C19.5261 17.646 19.5256 17.6461 19.5253 17.6462C19.5252 17.6462 19.5251 17.6462 19.5251 17.6462C19.5251 17.6462 19.5252 17.6462 19.5252 17.6462C19.5252 17.6462 19.5253 17.6462 19.6173 18.1377C19.7093 18.6291 19.7094 18.6291 19.7095 18.6291C19.7096 18.6291 19.7097 18.629 19.7099 18.629C19.7101 18.629 19.7105 18.6289 19.7109 18.6288C19.7117 18.6287 19.7127 18.6285 19.714 18.6282C19.7167 18.6277 19.7204 18.627 19.7251 18.6261C19.7346 18.6242 19.7482 18.6216 19.7655 18.6181C19.8003 18.6111 19.8505 18.6007 19.9142 18.5869C20.0414 18.5593 20.2228 18.5178 20.4427 18.4616C20.8814 18.3495 21.4783 18.1776 22.1066 17.939C22.7324 17.7012 23.4047 17.3915 23.9859 16.9988C24.5617 16.6097 25.09 16.1112 25.366 15.4801L24.4497 15.0795Z" fill="white"/>
<path d="M8.72328 10.3563C8.51961 10.0949 8.1426 10.0481 7.88121 10.2518C7.61983 10.4555 7.57304 10.8325 7.77672 11.0939L8.72328 10.3563ZM13.2 18.1501L13.7264 17.8621L13.2 18.1501ZM15.675 25.5751L15.088 25.6992C15.1414 25.9517 15.3503 26.1418 15.6067 26.1712C15.8631 26.2006 16.1096 26.0627 16.2187 25.8288L15.675 25.5751ZM21.9415 15.312C22.1316 15.0406 22.0655 14.6664 21.7941 14.4764C21.5226 14.2864 21.1485 14.3524 20.9585 14.6239L21.9415 15.312ZM8.25 10.7251C7.77672 11.0939 7.7767 11.0939 7.7767 11.0939C7.77672 11.0939 7.77673 11.0939 7.77675 11.0939C7.77681 11.094 7.77692 11.0941 7.77706 11.0943C7.77736 11.0947 7.77784 11.0953 7.77849 11.0962C7.7798 11.0978 7.78182 11.1004 7.78453 11.1039C7.78996 11.1109 7.79818 11.1216 7.80906 11.1356C7.83082 11.1638 7.86322 11.2059 7.90531 11.261C7.98948 11.371 8.11232 11.5328 8.26607 11.7385C8.57362 12.1498 9.00443 12.7359 9.49633 13.4337C10.4821 14.8321 11.705 16.6673 12.6736 18.438L13.7264 17.8621C12.7263 16.0339 11.4741 14.1566 10.4771 12.7423C9.97763 12.0337 9.54007 11.4384 9.22711 11.0198C9.07059 10.8105 8.94515 10.6453 8.85859 10.5321C8.81531 10.4755 8.78174 10.4319 8.75887 10.4022C8.74743 10.3874 8.73866 10.3761 8.73269 10.3684C8.72971 10.3646 8.72742 10.3616 8.72585 10.3596C8.72506 10.3586 8.72445 10.3578 8.72402 10.3573C8.72381 10.357 8.72364 10.3568 8.72352 10.3566C8.72346 10.3565 8.7234 10.3565 8.72337 10.3564C8.72332 10.3564 8.72328 10.3563 8.25 10.7251ZM12.6736 18.438C13.3776 19.725 13.9817 21.5275 14.4138 23.0389C14.6282 23.7885 14.7971 24.4553 14.9124 24.9345C14.97 25.174 15.0141 25.3663 15.0437 25.4981C15.0586 25.5641 15.0697 25.6149 15.0771 25.649C15.0809 25.666 15.0836 25.6788 15.0854 25.6873C15.0863 25.6915 15.087 25.6946 15.0874 25.6966C15.0876 25.6976 15.0878 25.6983 15.0879 25.6988C15.0879 25.699 15.088 25.6991 15.088 25.6992C15.088 25.6993 15.088 25.6993 15.088 25.6993C15.088 25.6993 15.088 25.6992 15.675 25.5751C16.262 25.451 16.262 25.4509 16.262 25.4508C16.262 25.4508 16.262 25.4507 16.2619 25.4505C16.2619 25.4503 16.2618 25.45 16.2617 25.4497C16.2616 25.449 16.2614 25.448 16.2611 25.4467C16.2606 25.4441 16.2598 25.4404 16.2587 25.4356C16.2567 25.426 16.2537 25.412 16.2497 25.3937C16.2417 25.3572 16.23 25.3038 16.2146 25.2352C16.1838 25.098 16.1383 24.8998 16.0791 24.6539C15.9608 24.1622 15.7876 23.4785 15.5676 22.709C15.131 21.1821 14.4977 19.2721 13.7264 17.8621L12.6736 18.438ZM15.675 25.5751C16.2187 25.8288 16.2187 25.8288 16.2187 25.8288C16.2187 25.8288 16.2188 25.8287 16.2188 25.8286C16.2189 25.8284 16.219 25.8281 16.2192 25.8277C16.2196 25.827 16.2202 25.8257 16.2209 25.8241C16.2224 25.8208 16.2248 25.8159 16.2279 25.8093C16.234 25.7961 16.2433 25.7763 16.2556 25.7503C16.2801 25.6982 16.3164 25.6211 16.3637 25.5216C16.4581 25.3227 16.596 25.0341 16.7692 24.6766C17.1158 23.9615 17.6036 22.9713 18.1682 21.8714C19.3019 19.6629 20.7296 17.0433 21.9415 15.312L20.9585 14.6239C19.6954 16.4283 18.2356 19.1123 17.1006 21.3234C16.5308 22.4334 16.0389 23.432 15.6894 24.1533C15.5146 24.514 15.3753 24.8055 15.2796 25.007C15.2318 25.1078 15.1948 25.1861 15.1698 25.2394C15.1572 25.266 15.1477 25.2864 15.1412 25.3001C15.138 25.307 15.1355 25.3123 15.1339 25.3158C15.1331 25.3176 15.1324 25.3189 15.132 25.3199C15.1318 25.3203 15.1316 25.3207 15.1315 25.3209C15.1314 25.3211 15.1314 25.3212 15.1314 25.3212C15.1313 25.3213 15.1313 25.3214 15.675 25.5751Z" fill="white"/>
</svg>
