<svg width="15" height="15" viewBox="0 0 15 15" fill="none" xmlns="http://www.w3.org/2000/svg">
<path fill-rule="evenodd" clip-rule="evenodd" d="M15 7.5C15 9.48912 14.2098 11.3968 12.8033 12.8033C11.3968 14.2098 9.48912 15 7.5 15C5.51088 15 3.60322 14.2098 2.1967 12.8033C0.790176 11.3968 0 9.48912 0 7.5C0 5.51088 0.790176 3.60322 2.1967 2.1967C3.60322 0.790176 5.51088 0 7.5 0C9.48912 0 11.3968 0.790176 12.8033 2.1967C14.2098 3.60322 15 5.51088 15 7.5ZM11.1131 4.55062C11.2011 4.46261 11.2506 4.34323 11.2506 4.21875C11.2506 4.09427 11.2011 3.97489 11.1131 3.88687C11.0251 3.79886 10.9057 3.74941 10.7812 3.74941C10.6568 3.74941 10.5374 3.79886 10.4494 3.88687L7.5 6.83719L4.55062 3.88687C4.50704 3.84329 4.4553 3.80872 4.39836 3.78513C4.34142 3.76155 4.28039 3.74941 4.21875 3.74941C4.15711 3.74941 4.09608 3.76155 4.03914 3.78513C3.9822 3.80872 3.93046 3.84329 3.88687 3.88687C3.84329 3.93046 3.80872 3.9822 3.78513 4.03914C3.76155 4.09608 3.74941 4.15711 3.74941 4.21875C3.74941 4.28039 3.76155 4.34142 3.78513 4.39836C3.80872 4.4553 3.84329 4.50704 3.88687 4.55062L6.83719 7.5L3.88687 10.4494C3.79886 10.5374 3.74941 10.6568 3.74941 10.7812C3.74941 10.9057 3.79886 11.0251 3.88687 11.1131C3.97489 11.2011 4.09427 11.2506 4.21875 11.2506C4.34323 11.2506 4.46261 11.2011 4.55062 11.1131L7.5 8.16281L10.4494 11.1131C10.493 11.1567 10.5447 11.1913 10.6016 11.2149C10.6586 11.2385 10.7196 11.2506 10.7812 11.2506C10.8429 11.2506 10.9039 11.2385 10.9609 11.2149C11.0178 11.1913 11.0695 11.1567 11.1131 11.1131C11.1567 11.0695 11.1913 11.0178 11.2149 10.9609C11.2385 10.9039 11.2506 10.8429 11.2506 10.7812C11.2506 10.7196 11.2385 10.6586 11.2149 10.6016C11.1913 10.5447 11.1567 10.493 11.1131 10.4494L8.16281 7.5L11.1131 4.55062Z" fill="#424962"/>
</svg>
