<svg width="11" height="11" viewBox="0 0 11 11" fill="none" xmlns="http://www.w3.org/2000/svg">
<g clip-path="url(#clip0_766_1474)">
<path fill-rule="evenodd" clip-rule="evenodd" d="M5.5 10.3125C6.59402 10.3125 7.64323 9.8779 8.41682 9.10432C9.1904 8.33073 9.625 7.28152 9.625 6.1875C9.625 5.09348 9.1904 4.04427 8.41682 3.27068C7.64323 2.4971 6.59402 2.0625 5.5 2.0625C4.40598 2.0625 3.35677 2.4971 2.58318 3.27068C1.8096 4.04427 1.375 5.09348 1.375 6.1875C1.375 7.28152 1.8096 8.33073 2.58318 9.10432C3.35677 9.8779 4.40598 10.3125 5.5 10.3125ZM5.5 11C6.77635 11 8.00043 10.493 8.90295 9.59045C9.80547 8.68793 10.3125 7.46385 10.3125 6.1875C10.3125 4.91115 9.80547 3.68707 8.90295 2.78455C8.00043 1.88203 6.77635 1.375 5.5 1.375C4.22365 1.375 2.99957 1.88203 2.09705 2.78455C1.19453 3.68707 0.6875 4.91115 0.6875 6.1875C0.6875 7.46385 1.19453 8.68793 2.09705 9.59045C2.99957 10.493 4.22365 11 5.5 11Z" fill="black"/>
<path fill-rule="evenodd" clip-rule="evenodd" d="M5.49997 3.09375C5.59114 3.09375 5.67857 3.12997 5.74304 3.19443C5.80751 3.2589 5.84372 3.34633 5.84372 3.4375V6.1875C5.84372 6.24097 5.83124 6.2937 5.80728 6.3415L4.77603 8.404C4.75603 8.44471 4.72815 8.48107 4.69403 8.51096C4.6599 8.54085 4.6202 8.56369 4.5772 8.57816C4.53421 8.59264 4.48877 8.59846 4.44352 8.59529C4.39826 8.59212 4.35408 8.58003 4.31352 8.5597C4.27297 8.53938 4.23683 8.51123 4.20721 8.47687C4.17758 8.44251 4.15505 8.40263 4.1409 8.35953C4.12676 8.31642 4.1213 8.27094 4.12482 8.22571C4.12833 8.18048 4.14077 8.1364 4.16141 8.096L5.15622 6.10637V3.4375C5.15622 3.34633 5.19244 3.2589 5.2569 3.19443C5.32137 3.12997 5.4088 3.09375 5.49997 3.09375Z" fill="black"/>
<path d="M0.591223 3.7036C0.413339 3.54886 0.269191 3.35919 0.167743 3.14637C0.0662948 2.93355 0.00971629 2.70213 0.00152582 2.46651C-0.00666465 2.23089 0.0337081 1.9961 0.120133 1.77675C0.206559 1.5574 0.337188 1.35817 0.503899 1.19146C0.670609 1.02475 0.869835 0.89412 1.08919 0.807694C1.30854 0.721269 1.54333 0.680896 1.77895 0.689087C2.01457 0.697277 2.24599 0.753856 2.45881 0.855304C2.67163 0.956752 2.8613 1.1009 3.01604 1.27878C1.971 1.80936 1.1218 2.65856 0.591223 3.7036ZM7.98391 1.27878C8.13864 1.1009 8.32832 0.956752 8.54114 0.855304C8.75396 0.753856 8.98538 0.697277 9.221 0.689087C9.45662 0.680896 9.69141 0.721269 9.91076 0.807694C10.1301 0.89412 10.3293 1.02475 10.496 1.19146C10.6628 1.35817 10.7934 1.5574 10.8798 1.77675C10.9662 1.9961 11.0066 2.23089 10.9984 2.46651C10.9902 2.70213 10.9337 2.93355 10.8322 3.14637C10.7308 3.35919 10.5866 3.54886 10.4087 3.7036C9.87815 2.65856 9.02895 1.80936 7.98391 1.27878Z" fill="black"/>
<path fill-rule="evenodd" clip-rule="evenodd" d="M8.00657 9.72538C8.0385 9.69336 8.07643 9.66796 8.1182 9.65064C8.15996 9.63331 8.20473 9.62439 8.24994 9.62439C8.29516 9.62439 8.33993 9.63331 8.38169 9.65064C8.42345 9.66796 8.46139 9.69336 8.49332 9.72538L9.18082 10.4129C9.24537 10.4774 9.28163 10.565 9.28163 10.6562C9.28163 10.7475 9.24537 10.8351 9.18082 10.8996C9.11627 10.9642 9.02873 11.0004 8.93744 11.0004C8.84616 11.0004 8.75862 10.9642 8.69407 10.8996L8.00657 10.2121C7.97456 10.1802 7.94916 10.1423 7.93183 10.1005C7.9145 10.0587 7.90558 10.014 7.90558 9.96875C7.90558 9.92354 7.9145 9.87876 7.93183 9.837C7.94916 9.79524 7.97456 9.75731 8.00657 9.72538ZM2.99332 9.72538C2.96139 9.69336 2.92346 9.66796 2.88169 9.65064C2.83993 9.63331 2.79516 9.62439 2.74995 9.62439C2.70473 9.62439 2.65996 9.63331 2.6182 9.65064C2.57644 9.66796 2.5385 9.69336 2.50657 9.72538L1.81907 10.4129C1.75452 10.4774 1.71826 10.565 1.71826 10.6562C1.71826 10.7475 1.75452 10.8351 1.81907 10.8996C1.88362 10.9642 1.97116 11.0004 2.06245 11.0004C2.15373 11.0004 2.24127 10.9642 2.30582 10.8996L2.99332 10.2121C3.02533 10.1802 3.05073 10.1423 3.06806 10.1005C3.08539 10.0587 3.09431 10.014 3.09431 9.96875C3.09431 9.92354 3.08539 9.87876 3.06806 9.837C3.05073 9.79524 3.02533 9.75731 2.99332 9.72538ZM3.7812 0.34375C3.7812 0.252582 3.81741 0.165148 3.88188 0.100682C3.94634 0.0362164 4.03378 0 4.12495 0L6.87494 0C6.96611 0 7.05355 0.0362164 7.11801 0.100682C7.18248 0.165148 7.21869 0.252582 7.21869 0.34375C7.21869 0.434918 7.18248 0.522352 7.11801 0.586818C7.05355 0.651284 6.96611 0.6875 6.87494 0.6875H4.12495C4.03378 0.6875 3.94634 0.651284 3.88188 0.586818C3.81741 0.522352 3.7812 0.434918 3.7812 0.34375Z" fill="black"/>
<path d="M4.8125 0.6875H6.1875V2.0625H4.8125V0.6875Z" fill="black"/>
</g>
<defs>
<clipPath id="clip0_766_1474">
<rect width="11" height="11" fill="white"/>
</clipPath>
</defs>
</svg>
