<svg width="18" height="18" viewBox="0 0 18 18" fill="none" xmlns="http://www.w3.org/2000/svg">
<g clip-path="url(#clip0_721_7004)">
<path d="M15.9424 18C16.3943 18 16.7606 17.6337 16.7606 17.1818V0.818263C16.7606 0.487337 16.5613 0.188974 16.2555 0.0623744C15.9497 -0.0643343 15.5979 0.00570185 15.3639 0.239701L13.6282 1.97533L11.8926 0.239701C11.5731 -0.0798251 11.0551 -0.0798251 10.7355 0.239701L8.99996 1.97528L7.26433 0.239756C6.9448 -0.0797706 6.42684 -0.0797161 6.10726 0.239756L4.37163 1.97539L2.63605 0.239701C2.402 0.00570185 2.05007 -0.0643343 1.74435 0.0623744C1.43868 0.188974 1.23926 0.487337 1.23926 0.818263V17.1818C1.23926 17.6337 1.60564 18 2.05744 18H15.9424ZM11.6367 10.1957C12.0113 10.1957 12.3147 10.2888 12.5384 10.4723C12.7159 10.618 12.9275 10.8971 12.9274 11.4002V12.7153C12.9274 13.4807 12.457 13.9198 11.6367 13.9198C10.8162 13.9198 10.3456 13.4807 10.3456 12.7153V11.4002C10.3456 10.646 10.8283 10.1957 11.6367 10.1957ZM10.2872 7.03092C10.3537 6.88877 10.4913 6.80412 10.6568 6.80412C10.879 6.80412 11.1169 6.98581 11.1169 7.25619C11.1169 7.33179 11.101 7.40041 11.0682 7.46597L7.78802 13.8787C7.711 14.0334 7.56046 14.1271 7.38656 14.1273H7.38607C7.14597 14.1271 6.94306 13.9281 6.94306 13.6927C6.94306 13.6249 6.95942 13.5574 6.99171 13.4921L10.2872 7.03092ZM5.07243 8.33755C5.07243 7.57217 5.54283 7.13324 6.36297 7.13324C7.18371 7.13324 7.65422 7.57217 7.65422 8.33755V9.65242C7.65422 10.4181 7.18366 10.8572 6.36313 10.8572C5.54293 10.8572 5.07248 10.4181 5.07243 9.65253V8.33755Z" fill="#00C686"/>
<path d="M11.6367 13.0938C12.0085 13.0938 12.0586 12.9025 12.0586 12.7154V11.4003C12.0586 11.2129 12.0085 11.0214 11.6368 11.0214C11.5364 11.0214 11.3996 11.0368 11.3187 11.1106C11.2555 11.1682 11.2235 11.2656 11.2235 11.4002V12.7155C11.2235 12.85 11.2555 12.9474 11.3186 13.0048C11.3996 13.0784 11.5363 13.0938 11.6367 13.0938Z" fill="#00C686"/>
<path d="M6.36328 10.0313C6.73523 10.0312 6.78541 9.83971 6.78541 9.65245V8.33753C6.78535 8.15022 6.73517 7.95871 6.36323 7.95871C5.9999 7.95871 5.94983 8.14078 5.94983 8.33753V9.6524C5.94983 9.84909 5.9999 10.0312 6.36328 10.0313Z" fill="#00C686"/>
</g>
<defs>
<clipPath id="clip0_721_7004">
<rect width="18" height="18" fill="white"/>
</clipPath>
</defs>
</svg>
