<svg width="16" height="20" viewBox="0 0 16 20" fill="none" xmlns="http://www.w3.org/2000/svg">
<path d="M4.23654 19.9737C4.48657 20.0776 4.75032 19.8527 4.59724 19.6665C3.76633 18.6561 2.9795 16.9558 4.23311 14.7661C6.32364 11.1146 7.59573 9.22335 7.59573 9.22335C7.59573 9.22335 8.27235 11.4304 10.1065 13.3928C11.8717 15.2815 12.838 17.6568 11.2803 19.6356C11.1341 19.8213 11.3919 20.0404 11.6403 19.9411C13.5685 19.1704 15.7311 17.6246 15.9751 14.5484C16.0651 13.6084 15.9301 12.2924 15.2555 10.6317C14.3879 8.52692 13.3215 7.54479 12.7044 7.12303C12.5198 6.99685 12.2328 7.10868 12.2479 7.29992C12.4277 9.57097 11.3342 10.1473 10.7118 8.84848C10.4633 8.32973 10.3183 7.43247 10.3183 6.33979C10.3183 4.52067 9.64281 2.64806 8.1536 1.12636C7.76634 0.730642 7.3132 0.360871 6.7933 0.0455439C6.60509 -0.0686391 6.33226 0.0461321 6.34949 0.231818C6.46384 1.46502 6.36024 4.9993 2.39177 9.22165C-1.20646 13.1384 0.187843 16.1464 0.6826 16.9611C1.62853 18.5218 2.94797 19.4384 4.23654 19.9737Z" fill="#FF7663"/>
</svg>
