<svg width="72" height="84" viewBox="0 0 72 84" fill="none" xmlns="http://www.w3.org/2000/svg">
<g filter="url(#filter0_d_1009_8983)">
<path d="M35.9554 72C37.4442 72 38.6511 70.8037 38.6511 69.328C38.6511 67.8523 37.4442 66.6559 35.9554 66.6559C34.4666 66.6559 33.2597 67.8523 33.2597 69.328C33.2597 70.8037 34.4666 72 35.9554 72Z" fill="#FEFEFE"/>
<path d="M40.3576 59.1739C47.0511 58.089 53.0874 54.5473 57.2664 49.2521C61.4453 43.957 63.4604 37.2961 62.9113 30.5954C62.3622 23.8946 59.2891 17.6443 54.3028 13.087C49.3165 8.52972 42.7827 6 36.0002 6C29.2177 6 22.6835 8.52972 17.6972 13.087C12.7109 17.6443 9.63778 23.8946 9.08868 30.5954C8.53959 37.2961 10.5547 43.957 14.7336 49.2521C18.9126 54.5473 24.9492 58.089 31.6428 59.1739C34.2477 60.0654 35.9547 64.8746 35.9547 64.8746C36.1947 63.6519 36.717 62.5012 37.4809 61.5121C38.2447 60.5231 39.2295 59.7226 40.3576 59.1739V59.1739Z" fill="#FEFEFE"/>
<path d="M35.8058 53.8367C47.4477 53.8367 56.8853 44.482 56.8853 32.9425C56.8853 21.4029 47.4477 12.0483 35.8058 12.0483C24.1639 12.0483 14.7262 21.4029 14.7262 32.9425C14.7262 44.482 24.1639 53.8367 35.8058 53.8367Z" stroke="#FEFEFE" stroke-width="0.847403"/>
</g>
<circle cx="36.3947" cy="33.3947" r="22.3947" fill="#00C686"/>
<path d="M33.5313 37.1181V41.9375C33.5313 42.1198 33.4621 42.2947 33.339 42.4236C33.216 42.5526 33.0491 42.625 32.875 42.625H27.625C27.451 42.625 27.284 42.5526 27.161 42.4236C27.0379 42.2947 26.9688 42.1198 26.9688 41.9375V32.3125C26.9686 32.2222 26.9854 32.1327 27.0183 32.0492C27.0512 31.9656 27.0995 31.8897 27.1604 31.8258L35.0354 23.5758C35.0963 23.5117 35.1688 23.4609 35.2485 23.4263C35.3282 23.3916 35.4137 23.3738 35.5 23.3738C35.5863 23.3738 35.6718 23.3916 35.7515 23.4263C35.8312 23.4609 35.9037 23.5117 35.9646 23.5758L43.8396 31.8258C43.9005 31.8897 43.9488 31.9656 43.9817 32.0492C44.0146 32.1327 44.0314 32.2222 44.0313 32.3125V41.9375C44.0313 42.1198 43.9621 42.2947 43.839 42.4236C43.716 42.5526 43.5491 42.625 43.375 42.625H38.125C37.951 42.625 37.784 42.5526 37.661 42.4236C37.5379 42.2947 37.4688 42.1198 37.4688 41.9375V37.125C37.4688 36.7813 37.1406 36.4375 36.8125 36.4375H34.1875C33.8594 36.4375 33.5313 36.7813 33.5313 37.1181Z" fill="white"/>
<path fill-rule="evenodd" clip-rule="evenodd" d="M42.0625 25.4375V30.25L39.4375 27.5V25.4375C39.4375 25.2552 39.5066 25.0803 39.6297 24.9514C39.7528 24.8224 39.9197 24.75 40.0938 24.75H41.4063C41.5803 24.75 41.7472 24.8224 41.8703 24.9514C41.9934 25.0803 42.0625 25.2552 42.0625 25.4375Z" fill="white"/>
<defs>
<filter id="filter0_d_1009_8983" x="0.525973" y="0.915584" width="70.9481" height="82.9481" filterUnits="userSpaceOnUse" color-interpolation-filters="sRGB">
<feFlood flood-opacity="0" result="BackgroundImageFix"/>
<feColorMatrix in="SourceAlpha" type="matrix" values="0 0 0 0 0 0 0 0 0 0 0 0 0 0 0 0 0 0 127 0" result="hardAlpha"/>
<feOffset dy="3.38961"/>
<feGaussianBlur stdDeviation="4.23701"/>
<feColorMatrix type="matrix" values="0 0 0 0 0 0 0 0 0 0 0 0 0 0 0 0 0 0 0.25 0"/>
<feBlend mode="normal" in2="BackgroundImageFix" result="effect1_dropShadow_1009_8983"/>
<feBlend mode="normal" in="SourceGraphic" in2="effect1_dropShadow_1009_8983" result="shape"/>
</filter>
</defs>
</svg>
