<svg width="25" height="24" viewBox="0 0 25 24" xmlns="http://www.w3.org/2000/svg">
<path d="M3.25586 20.25V10.5H4.75586V20.25C4.75586 20.4489 4.83488 20.6397 4.97553 20.7803C5.11618 20.921 5.30695 21 5.50586 21H19.0059C19.2048 21 19.3955 20.921 19.5362 20.7803C19.6768 20.6397 19.7559 20.4489 19.7559 20.25V10.5H21.2559V20.25C21.2559 20.8467 21.0188 21.419 20.5968 21.841C20.1749 22.2629 19.6026 22.5 19.0059 22.5H5.50586C4.90912 22.5 4.33683 22.2629 3.91487 21.841C3.49291 21.419 3.25586 20.8467 3.25586 20.25ZM19.7559 3.75V9L16.7559 6V3.75C16.7559 3.55109 16.8349 3.36032 16.9755 3.21967C17.1162 3.07902 17.3069 3 17.5059 3H19.0059C19.2048 3 19.3955 3.07902 19.5362 3.21967C19.6768 3.36032 19.7559 3.55109 19.7559 3.75Z"/>
<path d="M11.1953 2.24997C11.4766 1.96876 11.8581 1.81079 12.2558 1.81079C12.6536 1.81079 13.035 1.96876 13.3163 2.24997L23.2868 12.219C23.4277 12.3598 23.5068 12.5508 23.5068 12.75C23.5068 12.9491 23.4277 13.1401 23.2868 13.281C23.146 13.4218 22.955 13.5009 22.7558 13.5009C22.5567 13.5009 22.3657 13.4218 22.2248 13.281L12.2558 3.31047L2.28683 13.281C2.146 13.4218 1.95499 13.5009 1.75583 13.5009C1.55667 13.5009 1.36566 13.4218 1.22483 13.281C1.084 13.1401 1.00488 12.9491 1.00488 12.75C1.00488 12.5508 1.084 12.3598 1.22483 12.219L11.1953 2.24997Z"/>
</svg>
