<svg width="18" height="14" viewBox="0 0 18 14" xmlns="http://www.w3.org/2000/svg">
<path fill-rule="evenodd" clip-rule="evenodd" d="M0.962158 13.25C0.962158 13.0511 1.04118 12.8603 1.18183 12.7197C1.32248 12.579 1.51325 12.5 1.71216 12.5H16.7122C16.9111 12.5 17.1018 12.579 17.2425 12.7197C17.3831 12.8603 17.4622 13.0511 17.4622 13.25C17.4622 13.4489 17.3831 13.6397 17.2425 13.7803C17.1018 13.921 16.9111 14 16.7122 14H1.71216C1.51325 14 1.32248 13.921 1.18183 13.7803C1.04118 13.6397 0.962158 13.4489 0.962158 13.25ZM0.962158 7.25C0.962158 7.05109 1.04118 6.86032 1.18183 6.71967C1.32248 6.57902 1.51325 6.5 1.71216 6.5H16.7122C16.9111 6.5 17.1018 6.57902 17.2425 6.71967C17.3831 6.86032 17.4622 7.05109 17.4622 7.25C17.4622 7.44891 17.3831 7.63968 17.2425 7.78033C17.1018 7.92098 16.9111 8 16.7122 8H1.71216C1.51325 8 1.32248 7.92098 1.18183 7.78033C1.04118 7.63968 0.962158 7.44891 0.962158 7.25ZM0.962158 1.25C0.962158 1.05109 1.04118 0.860322 1.18183 0.71967C1.32248 0.579018 1.51325 0.5 1.71216 0.5H16.7122C16.9111 0.5 17.1018 0.579018 17.2425 0.71967C17.3831 0.860322 17.4622 1.05109 17.4622 1.25C17.4622 1.44891 17.3831 1.63968 17.2425 1.78033C17.1018 1.92098 16.9111 2 16.7122 2H1.71216C1.51325 2 1.32248 1.92098 1.18183 1.78033C1.04118 1.63968 0.962158 1.44891 0.962158 1.25Z" />
</svg>
