<svg width="35" height="35" viewBox="0 0 35 35" fill="none" xmlns="http://www.w3.org/2000/svg">
<path fill-rule="evenodd" clip-rule="evenodd" d="M18.0966 10.1534C17.9384 9.99515 17.7238 9.90625 17.5 9.90625C17.2762 9.90625 17.0616 9.99515 16.9034 10.1534C16.7451 10.3116 16.6562 10.5262 16.6562 10.75V16.6562H10.75C10.5262 16.6562 10.3116 16.7451 10.1534 16.9034C9.99515 17.0616 9.90625 17.2762 9.90625 17.5C9.90625 17.7238 9.99515 17.9384 10.1534 18.0966C10.3116 18.2549 10.5262 18.3438 10.75 18.3438H16.6562V24.25C16.6562 24.4738 16.7451 24.6884 16.9034 24.8466C17.0616 25.0049 17.2762 25.0938 17.5 25.0938C17.7238 25.0938 17.9384 25.0049 18.0966 24.8466C18.2549 24.6884 18.3438 24.4738 18.3438 24.25V18.3438H24.25C24.4738 18.3438 24.6884 18.2549 24.8466 18.0966C25.0049 17.9384 25.0938 17.7238 25.0938 17.5C25.0938 17.2762 25.0049 17.0616 24.8466 16.9034C24.6884 16.7451 24.4738 16.6562 24.25 16.6562H18.3438V10.75C18.3438 10.5262 18.2549 10.3116 18.0966 10.1534Z" fill="#00C686"/>
</svg>
