<svg width="14" height="14" viewBox="0 0 14 14" xmlns="http://www.w3.org/2000/svg">
<path fill-rule="evenodd" clip-rule="evenodd" d="M6.75 0.741943C6.94891 0.741943 7.13968 0.818412 7.28033 0.954527C7.42098 1.09064 7.5 1.27525 7.5 1.46775V7.2742C7.5 7.4667 7.42098 7.65131 7.28033 7.78742C7.13968 7.92354 6.94891 8.00001 6.75 8.00001H0.75C0.551088 8.00001 0.360322 7.92354 0.21967 7.78742C0.0790178 7.65131 0 7.4667 0 7.2742C0 7.08171 0.0790178 6.89709 0.21967 6.76098C0.360322 6.62486 0.551088 6.5484 0.75 6.5484H6V1.46775C6 1.27525 6.07902 1.09064 6.21967 0.954527C6.36032 0.818412 6.55109 0.741943 6.75 0.741943V0.741943Z" fill="#00C686"/>
<path fill-rule="evenodd" clip-rule="evenodd" d="M6 7.27421C6 7.08171 6.07902 6.8971 6.21967 6.76098C6.36032 6.62487 6.55109 6.5484 6.75 6.5484H12.75C12.9489 6.5484 13.1397 6.62487 13.2803 6.76098C13.421 6.8971 13.5 7.08171 13.5 7.27421C13.5 7.4667 13.421 7.65132 13.2803 7.78743C13.1397 7.92355 12.9489 8.00001 12.75 8.00001H7.5V13.0807C7.5 13.2732 7.42098 13.4578 7.28033 13.5939C7.13968 13.73 6.94891 13.8065 6.75 13.8065C6.55109 13.8065 6.36032 13.73 6.21967 13.5939C6.07902 13.4578 6 13.2732 6 13.0807V7.27421Z" fill="#00C686"/>
</svg>
