<svg width="25" height="24" viewBox="0 0 25 24" xmlns="http://www.w3.org/2000/svg">
<path  d="M12.5747 2.25C10.7845 2.25 9.06761 2.96116 7.80174 4.22703C6.53587 5.4929 5.82471 7.20979 5.82471 9H4.32471C4.32471 6.81196 5.1939 4.71354 6.74108 3.16637C8.28825 1.61919 10.3867 0.75 12.5747 0.75C14.7627 0.75 16.8612 1.61919 18.4083 3.16637C19.9555 4.71354 20.8247 6.81196 20.8247 9H19.3247C19.3247 7.20979 18.6135 5.4929 17.3477 4.22703C16.0818 2.96116 14.3649 2.25 12.5747 2.25Z"/>
<path  d="M2.98973 8.5305C3.06003 8.44293 3.14908 8.37227 3.25033 8.32372C3.35158 8.27517 3.46244 8.24998 3.57473 8.25H21.5747C21.687 8.25004 21.7977 8.27527 21.8989 8.32383C22.0001 8.37238 22.0891 8.44302 22.1593 8.53054C22.2296 8.61806 22.2793 8.72023 22.3048 8.82952C22.3303 8.93881 22.331 9.05242 22.3067 9.162L19.5677 21.4875C19.4568 21.9873 19.1788 22.4343 18.7795 22.7547C18.3803 23.0752 17.8837 23.2499 17.3717 23.25H7.77773C7.26579 23.2499 6.7692 23.0752 6.36995 22.7547C5.97069 22.4343 5.69265 21.9873 5.58173 21.4875L2.84273 9.162C2.81867 9.05267 2.81938 8.93935 2.84481 8.83034C2.87025 8.72132 2.91977 8.61938 2.98973 8.532V8.5305ZM4.50923 9.75L7.04573 21.162C7.08261 21.3287 7.17524 21.4778 7.30834 21.5847C7.44143 21.6916 7.60702 21.7499 7.77773 21.75H17.3717C17.5424 21.7499 17.708 21.6916 17.8411 21.5847C17.9742 21.4778 18.0669 21.3287 18.1037 21.162L20.6387 9.75H4.51073H4.50923Z"/>
</svg>
