<svg width="17" height="21" viewBox="0 0 17 21" xmlns="http://www.w3.org/2000/svg">
<path d="M4.62985 20.4737C4.87988 20.5776 5.14364 20.3527 4.99055 20.1665C4.15964 19.1561 3.37282 17.4558 4.62642 15.2661C6.71695 11.6146 7.98904 9.72335 7.98904 9.72335C7.98904 9.72335 8.66566 11.9304 10.4998 13.8928C12.2651 15.7815 13.2313 18.1568 11.6736 20.1356C11.5274 20.3213 11.7852 20.5404 12.0336 20.4411C13.9618 19.6704 16.1244 18.1246 16.3684 15.0484C16.4584 14.1084 16.3235 12.7924 15.6488 11.1317C14.7813 9.02692 13.7148 8.04479 13.0977 7.62303C12.9132 7.49685 12.6261 7.60868 12.6412 7.79992C12.821 10.071 11.7276 10.6473 11.1051 9.34848C10.8566 8.82973 10.7116 7.93247 10.7116 6.83979C10.7116 5.02067 10.0361 3.14806 8.54692 1.62636C8.15965 1.23064 7.70651 0.860871 7.18661 0.545544C6.9984 0.431361 6.72557 0.546132 6.7428 0.731818C6.85715 1.96502 6.75355 5.4993 2.78508 9.72165C-0.81315 13.6384 0.581154 16.6464 1.07591 17.4611C2.02184 19.0218 3.34128 19.9384 4.62985 20.4737Z"/>
</svg>
