<svg width="30" height="30" viewBox="0 0 30 30" fill="none" xmlns="http://www.w3.org/2000/svg">
<path d="M0 15C0 6.71573 6.71573 0 15 0C23.2843 0 30 6.71573 30 15C30 23.2843 23.2843 30 15 30C6.71573 30 0 23.2843 0 15Z" fill="#E0FFF4"/>
<path d="M10.8937 13.1775L9.17875 14.8925C8.47543 15.5958 8.08031 16.5497 8.08031 17.5444C8.08031 18.539 8.47543 19.4929 9.17875 20.1962C9.88207 20.8996 10.836 21.2947 11.8306 21.2947C12.8253 21.2947 13.7792 20.8996 14.4825 20.1962L16.7675 17.91C17.1916 17.4858 17.5078 16.9661 17.6895 16.3944C17.8712 15.8228 17.9131 15.2159 17.8117 14.6247C17.7103 14.0335 17.4686 13.4752 17.1068 12.9968C16.745 12.5183 16.2737 12.1336 15.7325 11.875L15 12.6075C14.9256 12.682 14.8609 12.7656 14.8075 12.8562C15.2257 12.9765 15.6052 13.2037 15.9086 13.5156C16.212 13.8274 16.4288 14.2131 16.5375 14.6344C16.6462 15.0556 16.6431 15.498 16.5284 15.9177C16.4138 16.3375 16.1915 16.72 15.8837 17.0275L13.6 19.3125C13.1309 19.7816 12.4947 20.0451 11.8312 20.0451C11.1678 20.0451 10.5316 19.7816 10.0625 19.3125C9.5934 18.8434 9.32986 18.2072 9.32986 17.5437C9.32986 16.8803 9.5934 16.2441 10.0625 15.775L11.0537 14.785C10.9139 14.2609 10.8599 13.7176 10.8937 13.1762V13.1775Z" fill="#00C686"/>
<path d="M12.14 13.7L12.3487 13.4913C12.6584 13.1804 13.0448 12.957 13.4687 12.8438C13.582 12.4199 13.8054 12.0335 14.1162 11.7238L14.325 11.515C13.6962 11.4797 13.0686 11.603 12.5 11.8738C12.225 12.4488 12.105 13.0775 12.14 13.6988V13.7Z" fill="#00C686"/>
<path d="M13.2325 10.84C12.8084 11.2642 12.4922 11.7839 12.3105 12.3556C12.1288 12.9272 12.0869 13.5341 12.1883 14.1253C12.2897 14.7166 12.5314 15.2748 12.8932 15.7533C13.255 16.2317 13.7263 16.6164 14.2675 16.875L15.2363 15.905C14.8124 15.7913 14.426 15.5681 14.1158 15.2578C13.8056 14.9474 13.5825 14.5609 13.469 14.137C13.3555 13.7132 13.3556 13.2669 13.4692 12.8431C13.5828 12.4192 13.806 12.0328 14.1163 11.7225L16.4 9.43752C16.8691 8.96841 17.5053 8.70488 18.1688 8.70488C18.8322 8.70488 19.4684 8.96841 19.9375 9.43752C20.4066 9.90662 20.6701 10.5429 20.6701 11.2063C20.6701 11.8697 20.4066 12.5059 19.9375 12.975L18.9463 13.965C19.0863 14.49 19.14 15.0338 19.1063 15.5738L20.8213 13.8588C21.5246 13.1554 21.9197 12.2015 21.9197 11.2069C21.9197 10.2122 21.5246 9.25834 20.8213 8.55502C20.1179 7.8517 19.164 7.45657 18.1694 7.45657C17.1747 7.45657 16.2208 7.8517 15.5175 8.55502L13.2325 10.84Z" fill="#00C686"/>
<path d="M17.5 16.875C17.7719 16.3067 17.8957 15.6789 17.86 15.05L17.6513 15.2587C17.3416 15.5696 16.9552 15.793 16.5313 15.9062C16.418 16.3301 16.1946 16.7165 15.8838 17.0262L15.675 17.235C16.3038 17.2703 16.9314 17.147 17.5 16.8762V16.875Z" fill="#00C686"/>
</svg>
