<svg width="10" height="11" viewBox="0 0 10 11" xmlns="http://www.w3.org/2000/svg">
<path d="M3.28125 4.28125C3.37242 4.28125 3.45985 4.31747 3.52432 4.38193C3.58878 4.4464 3.625 4.53383 3.625 4.625V8.75C3.625 8.84117 3.58878 8.9286 3.52432 8.99307C3.45985 9.05753 3.37242 9.09375 3.28125 9.09375C3.19008 9.09375 3.10265 9.05753 3.03818 8.99307C2.97372 8.9286 2.9375 8.84117 2.9375 8.75V4.625C2.9375 4.53383 2.97372 4.4464 3.03818 4.38193C3.10265 4.31747 3.19008 4.28125 3.28125 4.28125V4.28125ZM5 4.28125C5.09117 4.28125 5.1786 4.31747 5.24307 4.38193C5.30753 4.4464 5.34375 4.53383 5.34375 4.625V8.75C5.34375 8.84117 5.30753 8.9286 5.24307 8.99307C5.1786 9.05753 5.09117 9.09375 5 9.09375C4.90883 9.09375 4.8214 9.05753 4.75693 8.99307C4.69247 8.9286 4.65625 8.84117 4.65625 8.75V4.625C4.65625 4.53383 4.69247 4.4464 4.75693 4.38193C4.8214 4.31747 4.90883 4.28125 5 4.28125V4.28125ZM7.0625 4.625C7.0625 4.53383 7.02628 4.4464 6.96182 4.38193C6.89735 4.31747 6.80992 4.28125 6.71875 4.28125C6.62758 4.28125 6.54015 4.31747 6.47568 4.38193C6.41122 4.4464 6.375 4.53383 6.375 4.625V8.75C6.375 8.84117 6.41122 8.9286 6.47568 8.99307C6.54015 9.05753 6.62758 9.09375 6.71875 9.09375C6.80992 9.09375 6.89735 9.05753 6.96182 8.99307C7.02628 8.9286 7.0625 8.84117 7.0625 8.75V4.625Z" fill="#424962"/>
<path fill-rule="evenodd" clip-rule="evenodd" d="M9.46875 2.5625C9.46875 2.74484 9.39632 2.9197 9.26739 3.04864C9.13845 3.17757 8.96359 3.25 8.78125 3.25H8.4375V9.4375C8.4375 9.80217 8.29263 10.1519 8.03477 10.4098C7.77691 10.6676 7.42717 10.8125 7.0625 10.8125H2.9375C2.57283 10.8125 2.22309 10.6676 1.96523 10.4098C1.70737 10.1519 1.5625 9.80217 1.5625 9.4375V3.25H1.21875C1.03641 3.25 0.861545 3.17757 0.732614 3.04864C0.603683 2.9197 0.53125 2.74484 0.53125 2.5625V1.875C0.53125 1.69266 0.603683 1.5178 0.732614 1.38886C0.861545 1.25993 1.03641 1.1875 1.21875 1.1875H3.625C3.625 1.00516 3.69743 0.830295 3.82636 0.701364C3.9553 0.572433 4.13016 0.5 4.3125 0.5H5.6875C5.86984 0.5 6.0447 0.572433 6.17364 0.701364C6.30257 0.830295 6.375 1.00516 6.375 1.1875H8.78125C8.96359 1.1875 9.13845 1.25993 9.26739 1.38886C9.39632 1.5178 9.46875 1.69266 9.46875 1.875V2.5625ZM2.33113 3.25L2.25 3.29056V9.4375C2.25 9.61984 2.32243 9.7947 2.45136 9.92364C2.5803 10.0526 2.75516 10.125 2.9375 10.125H7.0625C7.24484 10.125 7.4197 10.0526 7.54864 9.92364C7.67757 9.7947 7.75 9.61984 7.75 9.4375V3.29056L7.66887 3.25H2.33113ZM1.21875 2.5625V1.875H8.78125V2.5625H1.21875Z" fill="#424962"/>
</svg>
