<svg width="22" height="20" viewBox="0 0 22 20" fill="none" xmlns="http://www.w3.org/2000/svg">
<path   d="M10.9313 15.031C10.8614 14.9613 10.806 14.8786 10.7682 14.7875C10.7304 14.6963 10.7109 14.5987 10.7109 14.5C10.7109 14.4014 10.7304 14.3037 10.7682 14.2126C10.806 14.1214 10.8614 14.0387 10.9313 13.969L14.9018 10L10.9313 6.031C10.7904 5.89017 10.7113 5.69917 10.7113 5.5C10.7113 5.30084 10.7904 5.10983 10.9313 4.969C11.0721 4.82817 11.2631 4.74905 11.4623 4.74905C11.6614 4.74905 11.8524 4.82817 11.9933 4.969L16.4933 9.469C16.5631 9.53867 16.6185 9.62143 16.6563 9.71255C16.6942 9.80367 16.7136 9.90135 16.7136 10C16.7136 10.0987 16.6942 10.1963 16.6563 10.2875C16.6185 10.3786 16.5631 10.4613 16.4933 10.531L11.9933 15.031C11.9236 15.1008 11.8408 15.1563 11.7497 15.1941C11.6586 15.2319 11.5609 15.2513 11.4623 15.2513C11.3636 15.2513 11.2659 15.2319 11.1748 15.1941C11.0837 15.1563 11.0009 15.1008 10.9313 15.031Z" fill="#424962"/>
<path  d="M0.212158 10C0.212158 9.80109 0.291176 9.61032 0.431828 9.46967C0.57248 9.32902 0.763246 9.25 0.962158 9.25H14.4622C14.6611 9.25 14.8518 9.32902 14.9925 9.46967C15.1331 9.61032 15.2122 9.80109 15.2122 10C15.2122 10.1989 15.1331 10.3897 14.9925 10.5303C14.8518 10.671 14.6611 10.75 14.4622 10.75H0.962158C0.763246 10.75 0.57248 10.671 0.431828 10.5303C0.291176 10.3897 0.212158 10.1989 0.212158 10V10Z" fill="#424962"/>
<path  d="M18.9622 19.75C19.5589 19.75 20.1312 19.5129 20.5531 19.091C20.9751 18.669 21.2122 18.0967 21.2122 17.5V2.5C21.2122 1.90326 20.9751 1.33097 20.5531 0.90901C20.1312 0.487053 19.5589 0.25 18.9622 0.25H6.96216C6.36542 0.25 5.79312 0.487053 5.37117 0.90901C4.94921 1.33097 4.71216 1.90326 4.71216 2.5V4.75C4.71216 4.94891 4.79118 5.13968 4.93183 5.28033C5.07248 5.42098 5.26325 5.5 5.46216 5.5C5.66107 5.5 5.85184 5.42098 5.99249 5.28033C6.13314 5.13968 6.21216 4.94891 6.21216 4.75V2.5C6.21216 2.30109 6.29118 2.11032 6.43183 1.96967C6.57248 1.82902 6.76325 1.75 6.96216 1.75H18.9622C19.1611 1.75 19.3518 1.82902 19.4925 1.96967C19.6331 2.11032 19.7122 2.30109 19.7122 2.5V17.5C19.7122 17.6989 19.6331 17.8897 19.4925 18.0303C19.3518 18.171 19.1611 18.25 18.9622 18.25H6.96216C6.76325 18.25 6.57248 18.171 6.43183 18.0303C6.29118 17.8897 6.21216 17.6989 6.21216 17.5V15.25C6.21216 15.0511 6.13314 14.8603 5.99249 14.7197C5.85184 14.579 5.66107 14.5 5.46216 14.5C5.26325 14.5 5.07248 14.579 4.93183 14.7197C4.79118 14.8603 4.71216 15.0511 4.71216 15.25V17.5C4.71216 18.0967 4.94921 18.669 5.37117 19.091C5.79312 19.5129 6.36542 19.75 6.96216 19.75H18.9622Z" fill="#424962"/>
</svg>
