<svg width="24" height="24" viewBox="0 0 24 24" color="currentColor" fill="none" xmlns="http://www.w3.org/2000/svg">
<path d="M2.00005 11.7097V21.0053C2.00005 22.1071 2.90791 23 4.02791 23H19.9712C21.0912 23 22 22.1071 22 21.0053V11.7029C22.0003 11.2052 21.8085 10.7246 21.4607 10.3521L13.1605 1.48288C13.0216 1.33174 12.8502 1.21049 12.6579 1.12721C12.4657 1.04394 12.2569 1.00057 12.0455 1.00001C11.8341 0.99944 11.6251 1.04169 11.4323 1.12394C11.2395 1.20618 11.0675 1.32652 10.9277 1.47691L2.54028 10.3461C2.18884 10.7217 1.99641 11.2075 2.00005 11.7097V11.7097Z" stroke="#00C686" stroke-width="2" stroke-miterlimit="10"/>
</svg>
