<svg width="24" height="25" viewBox="0 0 24 25" fill="currentColor" xmlns="http://www.w3.org/2000/svg">
<path fill-rule="evenodd" clip-rule="evenodd" d="M12 2.81818C10.264 2.81818 8.59918 3.68019 7.37166 5.21458C6.14415 6.74897 5.45455 8.83005 5.45455 11H4C4 8.34784 4.84285 5.8043 6.34315 3.92893C7.84344 2.05357 9.87827 1 12 1C14.1217 1 16.1566 2.05357 17.6569 3.92893C19.1571 5.8043 20 8.34784 20 11H18.5455C18.5455 8.83005 17.8558 6.74897 16.6283 5.21458C15.4008 3.68019 13.736 2.81818 12 2.81818V2.81818Z" fill="currentColor"/>
<path fill-rule="evenodd" clip-rule="evenodd" d="M2.16876 11.2431C2.24086 11.1672 2.33221 11.106 2.43606 11.0639C2.53991 11.0218 2.65361 11 2.76879 11H21.231C21.3462 11 21.4598 11.0219 21.5636 11.064C21.6673 11.1061 21.7586 11.1673 21.8307 11.2431C21.9027 11.319 21.9537 11.4075 21.9799 11.5022C22.006 11.597 22.0067 11.6954 21.9818 11.7904L19.1725 22.4725C19.0587 22.9056 18.7736 23.2931 18.364 23.5708C17.9545 23.8485 17.4452 23.9999 16.9201 24H7.07972C6.55464 23.9999 6.04529 23.8485 5.63578 23.5708C5.22628 23.2931 4.9411 22.9056 4.82733 22.4725L2.01799 11.7904C1.9933 11.6957 1.99403 11.5974 2.02012 11.503C2.04621 11.4085 2.097 11.3201 2.16876 11.2444V11.2431Z" fill="currentColor"/>
</svg>
